<svg width="81" height="75" viewBox="0 0 81 75" fill="none" xmlns="http://www.w3.org/2000/svg">
<path d="M59.3999 16.8751C58.7754 16.8751 58.1841 17.0167 57.6559 17.2691C57.9083 16.7409 58.0499 16.1496 58.0499 15.5251C58.0499 13.2883 56.2367 11.4751 53.9999 11.4751C51.7631 11.4751 49.9499 13.2883 49.9499 15.5251C49.9499 16.6434 50.4032 17.6559 51.136 18.3889L45.8999 23.6251L51.2999 29.0251L56.536 23.7889C57.2691 24.5217 58.2816 24.9751 59.3999 24.9751C61.6367 24.9751 63.4499 23.1619 63.4499 20.9251C63.4499 18.6883 61.6367 16.8751 59.3999 16.8751Z" fill="#96AFB8"/>
<path d="M58.0499 15.5251C58.0499 13.2883 56.2367 11.4751 53.9999 11.4751C51.7631 11.4751 49.9499 13.2883 49.9499 15.5251C49.9499 16.6434 50.4032 17.6559 51.136 18.3889L45.8999 23.6251L48.5999 26.3251L55.7439 19.1811C57.1076 18.5292 58.0499 17.1372 58.0499 15.5251Z" fill="#96AFB8"/>
<path d="M58.5002 45.2251V43.8751C58.5002 32.6914 49.4339 23.6251 38.2502 23.6251H28.3501C17.1664 23.6251 8.1001 32.6914 8.1001 43.8751V50.6251C8.1001 58.081 14.1442 64.1251 21.6001 64.1251H62.1001C68.0647 64.1251 72.9001 59.2897 72.9001 53.3251C72.9001 51.8338 71.6913 50.6251 70.2001 50.6251H63.9002C60.9178 50.6251 58.5002 48.2074 58.5002 45.2251Z" fill="#E28857"/>
<path d="M71.312 50.8642C69.4129 53.9587 65.9972 56.0251 62.1001 56.0251H21.6001C14.3459 56.0251 8.43017 50.3029 8.11528 43.1263C8.10634 43.3749 8.1001 43.6242 8.1001 43.8751V50.6251C8.1001 58.081 14.1442 64.1251 21.6001 64.1251H62.1001C68.0647 64.1251 72.9001 59.2899 72.9001 53.3251C72.9001 52.2301 72.2487 51.2879 71.312 50.8642Z" fill="#E28857"/>
<path d="M60.3002 69.075C64.2766 69.075 67.5002 65.8515 67.5002 61.875C67.5002 57.8985 64.2766 54.6749 60.3002 54.6749C56.3237 54.6749 53.1001 57.8985 53.1001 61.875C53.1001 65.8515 56.3237 69.075 60.3002 69.075Z" fill="#FF6752"/>
<path d="M54.9001 62.5501C54.5273 62.5501 54.2251 62.2479 54.2251 61.8751C54.2251 58.5253 56.9502 55.8001 60.3001 55.8001C60.6729 55.8001 60.9751 56.1024 60.9751 56.4751C60.9751 56.8479 60.6729 57.1501 60.3001 57.1501C57.6948 57.1501 55.5751 59.2698 55.5751 61.8751C55.5751 62.2479 55.2729 62.5501 54.9001 62.5501Z" fill="#FF6752"/>
<path d="M20.7003 69.075C24.6768 69.075 27.9004 65.8515 27.9004 61.875C27.9004 57.8985 24.6768 54.6749 20.7003 54.6749C16.7238 54.6749 13.5002 57.8985 13.5002 61.875C13.5002 65.8515 16.7238 69.075 20.7003 69.075Z" fill="#FF6752"/>
<path d="M15.3 62.5501C14.9272 62.5501 14.625 62.2479 14.625 61.8751C14.625 58.5253 17.3501 55.8001 20.7 55.8001C21.0728 55.8001 21.375 56.1024 21.375 56.4751C21.375 56.8479 21.0728 57.1501 20.7 57.1501C18.0947 57.1501 15.975 59.2698 15.975 61.8751C15.975 62.2479 15.6728 62.5501 15.3 62.5501Z" fill="#FF6752"/>
<path d="M12.4877 45.2251C11.7422 45.2251 11.1377 44.6206 11.1377 43.8751C11.1377 34.3841 18.8592 26.6626 28.3502 26.6626C29.0957 26.6626 29.7002 27.267 29.7002 28.0126C29.7002 28.7581 29.0957 29.3626 28.3502 29.3626C20.3479 29.3626 13.8377 35.8728 13.8377 43.8751C13.8377 44.6206 13.2332 45.2251 12.4877 45.2251Z" fill="#E28857"/>
<path d="M2.7 64.1251H78.3C79.7912 64.1251 81 65.3338 81 66.8251C81 68.3163 79.7912 69.5251 78.3 69.5251H2.7C1.20876 69.5251 0 68.3163 0 66.8251C0 65.3338 1.20876 64.1251 2.7 64.1251Z" fill="#B1BCAE"/>
<path d="M10.35 69.5251H70.6501L64.8 74.9251H16.2L10.35 69.5251Z" fill="#A2AF9F"/>
<path d="M53.9939 29.2743C53.9978 29.1812 54.0002 29.0961 54.0002 29.0249C54.0002 24.5514 50.3737 20.9249 45.9002 20.9249C45.829 20.9249 45.7441 20.9273 45.6509 20.9312C45.3971 20.9389 45.1464 20.9582 44.8988 20.9887C40.1639 21.4729 24.3002 24.9824 24.3002 39.8251C24.3002 45.7897 29.1355 50.6251 35.1002 50.6251C49.9431 50.6251 53.4524 34.7614 53.9364 30.0265C53.9669 29.7789 53.9862 29.5281 53.9939 29.2743Z" fill="#E28857"/>
<path d="M28.6878 41.1751C27.9422 41.1751 27.3378 40.5706 27.3378 39.8251C27.3378 34.5975 29.7177 30.4888 34.4113 27.6123C38.0218 25.3995 42.4839 24.2891 45.2077 24.0105L45.2835 24.0019C45.4278 23.9842 45.5869 23.972 45.744 23.9675C45.7497 23.9671 45.8702 23.9629 45.8966 23.9626H45.9072C46.648 23.9626 47.2511 24.56 47.257 25.302C47.2628 26.0477 46.6632 26.6567 45.9177 26.6626L45.8392 26.6658C45.7496 26.6687 45.6738 26.6744 45.5991 26.6833L45.4965 26.695C43.0403 26.9461 39.0453 27.9387 35.8217 29.9144C31.8758 32.3328 30.0378 35.482 30.0378 39.8251C30.0378 40.5706 29.4333 41.1751 28.6878 41.1751Z" fill="#E28857"/>
<path d="M32.4002 14.8501C31.882 14.8501 31.3636 14.6523 30.9684 14.2569C30.1774 13.466 30.1774 12.184 30.9684 11.3931C31.6677 10.6938 31.6677 9.55606 30.9684 8.85693C28.6901 6.57863 28.6901 2.87137 30.9684 0.593072C31.7591 -0.197691 33.0415 -0.197691 33.8322 0.593072C34.6232 1.384 34.6232 2.666 33.8322 3.45693C33.1329 4.15623 33.1329 5.29394 33.8322 5.99307C36.1105 8.27137 36.1105 11.9786 33.8322 14.2569C33.4368 14.6523 32.9184 14.8501 32.4002 14.8501Z" fill="#96AFB8"/>
<path d="M45.8998 14.8501C45.3816 14.8501 44.8632 14.6523 44.468 14.2569C43.6771 13.466 43.6771 12.184 44.468 11.3931C45.1673 10.6938 45.1673 9.55606 44.468 8.85693C42.1897 6.57863 42.1897 2.87137 44.468 0.593072C45.2588 -0.197691 46.5411 -0.197691 47.3319 0.593072C48.1228 1.384 48.1228 2.666 47.3319 3.45693C46.6326 4.15623 46.6326 5.29394 47.3319 5.99307C49.6101 8.27137 49.6101 11.9786 47.3319 14.2569C46.9365 14.6523 46.4181 14.8501 45.8998 14.8501Z" fill="#96AFB8"/>
<path d="M18.9 14.8501C18.3817 14.8501 17.8633 14.6523 17.4681 14.2569C16.6772 13.466 16.6772 12.184 17.4681 11.3931C18.1674 10.6938 18.1674 9.55606 17.4681 8.85693C15.1898 6.57863 15.1898 2.87137 17.4681 0.593072C18.2589 -0.197691 19.5412 -0.197691 20.332 0.593072C21.1229 1.384 21.1229 2.666 20.332 3.45693C19.6327 4.15623 19.6327 5.29394 20.332 5.99307C22.6103 8.27137 22.6103 11.9786 20.332 14.2569C19.9366 14.6523 19.4182 14.8501 18.9 14.8501Z" fill="#96AFB8"/>
<path d="M75.5998 58.7251C73.0922 58.7251 73.0922 61.4251 70.5846 61.4251C68.077 61.4251 68.077 58.7251 65.5693 58.7251C63.062 58.7251 63.062 61.4251 60.5548 61.4251C58.0473 61.4251 58.0473 58.7251 55.54 58.7251C53.0327 58.7251 53.0327 61.4251 50.5254 61.4251C48.0182 61.4251 48.0182 58.7251 45.511 58.7251C43.0041 58.7251 43.0041 61.4251 40.4971 61.4251C37.9902 61.4251 37.9902 58.7251 35.4834 58.7251C32.9768 58.7251 32.9768 61.4251 30.4702 61.4251C27.9631 61.4251 27.9631 58.7251 25.4559 58.7251C22.949 58.7251 22.949 61.4251 20.4419 61.4251C17.9349 61.4251 17.9349 58.7251 15.428 58.7251C12.921 58.7251 12.921 61.4251 10.4141 61.4251C7.90678 61.4251 7.90678 58.7251 5.39983 58.7251C3.90859 58.7251 2.69983 59.9338 2.69983 61.4251V64.1251H78.2998V61.4251C78.2998 59.9338 77.0911 58.7251 75.5998 58.7251Z" fill="#4CA346"/>
</svg>
