<svg width="64" height="64" viewBox="0 0 64 64" fill="none" xmlns="http://www.w3.org/2000/svg">
<path d="M60.3999 37.7235C60.3999 38.8801 59.9316 39.9262 59.1743 40.6835C58.4158 41.4407 57.3697 41.9091 56.2143 41.9091H7.78566C5.47491 41.9091 3.60004 40.0356 3.60004 37.7235C3.60004 37.1041 3.73404 36.5174 3.97479 35.9891C4.18429 35.5299 4.47316 35.1161 4.82566 34.7635C5.58416 34.0062 6.63029 33.5379 7.78566 33.5379H56.2144C57.9072 33.5379 59.3657 34.5422 60.0253 35.9891C60.2659 36.5174 60.3999 37.1041 60.3999 37.7235Z" fill="#9D6E1E"/>
<path d="M60.0253 35.9891C59.8158 36.4471 59.5257 36.8621 59.1744 37.2135C58.4159 37.9707 57.3698 38.4391 56.2144 38.4391H7.78567C6.09429 38.4391 4.63579 37.4347 3.97479 35.9892C4.18429 35.53 4.47304 35.1162 4.82567 34.7636C5.58417 34.0064 6.63029 33.538 7.78567 33.538H56.2144C57.907 33.5379 59.3655 34.5424 60.0253 35.9891Z" fill="#D7A251"/>
<path d="M64 45.2879C64 50.6809 61.5033 54.6881 57.4673 57.3462C53.43 60.0056 47.8536 61.3159 41.6942 61.3159H22.3056C9.98713 61.3159 0 56.0739 0 45.2879C0 44.6867 0.149625 44.1169 0.42025 43.6042C0.64925 43.1671 0.965375 42.7729 1.34925 42.4371C2.182 41.7072 3.33475 41.2557 4.60588 41.2557H59.3942C61.2509 41.2557 62.8512 42.2185 63.5799 43.6042C63.8504 44.117 64 44.6869 64 45.2879Z" fill="#FFD885"/>
<path d="M63.5799 43.6044C62.7107 47.1954 60.5327 49.9926 57.4674 52.0119C53.4301 54.6713 47.8537 55.9815 41.6944 55.9815H22.3057C11.4677 55.9815 2.43572 51.9248 0.420349 43.6044C0.649349 43.1673 0.965474 42.773 1.34935 42.4373C2.1821 41.7074 3.33485 41.2559 4.60597 41.2559H59.3944C61.251 41.2559 62.8512 42.2188 63.5799 43.6044Z" fill="#FFD885"/>
<path d="M49.7984 31.7815L38.9708 42.6091C38.6989 42.8797 38.4086 43.1191 38.1016 43.326C35.8091 44.8781 32.6684 44.6401 30.6374 42.6091L19.8098 31.7815H49.7984Z" fill="#FFBC2E"/>
<path d="M49.7983 31.7815L38.9707 42.6091C38.6988 42.8797 38.4086 43.1191 38.1016 43.326C37.2755 43.045 36.5 42.5752 35.8416 41.9156L25.7075 31.7815H49.7983Z" fill="#FFBC2E"/>
<path d="M62.7848 33.292C62.7848 33.8593 62.6911 34.4395 62.4881 35.0055C61.6931 37.2239 59.5646 38.0851 57.9058 36.8595L55.9164 35.3906C54.5281 34.3641 52.7574 34.7844 51.7529 36.3795L51.6683 36.5135C50.7041 38.0461 49.0231 38.5015 47.6505 37.6038L43.1956 34.6906C42.1678 34.0193 40.9356 34.0921 39.9625 34.8845L36.3924 37.7885C35.3671 38.6225 34.0609 38.6576 33.0083 37.8783L28.9359 34.8598C27.895 34.0883 26.6044 34.1129 25.583 34.9248L21.875 37.8693C20.8796 38.659 19.628 38.7045 18.5989 37.9903L13.7979 34.6543C12.8533 33.9985 11.7149 33.9803 10.7573 34.6061L6.27901 37.5349C3.29688 37.9188 1.84626 35.729 1.84626 35.729C1.13201 34.4878 1.06038 33.0163 1.44688 31.7815C1.90613 30.3061 3.01863 29.169 4.46538 29.169H59.5361C60.9543 29.169 62.0875 30.2893 62.5534 31.775C62.7041 32.2511 62.7848 32.7651 62.7848 33.292Z" fill="#72B766"/>
<path d="M62.5532 31.775C62.5337 31.84 62.5116 31.9038 62.4882 31.9689C61.6932 34.1885 59.5647 35.0499 57.9058 33.8243L55.9165 32.354C54.5282 31.3288 52.7575 31.749 51.753 33.3429L51.6683 33.4781C50.7042 35.0108 49.0232 35.4661 47.6506 34.5684L43.1957 31.6553C42.1678 30.9826 40.9357 31.0568 39.9626 31.8491L36.3925 34.7531C35.3672 35.5871 34.061 35.621 33.0083 34.8416L28.936 31.8231C27.8951 31.0516 26.6045 31.0776 25.5831 31.8881L21.875 34.8338C20.8796 35.6223 19.628 35.669 18.5988 34.9548L13.7978 31.6188C12.8532 30.9618 11.7148 30.9435 10.7572 31.5706L6.27896 34.498C3.29684 34.8831 1.84621 32.6921 1.84621 32.6921C1.67834 32.3994 1.54571 32.0936 1.44684 31.7814C1.90609 30.306 3.01859 29.1688 4.46534 29.1688H59.5361C60.9541 29.1689 62.0873 30.2891 62.5532 31.775Z" fill="#72B766"/>
<path d="M61.6736 26.4913C61.6828 26.9245 61.6255 27.3421 61.5136 27.7364C61.0101 29.4903 59.3941 30.7731 57.479 30.7731C49.9588 30.7731 29.9286 30.604 26.9076 30.7041C26.84 30.7068 26.7724 30.7094 26.706 30.7106C22.8913 30.855 22.0221 31.4665 22.0221 33.5001V40.941C22.0221 41.3235 21.8673 41.6709 21.6163 41.922C21.3651 42.1731 21.019 42.3279 20.6365 42.3279C19.8701 42.3279 19.2495 42.9485 19.2495 43.7149V46.9559C19.2495 47.285 19.2105 47.6039 19.135 47.9109C18.707 49.683 17.1079 50.9984 15.1875 50.9984H15.0848C12.9015 50.9984 11.1346 49.225 11.1411 47.0418L11.1594 41.1753C11.1606 40.7251 11.3441 40.3165 11.6395 40.0225C11.9361 39.7271 12.3434 39.545 12.7949 39.545C13.6979 39.545 14.4304 38.8125 14.4304 37.9095V33.5001C14.4304 31.9935 13.21 30.7731 11.7034 30.7731H6.60038C4.30401 30.7731 2.37188 28.9608 2.32501 26.6644C2.27813 24.3081 4.17513 22.3825 6.52101 22.3825H57.3958C59.6934 22.3825 61.6281 24.1949 61.6736 26.4913Z" fill="#FF6752"/>
<path d="M61.6736 26.4913C61.6828 26.9245 61.6255 27.3421 61.5136 27.7364C53.5524 27.7286 34.5293 27.5711 31.5915 27.6674C27.605 27.7988 26.706 28.396 26.706 30.4648V30.7106C22.8913 30.855 22.0221 31.4665 22.0221 33.5001V40.941C22.0221 41.3235 21.8673 41.6709 21.6163 41.922C21.3651 42.1731 21.019 42.3279 20.6365 42.3279C19.8701 42.3279 19.2495 42.9485 19.2495 43.7149V46.9559C19.2495 47.285 19.2105 47.6039 19.135 47.9109C17.2536 47.6078 15.8185 45.9723 15.825 44.005L15.8433 38.1398C15.8445 37.6883 16.028 37.281 16.3234 36.987C16.62 36.6916 17.0273 36.5095 17.4788 36.5095C18.3818 36.5095 19.1143 35.777 19.1143 34.874V30.4646C19.1143 28.958 17.8939 27.7376 16.3873 27.7376H11.2843C8.98788 27.7376 7.05575 25.9253 7.00888 23.6289C6.99975 23.1956 7.057 22.778 7.17025 22.3825H57.3958C59.6934 22.3825 61.6281 24.1949 61.6736 26.4913Z" fill="#FF6752"/>
<path d="M37.6714 18.1175L28.3881 27.4046C27.4579 28.3349 26.361 28.9971 25.1926 29.3887C22.312 30.362 19.0021 29.6997 16.7096 27.4046L7.42261 18.1175H37.6714Z" fill="#FFBC2E"/>
<path d="M37.6713 18.1175L28.3881 27.4046C27.4578 28.3349 26.361 28.9971 25.1926 29.3887C24.0255 28.9971 22.9287 28.3349 21.9997 27.4046L12.7126 18.1175H37.6713Z" fill="#FFBC2E"/>
<path d="M64 19.4239C64 19.4929 63.9974 19.5605 63.9935 19.6281C63.9427 20.5011 63.568 21.2882 62.9878 21.8686C62.3619 22.4945 61.498 22.8809 60.543 22.8809H3.457C1.54825 22.8807 0 21.3325 0 19.4239C0 15.2812 1.92037 12.1625 4.8205 9.81662C7.17412 7.91187 10.1744 6.51575 13.3153 5.49187C22.1028 2.63087 32 2.68412 32 2.68412C32 2.68412 64 2.51112 64 19.4239Z" fill="#FFD885"/>
<path d="M63.9999 19.4239C63.9999 19.4929 63.9973 19.5605 63.9934 19.6281H10.4827C8.57407 19.6281 7.0257 18.0799 7.0257 16.1711C7.0257 12.0285 8.94607 8.90975 11.8462 6.564C12.3119 6.18662 12.8024 5.83025 13.3151 5.49187C22.1027 2.63087 31.9999 2.68412 31.9999 2.68412C31.9999 2.68412 63.9999 2.51112 63.9999 19.4239Z" fill="#FFD885"/>
<path d="M49.2001 8.73189C49.7549 9.31914 49.7287 10.245 49.1416 10.8C48.5543 11.3549 47.6284 11.3286 47.0736 10.7415C46.5187 10.1544 45.4973 8.11976 46.0846 7.56476C46.6718 7.00976 48.6452 8.14451 49.2001 8.73189Z" fill="#FFF5CC"/>
<path d="M41.4456 15.9618C41.7352 16.716 41.3586 17.5623 40.6043 17.8519C39.8501 18.1415 39.0038 17.7649 38.7142 17.0106C38.4246 16.2564 38.2544 13.9863 39.0086 13.6966C39.7628 13.4071 41.1559 15.2075 41.4456 15.9618Z" fill="#FFF5CC"/>
<path d="M33.4629 9.94488C33.4629 10.7529 32.8079 11.4078 32 11.4078C31.192 11.4078 30.5372 10.7528 30.5372 9.94488C30.5372 9.13688 31.1922 6.95676 32 6.95676C32.808 6.95663 33.4629 9.13688 33.4629 9.94488Z" fill="#FFF5CC"/>
<path d="M25.4192 16.8785C25.2172 17.6607 24.4192 18.1311 23.637 17.9291C22.8547 17.7271 22.3844 16.9291 22.5864 16.1469C22.7884 15.3646 23.9677 13.4175 24.7501 13.6195C25.5324 13.8215 25.6212 16.0964 25.4192 16.8785Z" fill="#FFF5CC"/>
<path d="M17.3711 10.5063C17.0189 11.2333 16.144 11.5373 15.4167 11.185C14.6897 10.8328 14.3857 9.95788 14.738 9.23063C15.0902 8.50363 16.6301 6.82688 17.3574 7.17925C18.0845 7.53163 17.7234 9.77926 17.3711 10.5063Z" fill="#FFF5CC"/>
</svg>
