<svg width="64" height="64" viewBox="0 0 64 64" fill="none" xmlns="http://www.w3.org/2000/svg">
<g clip-path="url(#clip0_101_744)">
<path d="M50 31.25V45C50 46.3808 48.8807 47.5 47.5 47.5C47.0441 47.5 46.618 47.376 46.25 47.1629V52.5C46.25 53.8808 45.1307 55 43.75 55C42.3693 55 41.25 53.8808 41.25 52.5V38.75C41.25 37.3693 42.3693 36.25 43.75 36.25C44.2059 36.25 44.632 36.374 45 36.5871V31.25C45 29.8693 46.1193 28.75 47.5 28.75C48.8807 28.75 50 29.8693 50 31.25Z" fill="#FFD885"/>
<path d="M13.75 26.25C15.1307 26.25 16.25 27.3693 16.25 28.75V34.0872C16.618 33.8741 17.0441 33.7501 17.5 33.7501C18.8807 33.7501 20 34.8694 20 36.2501V50.0001C20 51.3809 18.8807 52.5001 17.5 52.5001C16.1193 52.5001 15 51.3809 15 50.0001V44.663C14.632 44.8761 14.2059 45.0001 13.75 45.0001C12.3693 45.0001 11.25 43.8809 11.25 42.5001V28.75C11.25 27.3693 12.3693 26.25 13.75 26.25Z" fill="#FFD885"/>
<path d="M56.4105 10.0608C57.0755 10.7266 57.7076 11.4128 58.3071 12.1177C59.6802 13.7322 59.8838 16.0464 58.8359 17.8914L33.0124 63.3636C32.5305 64.2121 31.3145 64.2121 30.8326 63.3636L5.16287 18.1622C4.12325 16.3316 4.31875 14.0407 5.66237 12.4229C6.51575 11.3954 7.43762 10.4061 8.42887 9.46145C21.9094 -3.38543 43.2472 -3.1148 56.4105 10.0608Z" fill="#FFD885"/>
<path d="M34.7175 60.361L11.4273 19.3497C9.7115 16.3285 10.034 12.5478 12.2516 9.87778C13.66 8.18203 15.1814 6.54928 16.8174 4.99015C17.8378 4.01765 18.8858 3.09128 19.9581 2.2099C32.221 -2.41372 46.5904 0.231527 56.4105 10.0609C57.0755 10.7267 57.7076 11.4129 58.3071 12.1178C59.6801 13.7323 59.8836 16.0465 58.8359 17.8915L34.7175 60.361Z" fill="#FFD885"/>
<path d="M59.7508 18.5014L59.391 19.1349C58.9366 19.9351 57.8175 20.0161 57.2494 19.2923C57.1004 19.1026 56.9497 18.9139 56.797 18.7269C53.5033 14.6873 49.7054 11.6237 45.6473 9.5378C44.9789 10.5681 43.8194 11.2501 42.5 11.2501C40.4289 11.2501 38.75 9.57118 38.75 7.50005C38.75 7.32768 38.7627 7.15843 38.7852 6.99218C34.122 5.8863 29.3075 5.94843 24.6582 7.18605C24.877 7.6623 25 8.19168 25 8.75005C25 10.8212 23.3212 12.5001 21.25 12.5001C19.6167 12.5001 18.2279 11.4554 17.7137 9.99818C14.2383 11.9242 10.9664 14.5823 8.0559 17.9809C7.60978 18.5018 7.1784 19.0342 6.76078 19.5767C6.19728 20.3087 5.07028 20.2292 4.61415 19.4259L4.24815 18.7814C3.17315 16.8884 3.37515 14.5194 4.76478 12.8466C5.64728 11.7841 6.60053 10.7609 7.62553 9.78405C21.5653 -3.50082 43.6308 -3.22082 57.2427 10.4039C57.9304 11.0923 58.584 11.8021 59.2039 12.5309C60.6238 14.2004 60.8343 16.5936 59.7508 18.5014Z" fill="#D7A251"/>
<path d="M10.421 15.4579C9.60972 16.2484 8.81997 17.0883 8.05572 17.9807C7.6096 18.5016 7.17822 19.034 6.7606 19.5765C6.1971 20.3085 5.0701 20.229 4.61397 19.4257L4.24797 18.7812C3.17297 16.8882 3.37497 14.5192 4.7646 12.8463C5.47035 11.9966 6.22372 11.1732 7.0206 10.3773C7.74847 12.1758 8.9036 13.8812 10.421 15.4579Z" fill="#D7A251"/>
<path d="M19.9999 19.108C17.8248 17.7208 15.9465 15.9158 14.474 13.7975C13.334 12.0875 13.5595 9.8106 15.0127 8.35747C16.6249 6.74522 19.2389 6.74522 20.8512 8.35747L21.0895 8.59585C21.38 8.88635 21.8512 8.88635 22.1417 8.59585L22.38 8.35747C23.9923 6.74522 26.6063 6.74522 28.2185 8.35747C29.6717 9.8106 29.8972 12.0876 28.7572 13.7975C27.2847 15.9158 25.4064 17.7208 23.2313 19.108L22.0155 19.8833C21.7715 20.039 21.4595 20.039 21.2155 19.8833L19.9999 19.108ZM33.2187 44.6075C31.6064 42.9952 28.9924 42.9952 27.3802 44.6075L27.1418 44.8458C26.8513 45.1363 26.3802 45.1363 26.0897 44.8458L25.8513 44.6075C24.239 42.9952 21.625 42.9952 20.0128 44.6075C18.5597 46.0606 18.3342 48.3376 19.4742 50.0475C20.9467 52.1658 22.8249 53.9708 25 55.358L26.2158 56.1333C26.4598 56.289 26.7718 56.289 27.0158 56.1333L28.2315 55.358C30.4067 53.9708 32.2849 52.1658 33.7574 50.0475C34.8973 48.3375 34.6719 46.0606 33.2187 44.6075ZM52.487 29.9592C50.8748 28.347 48.2608 28.347 46.6485 29.9592L46.4102 30.1976C46.1197 30.4881 45.6485 30.4881 45.358 30.1976L45.1197 29.9592C43.5074 28.347 40.8934 28.347 39.2812 29.9592C37.828 31.4123 37.6025 33.6892 38.7425 35.3992C40.215 37.5176 42.0933 39.3226 44.2684 40.7097L45.4842 41.4851C45.7282 41.6407 46.0402 41.6407 46.2842 41.4851L47.4999 40.7097C49.675 39.3226 51.5533 37.5175 53.0258 35.3992C54.1658 33.6892 53.9403 31.4123 52.487 29.9592Z" fill="#FF4C33"/>
<path d="M19.9999 19.108C17.8248 17.7209 15.9465 15.9157 14.474 13.7975C13.334 12.0875 13.5595 9.81062 15.0127 8.3575C16.2762 7.094 18.1548 6.821 19.6844 7.53787C19.388 7.74037 19.1055 7.97162 18.8424 8.23475C16.7838 10.2934 16.4644 13.5189 18.0793 15.9411C19.0957 17.4032 20.2495 18.7591 21.5209 19.9934C21.4142 19.9797 21.3098 19.9434 21.2155 19.8832L19.9999 19.108ZM23.0794 52.1911C21.4645 49.7687 21.7839 46.5432 23.8425 44.4847C24.1055 44.2217 24.3882 43.9904 24.6845 43.7879C23.1549 43.071 21.2763 43.344 20.0128 44.6075C18.5597 46.0607 18.3342 48.3376 19.4742 50.0475C20.9467 52.1657 22.8249 53.9709 25 55.358L26.2158 56.1333C26.31 56.1934 26.4145 56.2296 26.5212 56.2434C25.2497 55.0091 24.0958 53.6532 23.0794 52.1911ZM42.3478 37.5429C40.7329 35.1205 41.0523 31.895 43.1109 29.8365C43.3739 29.5735 43.6565 29.3421 43.9529 29.1396C42.4233 28.4227 40.5447 28.6957 39.2812 29.9592C37.828 31.4124 37.6025 33.6894 38.7425 35.3992C40.215 37.5176 42.0933 39.3226 44.2684 40.7098L45.4842 41.485C45.5784 41.5451 45.6828 41.5814 45.7895 41.5951C44.518 40.3609 43.3643 39.005 42.3478 37.5429Z" fill="#FF4C33"/>
<path d="M31.25 35C31.25 36.3808 30.1307 37.5 28.75 37.5C27.3693 37.5 26.25 36.3808 26.25 35C26.25 33.6192 27.3693 32.5 28.75 32.5C30.1307 32.5 31.25 33.6192 31.25 35ZM21.25 25C19.8693 25 18.75 26.1193 18.75 27.5C18.75 28.8807 19.8693 30 21.25 30C22.6307 30 23.75 28.8807 23.75 27.5C23.75 26.1193 22.6307 25 21.25 25ZM45 17.5C43.6192 17.5 42.5 18.6193 42.5 20C42.5 21.3807 43.6192 22.5 45 22.5C46.3808 22.5 47.5 21.3807 47.5 20C47.5 18.6193 46.3808 17.5 45 17.5ZM33.75 17.5C31.6789 17.5 30 19.1789 30 21.25C30 23.3211 31.6789 25 33.75 25C35.8211 25 37.5 23.3211 37.5 21.25C37.5 19.1789 35.8211 17.5 33.75 17.5Z" fill="#7CBC71"/>
</g>
<defs>
<clipPath id="clip0_101_744">
<rect width="64" height="64" fill="white"/>
</clipPath>
</defs>
</svg>
