<svg width="32" height="48" viewBox="0 0 32 48" fill="none" xmlns="http://www.w3.org/2000/svg">
<path d="M16.4347 0.339282C16.2449 0.123656 15.9703 0 15.6816 0C15.393 0 15.1185 0.12375 14.9286 0.339376C13.1742 2.33194 12.0612 4.42904 11.6205 6.57217L11.6151 6.59804L11.6341 6.61642C13.6112 8.53164 14.9939 11.1563 15.4906 14.3843C15.7198 14.3832 15.638 14.3832 15.8725 14.3843C16.3307 11.4062 17.5825 8.69374 19.7479 6.59795C19.2596 4.22082 18.0172 2.13694 16.4347 0.339282Z" fill="#7CBC71"/>
<path d="M13.7104 6.76079C13.6075 6.65954 13.5638 6.51245 13.5949 6.37145L13.622 6.24854C14.0446 4.19354 15.0152 2.50491 16.6468 0.58622C16.5766 0.503626 16.5063 0.420845 16.4346 0.339469C16.2449 0.123656 15.9703 0 15.6816 0C15.393 0 15.1185 0.12375 14.9286 0.339376C13.1742 2.33194 12.0612 4.42904 11.6205 6.57217L11.6151 6.59804L11.6341 6.61642C13.6112 8.53164 14.9939 11.1563 15.4906 14.3843C15.7198 14.3832 15.638 14.3832 15.8725 14.3843C16.0319 13.348 16.2898 12.3449 16.6466 11.3877C15.9434 9.50111 15.0344 8.0432 13.7104 6.76079Z" fill="#7CBC71"/>
<path d="M6.09677 3.33235C5.88414 3.2672 5.65623 3.30057 5.47145 3.42376C5.28751 3.54657 5.16967 3.74317 5.14839 3.96329C4.90745 6.45086 5.28686 9.13933 6.59617 11.3487C8.28808 11.9286 9.93396 13.0434 11.2362 14.6318C12.5542 14.4778 13.9589 14.3895 15.588 14.384C14.7718 9.08018 11.5971 5.01779 6.09677 3.33235Z" fill="#7CBC71"/>
<path d="M9.13052 11.5797C8.70011 11.3982 8.35202 11.0656 8.14764 10.6454C7.14452 8.58293 6.86224 6.19249 7.07814 3.96329C7.08724 3.86926 7.11499 3.77992 7.15699 3.69836C6.82071 3.56917 6.47524 3.44898 6.11945 3.33939C5.93636 3.28295 5.73545 3.28848 5.56286 3.37164C5.32689 3.48545 5.17305 3.70867 5.14839 3.96339C4.90745 6.45096 5.28686 9.13943 6.59617 11.3488C8.28818 11.9287 9.93396 13.0435 11.2362 14.6319C11.8127 14.5645 12.4073 14.5106 13.0285 14.4698C11.9072 13.1541 10.5483 12.1778 9.13052 11.5797Z" fill="#7CBC71"/>
<path d="M26.2149 3.96329C26.1936 3.74317 26.0759 3.54657 25.8918 3.42385C25.707 3.30048 25.4792 3.26738 25.2665 3.33245C19.7728 5.01592 16.5926 9.07296 15.7751 14.3842C17.4036 14.3896 18.8084 14.4778 20.1269 14.632C21.3558 13.1331 22.9697 11.9649 24.767 11.3489C26.0579 9.17064 26.4605 6.49726 26.2149 3.96329Z" fill="#7CBC71"/>
<path d="M26.19 3.83607C26.1433 3.66863 26.0394 3.52229 25.8918 3.42385C25.707 3.30048 25.4792 3.26738 25.2665 3.33245C19.7728 5.01592 16.5926 9.07296 15.7751 14.3842C16.4291 14.3863 17.0457 14.4025 17.6366 14.4303C18.4409 9.49193 21.3052 5.6567 26.19 3.83607Z" fill="#7CBC71"/>
<path d="M30.9767 11.3016C26.6118 9.89936 22.6724 11.3695 20.0132 14.6186C22.2941 14.8848 23.9454 15.1925 25.8612 16.4335C28.2271 15.95 30.1234 14.1836 31.2922 12.1017C31.4638 11.7959 31.3118 11.4092 30.9767 11.3016Z" fill="#7CBC71"/>
<path d="M31.3303 11.6449C31.2747 11.4889 31.1507 11.3575 30.9767 11.3017C26.6118 9.89945 22.6724 11.3695 20.0132 14.6186C20.8379 14.7149 21.5795 14.8173 22.2818 14.9665C24.5927 12.3688 27.7754 11.0476 31.3303 11.6449Z" fill="#7CBC71"/>
<path d="M0.386596 11.3016C0.226752 11.353 0.0999081 11.4718 0.0386892 11.6278C-0.0223421 11.7833 -0.0105296 11.956 0.0712206 12.1015C1.22969 14.1653 3.12101 15.9467 5.50208 16.4333C7.42124 15.1901 9.09589 14.8815 11.3502 14.6184C8.46439 11.0928 4.4246 10.0045 0.386596 11.3016Z" fill="#7CBC71"/>
<path d="M2.00085 12.1016C1.9191 11.956 1.90729 11.7833 1.96832 11.6279C2.02963 11.4719 2.15638 11.3529 2.31623 11.3016C3.08039 11.0562 3.84445 10.8965 4.60083 10.8223C3.22935 10.6854 1.80782 10.8451 0.386474 11.3016C0.22663 11.353 0.099786 11.4719 0.0385672 11.6279C-0.0224642 11.7833 -0.0106517 11.956 0.0710985 12.1016C1.22957 14.1653 3.12089 15.9468 5.50195 16.4333C5.72536 16.2886 5.9452 16.1578 6.16336 16.0369C4.37676 15.2783 2.94529 13.7839 2.00085 12.1016Z" fill="#7CBC71"/>
<path d="M15.7752 11.9883C15.3755 11.9883 15.0515 11.6643 15.0515 11.2646V4.86418C15.0515 4.46452 15.3754 4.14052 15.7752 4.14052C16.1749 4.14052 16.4988 4.46452 16.4988 4.86418V11.2646C16.4988 11.6643 16.1748 11.9883 15.7752 11.9883Z" fill="#7CBC71"/>
<path d="M13.877 16.2692C13.5841 16.2692 13.3084 16.09 13.1993 15.7998C12.0281 12.6802 8.3594 8.27997 8.32247 8.2359C8.06587 7.92953 8.10618 7.47306 8.41246 7.21646C8.71893 6.95978 9.17531 7.00018 9.43191 7.30637C9.58903 7.49396 13.296 11.9392 14.5544 15.291C14.6949 15.6651 14.5054 16.0823 14.1314 16.2229C14.0475 16.2543 13.9614 16.2692 13.877 16.2692Z" fill="#7CBC71"/>
<path d="M18.3111 16.2692C18.2266 16.2692 18.1406 16.2543 18.0569 16.2229C17.6828 16.0824 17.4932 15.6651 17.6338 15.2911C18.3499 13.3837 19.8751 11.1067 21.0286 9.53246C21.2649 9.21006 21.718 9.14031 22.0401 9.37646C22.3625 9.61271 22.4323 10.0655 22.1961 10.3879C21.0963 11.8891 19.647 14.0464 18.9888 15.7998C18.8797 16.09 18.6041 16.2692 18.3111 16.2692Z" fill="#7CBC71"/>
<path d="M22.058 14.8708C18.1404 14.1549 13.2287 14.1538 9.30515 14.8708C3.14464 15.9967 -0.635932 22.2423 1.20767 28.2272C4.02748 37.3811 8.07346 42.9412 11.1713 46.1058C13.6438 48.6314 17.7195 48.6314 20.192 46.1058C23.2898 42.9413 27.3359 37.3811 30.1556 28.2273C31.9992 22.2422 28.2184 15.9967 22.058 14.8708Z" fill="#FF4C33"/>
<path d="M13.1011 46.1058C10.0033 42.9413 5.95717 37.3811 3.13754 28.2272C1.29394 22.2423 5.07461 15.9967 11.235 14.8708C12.9102 14.5648 14.7654 14.39 16.6465 14.3455C14.1236 14.2857 11.5523 14.4603 9.30527 14.8708C3.14476 15.9967 -0.63581 22.2423 1.20779 28.2272C4.02751 37.3811 8.07349 42.9412 11.1714 46.1058C12.6513 47.6175 14.7055 48.2235 16.6466 47.9255C15.3448 47.7257 14.0937 47.1197 13.1011 46.1058Z" fill="#FF4C33"/>
<path d="M9.3466 23.8296C9.3466 24.7261 8.61985 25.4528 7.72341 25.4528C6.82697 25.4528 6.10022 24.726 6.10022 23.8296C6.10022 22.9332 6.82697 21.3065 7.72341 21.3065C8.61985 21.3065 9.3466 22.9331 9.3466 23.8296Z" fill="#660C00"/>
<path d="M8.02973 23.8296C8.02973 23.2945 8.28876 22.4995 8.68814 21.9452C8.41842 21.571 8.08457 21.3063 7.72326 21.3063C6.82673 21.3063 6.09998 22.9331 6.09998 23.8294C6.09998 24.726 6.82682 25.4526 7.72326 25.4526C8.08514 25.4526 8.41823 25.3327 8.68814 25.1325C8.28932 24.837 8.02973 24.3643 8.02973 23.8296Z" fill="#660C00"/>
<path d="M17.305 23.8296C17.305 24.7261 16.5782 25.4528 15.6818 25.4528C14.7853 25.4528 14.0586 24.726 14.0586 23.8296C14.0586 22.9332 14.7853 21.3065 15.6818 21.3065C16.5782 21.3065 17.305 22.9331 17.305 23.8296Z" fill="#660C00"/>
<path d="M15.9881 23.8296C15.9881 23.2945 16.2471 22.4995 16.6465 21.9452C16.3768 21.571 16.0429 21.3063 15.6816 21.3063C14.7851 21.3063 14.0583 22.9331 14.0583 23.8294C14.0583 24.726 14.7852 25.4526 15.6816 25.4526C16.0435 25.4526 16.3766 25.3327 16.6465 25.1325C16.2478 24.837 15.9881 24.3643 15.9881 23.8296Z" fill="#660C00"/>
<path d="M25.2634 23.8296C25.2634 24.7261 24.5366 25.4528 23.6402 25.4528C22.7436 25.4528 22.017 24.726 22.017 23.8296C22.017 22.9332 22.7437 21.3065 23.6402 21.3065C24.5366 21.3065 25.2634 22.9331 25.2634 23.8296Z" fill="#660C00"/>
<path d="M23.9466 23.8296C23.9466 23.2945 24.2056 22.4995 24.605 21.9452C24.3353 21.571 24.0014 21.3063 23.6401 21.3063C22.7436 21.3063 22.0168 22.9331 22.0168 23.8294C22.0168 24.726 22.7437 25.4526 23.6401 25.4526C24.002 25.4526 24.3351 25.3327 24.605 25.1325C24.2062 24.837 23.9466 24.3643 23.9466 23.8296Z" fill="#660C00"/>
<path d="M21.2841 31.7049C21.2841 32.6014 20.5573 33.3281 19.6609 33.3281C18.7644 33.3281 18.0377 32.6013 18.0377 31.7049C18.0377 30.8084 18.7645 29.1818 19.6609 29.1818C20.5573 29.1817 21.2841 30.8084 21.2841 31.7049Z" fill="#660C00"/>
<path d="M19.9674 31.7049C19.9674 31.1699 20.2264 30.3748 20.6258 29.8205C20.356 29.4463 20.0222 29.1816 19.6609 29.1816C18.7643 29.1816 18.0376 30.8083 18.0376 31.7047C18.0376 32.6013 18.7644 33.3279 19.6609 33.3279C20.0228 33.3279 20.3559 33.208 20.6258 33.0078C20.2269 32.7123 19.9674 32.2396 19.9674 31.7049Z" fill="#660C00"/>
<path d="M13.3257 31.7049C13.3257 32.6014 12.599 33.3281 11.7025 33.3281C10.8061 33.3281 10.0793 32.6013 10.0793 31.7049C10.0793 30.8084 10.8061 29.1818 11.7025 29.1818C12.599 29.1818 13.3257 30.8084 13.3257 31.7049Z" fill="#660C00"/>
<path d="M12.009 31.7049C12.009 31.1699 12.268 30.3748 12.6674 29.8205C12.3977 29.4463 12.0638 29.1816 11.7025 29.1816C10.806 29.1816 10.0792 30.8083 10.0792 31.7047C10.0792 32.6013 10.8061 33.3279 11.7025 33.3279C12.0644 33.3279 12.3975 33.208 12.6674 33.0078C12.2686 32.7123 12.009 32.2396 12.009 31.7049Z" fill="#660C00"/>
<path d="M17.305 39.5801C17.305 40.4766 16.5782 41.2033 15.6818 41.2033C14.7853 41.2033 14.0586 40.4765 14.0586 39.5801C14.0586 38.6836 14.7853 37.057 15.6818 37.057C16.5782 37.057 17.305 38.6836 17.305 39.5801Z" fill="#660C00"/>
<path d="M15.9881 39.5801C15.9881 39.0451 16.2471 38.25 16.6465 37.6957C16.3768 37.3215 16.0429 37.0568 15.6816 37.0568C14.7851 37.0568 14.0583 38.6836 14.0583 39.5799C14.0583 40.4765 14.7852 41.2031 15.6816 41.2031C16.0435 41.2031 16.3766 41.0832 16.6465 40.883C16.2478 40.5875 15.9881 40.1148 15.9881 39.5801Z" fill="#660C00"/>
</svg>
