<svg width="51" height="48" viewBox="0 0 51 48" fill="none" xmlns="http://www.w3.org/2000/svg">
<path d="M37.1554 29.276L31.6789 40.229V46.5286C31.6789 47.3407 31.0198 48 30.2076 48H19.8667C19.0544 48 18.3953 47.3407 18.3953 46.5286V40.229L12.9188 29.276C12.549 28.5336 12.8629 27.633 13.6172 27.2829L18.9093 24.8315C19.6263 24.499 20.4787 24.7943 20.8378 25.4986L25.0371 33.7246C25.0862 33.6265 24.8782 34.0307 29.261 25.4995C29.6219 24.7972 30.4724 24.5048 31.1895 24.8373L36.459 27.2838C37.2084 27.633 37.5272 28.5336 37.1554 29.276Z" fill="#8EDF81"/>
<path d="M37.1554 29.276L31.6789 40.229V46.5286C31.6789 47.3407 31.0198 48 30.2076 48H25.0371V33.7246C25.0862 33.6265 24.8782 34.0307 29.261 25.4995C29.6219 24.7972 30.4724 24.5048 31.1895 24.8373L36.459 27.2838C37.2084 27.633 37.5272 28.5336 37.1554 29.276Z" fill="#8EDF81"/>
<path d="M50.0742 20.7125C50.0742 26.3921 45.4541 31.0123 39.7745 31.0123C38.4297 31.0123 38.0904 29.6769 36.8544 29.1716C35.1888 28.4928 32.0425 26.8284 30.9458 25.4788C30.1582 25.3633 28.7301 26.9559 28.7301 26.9559C28.033 28.1169 26.4076 30.2157 25.0372 30.2157C22.427 30.2157 20.0522 29.0818 18.4219 27.1475C17.3203 28.4845 15.843 29.5781 14.1882 30.252C7.45179 33.0078 0 28.027 0 20.7125C0 15.2468 4.28075 10.7611 9.66603 10.4325C8.71375 4.98343 12.9131 0.0611476 18.3609 0.0611476C20.9153 0.0611476 23.3813 1.18823 25.0371 3.05591C25.0381 3.05493 25.0381 3.05493 25.0391 3.05395C26.6939 1.15194 29.0697 0.00327301 31.6554 0.00327301C37.1489 0.00327301 41.3315 4.99353 40.3405 10.4285C45.7582 10.7239 50.0742 15.2233 50.0742 20.7125Z" fill="#7CBC71"/>
<path d="M50.0742 20.7125C50.0742 28.0375 42.6152 33.003 35.8851 30.252C34.2195 29.5732 32.7697 28.4972 31.6731 27.1475C30.0211 29.087 27.6291 30.2157 25.0371 30.2157V3.05591C30.9009 -3.68382 41.9512 1.59531 40.3405 10.4285C45.7582 10.7239 50.0742 15.2233 50.0742 20.7125Z" fill="#7CBC71"/>
<path d="M34.6325 17.7238C34.6325 18.537 33.9743 19.1952 33.1611 19.1952C32.3489 19.1952 31.6897 18.537 31.6897 17.7238C31.6897 15.079 28.25 13.3096 25.0371 13.3096C21.4312 13.3096 18.3844 15.3313 18.3844 17.7238C18.3844 18.537 17.7252 19.1952 16.913 19.1952C16.0999 19.1952 15.4417 18.537 15.4417 17.7238C15.4417 13.1972 20.2943 10.3668 25.039 10.3668C29.8646 10.3668 34.6325 13.2637 34.6325 17.7238Z" fill="#8EDF81"/>
<path d="M34.6325 17.7238C34.6325 18.537 33.9743 19.1952 33.1611 19.1952C32.3489 19.1952 31.6897 18.537 31.6897 17.7238C31.6897 15.3313 28.644 13.3106 25.0391 13.3096V10.3668C29.8646 10.3668 34.6325 13.2637 34.6325 17.7238Z" fill="#8EDF81"/>
</svg>
