<svg width="57" height="64" viewBox="0 0 57 64" fill="none" xmlns="http://www.w3.org/2000/svg">
<path d="M23.1651 8.43338V55.5667C23.1651 57.461 21.7384 59.023 19.8995 59.2316C19.7604 59.2496 19.6188 59.2574 19.4745 59.2574C16.026 59.2574 12.9045 57.8602 10.6433 55.599C8.38465 53.3404 6.98615 50.2176 6.98615 46.769V17.2311C6.98615 10.334 12.5774 4.74275 19.4745 4.74275C19.6188 4.74275 19.7604 4.7505 19.8995 4.7685C20.8859 4.8805 21.7525 5.3815 22.3461 6.11413C22.8586 6.74763 23.1651 7.55513 23.1651 8.43338Z" fill="#D8AD8F"/>
<path d="M21.2695 13.7091C20.2406 14.7174 19.6676 16.0811 19.6585 17.5479C19.6495 19.0146 20.2033 20.3835 21.2193 21.4046C21.7794 21.9686 22.4426 22.3936 23.165 22.6615V50.0437C22.6113 50.4777 21.9314 50.7134 21.2154 50.7134C20.3668 50.7134 19.5671 50.3824 18.9658 49.7811L14.8399 45.6552C14.0286 44.8426 13.7195 43.6425 14.0338 42.5222C14.2526 41.7392 14.0311 40.8946 13.4543 40.3176C13.028 39.8914 12.4601 39.6557 11.8575 39.6557C11.6501 39.6557 11.4454 39.6841 11.2459 39.7395C10.96 39.8194 10.6651 39.8605 10.3703 39.8605C9.51527 39.8605 8.71552 39.5309 8.11677 38.932L6.98615 37.8014V17.329L18.0296 6.28412C18.631 5.68399 19.4294 5.35312 20.2793 5.35312C21.0468 5.35312 21.7705 5.62224 22.346 6.11412C22.8585 6.74762 23.165 7.55512 23.165 8.43337V12.46C23.0543 12.5282 22.9371 12.59 22.8174 12.6454C22.2456 12.9042 21.7254 13.2622 21.2695 13.7091Z" fill="#D8AD8F"/>
<path d="M23.1651 14.3246V52.131C21.9636 52.5791 20.6836 52.8123 19.4089 52.8123C18.6633 52.8123 17.9125 52.735 17.1785 52.5791C14.3571 51.9855 11.9361 50.3281 10.3625 47.9124C8.78764 45.4979 8.24802 42.6134 8.84302 39.7933C9.31689 37.5423 10.4616 35.5554 12.1293 34.0436C11.2265 32.2048 10.9535 30.1058 11.385 28.0595C11.9259 25.4893 13.5033 23.3169 15.7156 22.0071C15.6719 21.3504 15.7183 20.6873 15.8548 20.0395C16.5528 16.7249 19.5158 14.3194 22.8999 14.3194C22.9886 14.3195 23.0763 14.3208 23.1651 14.3246Z" fill="#D8AD8F"/>
<path d="M23.1651 8.43337V55.5667C23.1651 57.461 21.7384 59.023 19.8995 59.2316C19.7489 58.5916 19.669 57.9232 19.669 57.2382V6.76187C19.669 6.07674 19.7489 5.40849 19.8995 4.76849C21.7383 4.97699 23.1651 6.53912 23.1651 8.43337Z" fill="#D8AD8F"/>
<path d="M49.7386 17.2311V46.769C49.7386 53.6661 44.1474 59.2574 37.2503 59.2574C37.106 59.2574 36.9644 59.2496 36.8253 59.2316C35.8248 59.1183 34.9451 58.6033 34.3529 57.8525C33.8558 57.2241 33.5596 56.4295 33.5596 55.5667V8.43338C33.5596 6.53913 34.9864 4.97713 36.8253 4.7685C36.9644 4.7505 37.106 4.74275 37.2503 4.74275C40.6988 4.74275 43.8203 6.13988 46.0815 8.40113C48.3401 10.6598 49.7386 13.7825 49.7386 17.2311Z" fill="#D8AD8F"/>
<path d="M49.7386 25.1635V41.9077C49.5648 41.8652 49.3858 41.8434 49.2043 41.8434C48.6016 41.8434 48.035 42.079 47.6088 42.5052C47.0319 43.0821 46.8104 43.9281 47.0305 44.7136C47.3421 45.834 47.0331 47.0329 46.2218 47.8441L37.1046 56.96C36.5045 57.5614 35.7049 57.8922 34.855 57.8922C34.685 57.8922 34.5176 57.8794 34.3528 57.8524C33.8556 57.224 33.5595 56.4294 33.5595 55.5666V13.4477C34.1583 12.858 34.949 12.5335 35.7911 12.5335C36.641 12.5335 37.4394 12.8644 38.0408 13.4645L49.7386 25.1635Z" fill="#D8AD8F"/>
<path d="M43.4494 30.4997C44.3521 32.3399 44.6251 34.4376 44.1936 36.4837C43.6515 39.054 42.0754 41.2264 39.8618 42.5361C39.9055 43.1929 39.8605 43.856 39.724 44.5037C39.0866 47.526 36.5653 49.7937 33.5596 50.1684V12.057C34.4134 11.842 35.2929 11.7312 36.1699 11.7312C36.9155 11.7312 37.6649 11.8097 38.4003 11.9642C41.2204 12.5579 43.6413 14.2152 45.2161 16.631C46.7898 19.0455 47.3293 21.93 46.7356 24.7501C46.2618 27.001 45.1156 28.988 43.4494 30.4997Z" fill="#D8AD8F"/>
<path d="M37.0558 6.76187V57.2381C37.0558 57.9232 36.9759 58.5915 36.8253 59.2315C34.9864 59.0229 33.5596 57.4609 33.5596 55.5666V8.43337C33.5596 6.53912 34.9864 4.97712 36.8253 4.76849C36.976 5.40849 37.0558 6.07674 37.0558 6.76187Z" fill="#D8AD8F"/>
<path d="M55.7046 35.6288L54.2444 37.0904L51.5788 39.7546C51.253 40.0804 50.7791 40.1911 50.3348 40.0663C48.926 39.6723 47.3498 40.0301 46.2424 41.1403C45.1336 42.249 44.7756 43.8239 45.1698 45.234C45.2934 45.6756 45.1814 46.1521 44.8555 46.4779L35.7384 55.595C35.2516 56.083 34.4596 56.083 33.9716 55.595L32.1765 53.7999V31.7296C32.2383 31.1771 32.2383 30.6184 32.1765 30.0659V17.562L34.2034 15.5364L34.9078 14.8308C35.3958 14.3428 36.1865 14.3428 36.6745 14.8308L55.7045 33.8608C56.194 34.3488 56.194 35.1395 55.7046 35.6288Z" fill="#FFBC2E"/>
<path d="M43.4491 30.4998C44.3519 32.3399 44.6249 34.4377 44.1934 36.4838C43.6513 39.054 42.0751 41.2264 39.8615 42.5362C39.9053 43.1929 39.8603 43.856 39.7238 44.5038C39.0245 47.8184 36.0615 50.2239 32.6774 50.2239C32.5113 50.2239 32.3425 50.2174 32.1765 50.2059V31.7297C32.2383 31.1772 32.2383 30.6184 32.1765 30.0659V17.562L34.2034 15.5364L34.9078 14.8308C35.3958 14.3428 36.1865 14.3428 36.6745 14.8308L46.7098 24.866C46.2216 27.0693 45.0871 29.0138 43.4491 30.4998Z" fill="#FFBC2E"/>
<path d="M41.2093 45.4053C40.9622 45.4053 40.7149 45.3109 40.5264 45.1224C40.1492 44.7452 40.1492 44.1338 40.5264 43.7564L40.6979 43.5849C41.075 43.2079 41.6865 43.2079 42.0638 43.5849C42.441 43.9622 42.441 44.5735 42.0638 44.9509L41.8923 45.1224C41.7037 45.311 41.4565 45.4053 41.2093 45.4053Z" fill="#D17D00"/>
<path d="M38.7374 30.407C38.4903 30.407 38.243 30.3127 38.0545 30.1242C37.6773 29.7469 37.6773 29.1355 38.0545 28.7582L38.226 28.5867C38.6032 28.2097 39.2147 28.2097 39.5919 28.5867C39.9692 28.9639 39.9692 29.5753 39.5919 29.9527L39.4204 30.1242C39.2318 30.3127 38.9847 30.407 38.7374 30.407Z" fill="#E21717"/>
<path d="M36.1724 21.4639C35.9253 21.4639 35.678 21.3695 35.4895 21.181C35.1123 20.8038 35.1123 20.1924 35.4895 19.815L35.661 19.6435C36.0382 19.2665 36.6497 19.2665 37.0269 19.6435C37.4042 20.0208 37.4042 20.6322 37.0269 21.0095L36.8554 21.181C36.6667 21.3697 36.4195 21.4639 36.1724 21.4639Z" fill="#E21717"/>
<path d="M39.3978 34.1835C39.1505 34.1835 38.9033 34.0892 38.7148 33.9005C38.3376 33.5233 38.3378 32.9118 38.715 32.5345L38.8866 32.363C39.2639 31.9859 39.8754 31.9862 40.2525 32.3633C40.6296 32.7405 40.6295 33.352 40.2523 33.7293L40.0806 33.9008C39.892 34.0893 39.6449 34.1835 39.3978 34.1835Z" fill="#E21717"/>
<path d="M47.872 33.3352C47.6249 33.3352 47.3776 33.2408 47.1891 33.0523C46.8119 32.675 46.8119 32.0637 47.1891 31.6863L47.3606 31.5148C47.7378 31.1378 48.3493 31.1378 48.7265 31.5148C49.1038 31.892 49.1038 32.5034 48.7265 32.8808L48.555 33.0523C48.3664 33.2409 48.1192 33.3352 47.872 33.3352Z" fill="#D17D00"/>
<path d="M25.8281 24.893V44.6854L25.2537 45.2598L22.0989 48.4146C21.6121 48.904 20.8215 48.904 20.3321 48.4146L16.2062 44.2887C15.8805 43.963 15.7684 43.4891 15.8934 43.0449C16.2874 41.6361 15.9294 40.0599 14.8208 38.9512C13.712 37.8425 12.1371 37.4859 10.7271 37.8799C10.3099 37.9945 9.86438 37.9044 9.54238 37.621C9.52175 37.603 9.5025 37.585 9.48313 37.5656L0.366 28.4485C-0.122 27.9605 -0.122 27.1698 0.366 26.6805L19.396 7.6505C19.884 7.1625 20.676 7.1625 21.164 7.6505L22.3809 8.86875C22.9977 9.48425 22.8097 10.5274 22.0177 10.8879C21.2593 11.2317 20.5471 11.7133 19.9187 12.3289C18.7521 13.4724 18.0502 14.9224 17.8159 16.4354C17.4682 18.676 18.1443 21.0519 19.8505 22.7671C21.3365 24.2609 23.3029 24.9807 25.2537 24.9305C25.4456 24.9252 25.6375 24.9136 25.8281 24.893Z" fill="#FFBC2E"/>
<path d="M25.2537 24.9303V45.2597L22.0989 48.4146C21.6121 48.9039 20.8215 48.9039 20.3321 48.4146L16.2062 44.2887C15.8805 43.9629 15.7684 43.4891 15.8934 43.0448C16.2874 41.6361 15.9294 40.0598 14.8207 38.9512C13.712 37.8424 12.1371 37.4858 10.7271 37.8798C10.3099 37.9944 9.86436 37.9043 9.54236 37.6209C10.1464 36.2598 11.022 35.0468 12.1294 34.0437C11.2266 32.2048 10.9536 30.1058 11.3851 28.0596C11.926 25.4893 13.5034 23.3169 15.7157 22.0072C15.672 21.3504 15.7184 20.6873 15.8549 20.0396C16.1497 18.6386 16.8502 17.3984 17.8161 16.4352C17.4685 18.6758 18.1445 21.0517 19.8507 22.7669C21.3365 24.2607 23.3029 24.9806 25.2537 24.9303Z" fill="#FFBC2E"/>
<path d="M11.6926 35.0563C11.4455 35.0563 11.1982 34.9619 11.0097 34.7734L10.8382 34.602C10.461 34.2247 10.461 33.6133 10.8382 33.236C11.2154 32.859 11.8269 32.859 12.2041 33.236L12.3756 33.4075C12.7529 33.7847 12.7529 34.3961 12.3756 34.7734C12.1869 34.9619 11.9397 35.0563 11.6926 35.0563Z" fill="#D17D00"/>
<path d="M13.5189 21.7695C13.2718 21.7695 13.0245 21.6751 12.836 21.4866L12.6645 21.3151C12.2873 20.9378 12.2873 20.3265 12.6645 19.9491C13.0417 19.5721 13.6532 19.5721 14.0304 19.9491L14.2019 20.1206C14.5792 20.4978 14.5792 21.1092 14.2019 21.4866C14.0133 21.6751 13.7662 21.7695 13.5189 21.7695Z" fill="#D17D00"/>
<path d="M10.3993 31.1286C10.1522 31.1286 9.9049 31.0342 9.7164 30.8457L9.5449 30.6742C9.16765 30.297 9.16765 29.6856 9.5449 29.3082C9.92203 28.9312 10.5335 28.9312 10.9108 29.3082L11.0823 29.4797C11.4595 29.857 11.4595 30.4683 11.0823 30.8457C10.8937 31.0343 10.6464 31.1286 10.3993 31.1286Z" fill="#D17D00"/>
<path d="M22.9144 33.2448C22.6672 33.2448 22.42 33.1505 22.2315 32.962L22.06 32.7905C21.6827 32.4132 21.6827 31.8018 22.06 31.4245C22.4371 31.0475 23.0486 31.0475 23.4259 31.4245L23.5974 31.596C23.9746 31.9732 23.9746 32.5846 23.5974 32.962C23.4087 33.1505 23.1616 33.2448 22.9144 33.2448Z" fill="#E21717"/>
<path d="M23.7628 41.7191C23.5156 41.7191 23.2685 41.6248 23.08 41.4363L22.9084 41.2648C22.5311 40.8877 22.531 40.2762 22.9081 39.8988C23.2853 39.5217 23.8968 39.5216 24.274 39.8986L24.4456 40.0701C24.8229 40.4472 24.823 41.0587 24.4459 41.4361C24.2573 41.6247 24.01 41.7191 23.7628 41.7191Z" fill="#E21717"/>
<path d="M44.8453 24.3521C44.3289 26.8014 42.8468 28.7961 40.8829 30.0298C42.1835 31.678 42.7706 33.8698 42.3033 36.0846C41.7675 38.6305 39.9699 40.5839 37.7035 41.4364C37.9675 42.2734 38.028 43.1864 37.8335 44.1059C37.6892 44.7858 37.4214 45.4078 37.0558 45.9525C36.014 47.5094 34.1868 48.4314 32.2551 48.2756V14.5796C33.7051 13.8624 35.3585 13.5366 37.0558 13.7079C37.37 13.7388 37.6855 13.7878 38.0023 13.8546C42.79 14.8629 45.8549 19.5631 44.8453 24.3521Z" fill="#72B766"/>
<path d="M37.0558 13.7079V45.9525C36.014 47.5094 34.1868 48.4314 32.2551 48.2756V14.5796C33.7051 13.8624 35.3586 13.5366 37.0558 13.7079Z" fill="#72B766"/>
<path d="M23.3221 16.2679V49.9637C22.2017 50.5175 20.9579 50.8394 19.6689 50.878C18.9812 50.8986 18.2794 50.8381 17.5764 50.69C12.7874 49.6804 9.72387 44.9802 10.7321 40.1911C11.2485 37.7432 12.7306 35.7472 14.6957 34.5135C13.3951 32.8652 12.808 30.6735 13.2741 28.4586C13.8111 25.9141 15.6075 23.9594 17.8739 23.1069C17.6099 22.2699 17.5506 21.3569 17.7439 20.4374C18.0117 19.1664 18.7174 18.1001 19.669 17.3622C20.6836 16.5744 21.9777 16.1596 23.3221 16.2679Z" fill="#72B766"/>
<path d="M23.3223 16.2679V49.9638C22.2019 50.5175 20.958 50.8394 19.669 50.878V17.3624C20.6838 16.5744 21.9779 16.1597 23.3223 16.2679Z" fill="#72B766"/>
<path d="M28.3623 64C24.6276 64 21.6001 60.9724 21.6001 57.2378V6.76225C21.6001 3.02762 24.6276 0 28.3623 0C32.0971 0 35.1246 3.02762 35.1246 6.76225V57.2378C35.1246 60.9724 32.097 64 28.3623 64Z" fill="#FF4C33"/>
<path d="M35.1243 6.76188V57.2381C35.1243 60.9725 32.0968 64 28.3624 64C27.9966 64 27.6386 63.9704 27.2884 63.915C30.5129 63.4013 32.9763 60.6069 32.9763 57.2381V6.76188C32.9763 4.89463 32.2191 3.20388 30.9958 1.9805C30.0119 0.99675 28.7255 0.31425 27.2884 0.085C27.6386 0.029625 27.9966 0 28.3624 0C30.2296 0 31.9204 0.757125 33.1438 1.9805C34.367 3.20388 35.1243 4.89463 35.1243 6.76188Z" fill="#FF4C33"/>
<path d="M27.7489 57.3696C27.5017 57.3696 27.2545 57.2752 27.066 57.0868C26.305 56.3256 25.8859 55.3139 25.8859 54.2375C25.8859 53.1613 26.305 52.1494 27.066 51.3884L28.2929 50.1614C28.689 49.7652 28.9072 49.2384 28.9072 48.6781C28.9072 48.1177 28.6891 47.591 28.2929 47.1949L27.066 45.968C25.495 44.3969 25.495 41.8406 27.066 40.2695L28.2929 39.0425C28.6891 38.6464 28.9072 38.1196 28.9072 37.5592C28.9072 36.999 28.689 36.4721 28.2929 36.076L27.066 34.8491C25.495 33.2781 25.495 30.7217 27.066 29.1507L28.2929 27.9237C28.689 27.5276 28.9072 27.0007 28.9072 26.4405C28.9072 25.8801 28.6891 25.3534 28.2929 24.9573L27.066 23.7304C25.495 22.1593 25.495 19.603 27.066 18.0319L28.2929 16.8049C28.6891 16.4087 28.9072 15.882 28.9072 15.3216C28.9072 14.7614 28.689 14.2345 28.2929 13.8384L27.066 12.6115C26.3049 11.8504 25.8859 10.8385 25.8859 9.76225C25.8859 8.68587 26.305 7.67412 27.066 6.913C27.4432 6.53587 28.0546 6.536 28.4319 6.91312C28.809 7.29025 28.809 7.90175 28.4319 8.279C28.0356 8.67512 27.8175 9.20187 27.8175 9.76225C27.8175 10.3226 28.0356 10.8494 28.4319 11.2456L29.6586 12.4724C30.4197 13.2335 30.8389 14.2454 30.8389 15.3216C30.8389 16.398 30.4197 17.4098 29.6586 18.1709L28.4317 19.3978C27.6139 20.2156 27.6139 21.5465 28.4317 22.3645L29.6585 23.5912C30.4196 24.3524 30.8387 25.3641 30.8387 26.4405C30.8387 27.5168 30.4196 28.5286 29.6585 29.2897L28.4316 30.5166C27.6137 31.3345 27.6137 32.6652 28.4316 33.4832L29.6584 34.71C30.4195 35.4711 30.8386 36.483 30.8386 37.5592C30.8386 38.6356 30.4195 39.6474 29.6584 40.4085L28.4315 41.6354C27.6136 42.4533 27.6136 43.7841 28.4315 44.6021L29.6582 45.8289C30.4194 46.59 30.8385 47.6017 30.8385 48.6781C30.8385 49.7544 30.4194 50.7663 29.6582 51.5274L28.4314 52.7542C28.0351 53.1504 27.817 53.6771 27.817 54.2375C27.817 54.7979 28.0351 55.3246 28.4314 55.7207C28.8085 56.0979 28.8086 56.7094 28.4314 57.0866C28.2432 57.2752 27.9961 57.3696 27.7489 57.3696Z" fill="#F9E8D4"/>
</svg>
