<svg width="83" height="64" viewBox="0 0 83 64" fill="none" xmlns="http://www.w3.org/2000/svg">
<path d="M47.2062 10.4868C45.3992 10.9907 43.5598 10.1498 42.71 8.60217C40.8043 5.09283 35.5652 4.26214 32.6789 7.08794C31.2689 8.43474 29.2223 8.45581 27.8445 7.50578C24.6155 5.3389 19.7201 6.68892 18.2266 10.5481C17.5671 12.2604 15.8047 13.2082 14.0146 12.874C12.1963 12.508 10.0006 13.4659 8.93091 14.6821L31.0232 36.7747C32.4382 36.8921 33.8774 36.982 35.3347 37.0444L55.2204 16.8268C55.4259 12.7992 51.1657 9.36386 47.2062 10.4868Z" fill="#4CA346"/>
<path d="M43.6507 16.1805C47.8747 20.4046 54.5465 20.6893 59.1003 17.0345C59.636 16.6046 59.6725 15.8006 59.1869 15.3149L44.5162 0.64422C44.0307 0.158671 43.2265 0.195179 42.7966 0.730908C39.1419 5.28468 39.4266 11.9566 43.6507 16.1805Z" fill="#FF6752"/>
<path d="M44.5294 15.3019C40.4919 11.2644 40.4919 4.69476 44.5294 0.65725C43.515 -0.357113 41.825 -0.171353 41.0492 1.03504C37.8528 6.00489 38.427 12.7143 42.772 17.0591C47.1168 21.404 53.8262 21.9783 58.7961 18.782C60.0025 18.0061 60.1882 16.3161 59.1739 15.3017C55.1365 19.3392 48.5667 19.3392 44.5294 15.3019Z" fill="#FF6752"/>
<path d="M49.5086 10.3227C50.8027 11.6168 52.9009 11.6169 54.1949 10.3227L49.5086 5.63626C48.2144 6.93047 48.2144 9.02851 49.5086 10.3227Z" fill="#FF9C8F"/>
<path d="M44.0396 7.04819C43.96 7.72046 43.9671 8.40126 44.0604 9.07176C44.1549 9.75144 44.7828 10.2257 45.4623 10.1312C45.7407 10.0924 45.9846 9.96438 46.169 9.77974C46.435 9.51373 46.5775 9.13047 46.5217 8.72903C46.4577 8.26889 46.4527 7.80168 46.5074 7.34009C46.5882 6.65849 46.1008 6.04058 45.4194 5.96016C44.7381 5.87959 44.1202 6.36674 44.0396 7.04819Z" fill="#FFD885"/>
<path d="M48.564 12.2446C48.3824 12.1044 48.2076 11.9505 48.044 11.7872C47.8793 11.6225 47.7243 11.4463 47.5829 11.2628C47.1641 10.7191 46.3837 10.6181 45.8401 11.0371C45.2964 11.4553 45.1955 12.2363 45.6145 12.7799C45.8207 13.0473 46.0468 13.3047 46.2866 13.5445C46.5246 13.7825 46.7799 14.0069 47.0448 14.2118C47.5449 14.5981 48.2465 14.5436 48.682 14.108C48.7193 14.0707 48.7547 14.0305 48.7879 13.9877C49.2073 13.4446 49.1069 12.6641 48.564 12.2446Z" fill="#FFD885"/>
<path d="M30.3696 33.7235C29.3234 33.0028 28.9223 31.6613 29.4408 30.4873C30.6057 27.8377 28.8597 24.7464 26.2026 24.2206C25.0562 24.009 24.0588 22.9856 24.0277 21.621C23.998 18.7937 21.0089 16.6117 18.3422 17.4053C17.1615 17.7507 15.8414 17.2565 15.1998 16.1127C13.803 13.5971 10.0134 13.1887 8.13099 15.2836C7.23612 16.3053 5.85233 16.4197 4.5274 16.1281C1.83734 15.5166 -0.87331 17.9482 0.267787 20.546C0.596366 21.3125 1.20945 21.9301 1.89057 22.3175C3.09424 23.0072 4.09235 23.9823 3.92831 25.3733C3.7567 26.8617 4.25463 28.4005 5.31709 29.5125C6.25393 30.4609 7.01498 30.6931 7.6078 30.9387C7.19801 30.7026 6.83292 30.4739 6.51367 30.2562C6.83292 30.4741 7.19817 30.7026 7.6078 30.9387C7.84632 31.0375 8.05765 31.1388 8.24212 31.2895C9.62206 32.0229 11.4523 32.8145 13.8609 33.5912C19.0358 35.2598 25.3961 36.3824 32.2775 36.8708C32.0866 35.5795 31.3771 34.3968 30.3696 33.7235Z" fill="#4CA346"/>
<path d="M30.5364 13.5135C24.131 13.5135 18.9384 18.7061 18.9384 25.1115C18.9384 27.38 19.5921 29.4948 20.7181 31.2824C26.168 32.4111 32.3903 33.0588 38.8846 33.158C40.8954 31.0724 42.1344 28.2374 42.1344 25.1115C42.1342 18.7061 36.9415 13.5135 30.5364 13.5135Z" fill="#FF6752"/>
<path d="M31.7792 31.7388V18.4841C31.7792 17.7978 31.2229 17.2415 30.5366 17.2415C29.8504 17.2415 29.2941 17.7978 29.2941 18.4841V31.7388C29.2941 32.0903 29.4406 32.4069 29.6749 32.6329C30.1862 32.6844 30.7013 32.732 31.2195 32.7762C31.5565 32.5543 31.7792 32.1726 31.7792 31.7388Z" fill="#FF9C8F"/>
<path d="M30.5363 28.4246C32.3664 28.4246 33.8501 26.941 33.8501 25.1108C33.8501 23.2807 32.3664 21.7971 30.5363 21.7971C28.7062 21.7971 27.2225 23.2807 27.2225 25.1108C27.2225 26.941 28.7062 28.4246 30.5363 28.4246Z" fill="#FF9C8F"/>
<path d="M30.5363 12.2709C23.4558 12.2709 17.6957 18.031 17.6957 25.1115C17.6957 27.2037 18.2018 29.1789 19.0935 30.926C20.1939 31.1808 21.3295 31.4154 22.4968 31.6285C21.0501 29.8475 20.1812 27.5793 20.1812 25.1115C20.1812 19.4017 24.8266 14.7562 30.5364 14.7562C36.2463 14.7562 40.8917 19.4017 40.8917 25.1115C40.8917 28.3334 39.4122 31.2158 37.0976 33.1165C38.2303 33.1516 39.3728 33.1701 40.5226 33.1712C42.3061 30.9659 43.3772 28.1621 43.3772 25.1115C43.3769 18.031 37.6164 12.2709 30.5363 12.2709Z" fill="#FF6752"/>
<path d="M25.6708 18.929C25.1391 19.3481 24.6627 19.8344 24.2547 20.3745C23.841 20.9221 23.9494 21.7014 24.4969 22.115C24.7212 22.2844 24.9842 22.3664 25.2451 22.3664C25.6214 22.3664 25.9931 22.1961 26.2376 21.8728C26.5176 21.5021 26.8447 21.1684 27.2096 20.8807C27.7486 20.4559 27.841 19.6743 27.4161 19.1355C26.991 18.5965 26.2097 18.504 25.6708 18.929Z" fill="#FFD885"/>
<path d="M27.2049 29.3386C26.8405 29.0507 26.5138 28.7167 26.2341 28.3455C25.8211 27.7975 25.0419 27.6882 24.4938 28.1013C23.9458 28.5145 23.8364 29.2936 24.2496 29.8417C24.6572 30.3822 25.1332 30.8692 25.6645 31.2889C25.8925 31.469 26.1642 31.5565 26.4339 31.5565C26.801 31.5565 27.1645 31.3944 27.4098 31.084C27.8352 30.5455 27.7435 29.764 27.2049 29.3386Z" fill="#FFD885"/>
<path d="M25.1957 25.8026C25.1664 25.5752 25.1516 25.3426 25.1516 25.1115C25.1516 24.8786 25.1667 24.6443 25.1965 24.4146C25.2846 23.7341 24.8043 23.1107 24.1237 23.0226C23.4436 22.9338 22.8199 23.4147 22.7317 24.0954C22.6883 24.4302 22.6663 24.772 22.6663 25.1113C22.6663 25.4479 22.688 25.7871 22.7306 26.1193C22.8112 26.7462 23.3458 27.2037 23.9616 27.2037C24.0143 27.2037 24.0677 27.2002 24.1215 27.1934C24.8021 27.106 25.283 26.4834 25.1957 25.8026Z" fill="#FFD885"/>
<path d="M33.8678 20.8843C34.2322 21.1722 34.5589 21.5063 34.8386 21.8775C35.0827 22.2015 35.455 22.372 35.8319 22.372C36.0923 22.372 36.3549 22.2903 36.5789 22.1214C37.1269 21.7083 37.2362 20.9292 36.8231 20.3811C36.4155 19.8405 35.9395 19.3535 35.4082 18.9339C34.8698 18.5085 34.0883 18.6 33.6629 19.1387C33.2375 19.6775 33.329 20.4588 33.8678 20.8843Z" fill="#FFD885"/>
<path d="M36.5757 28.1078C36.0279 27.6941 35.2489 27.8025 34.8352 28.35C34.5552 28.7207 34.2281 29.0544 33.8631 29.3421C33.3242 29.7669 33.2317 30.5485 33.6566 31.0873C33.9019 31.3984 34.2657 31.5606 34.6334 31.5606C34.9027 31.5606 35.1739 31.4735 35.402 31.2937C35.9337 30.8745 36.4101 30.3882 36.8181 29.8481C37.2317 29.3008 37.1233 28.5214 36.5757 28.1078Z" fill="#FFD885"/>
<path d="M38.3419 24.1034C38.2544 23.4227 37.6312 22.942 36.951 23.0292C36.2704 23.1167 35.7893 23.7394 35.8768 24.4201C35.9061 24.6475 35.9209 24.88 35.9209 25.1111C35.9209 25.344 35.9058 25.5784 35.876 25.808C35.7879 26.4885 36.2681 27.1119 36.9488 27.2C37.003 27.2069 37.0567 27.2105 37.1099 27.2105C37.7251 27.2105 38.2595 26.7537 38.3408 26.1273C38.3842 25.7924 38.4062 25.4507 38.4062 25.1113C38.4062 24.7747 38.3845 24.4357 38.3419 24.1034Z" fill="#FFD885"/>
<path d="M75.8451 10.4392C73.9427 10.8557 71.9556 10.6923 70.6706 9.23277C67.968 6.24018 62.5262 6.82335 60.5205 10.4171C59.5991 12.0512 57.7039 12.7572 56.0084 12.2636C52.1791 11.1296 47.8875 14.247 47.8447 18.286C47.8002 20.2354 46.3678 21.6973 44.7217 21.9999C40.9063 22.751 38.3993 27.1671 40.0721 30.9521C40.8166 32.6294 40.2405 34.5457 38.7383 35.5752C38.1468 35.9686 37.6278 36.4842 37.2009 37.0813C38.4856 37.1251 39.7829 37.1479 41.0897 37.1479C50.9589 37.1479 60.3121 35.8846 67.4259 33.5907C68.3787 33.2835 70.098 32.6229 70.878 32.3154C71.7637 30.8749 72.4521 31.8345 74.7111 29.5591C76.2364 27.9709 76.9517 25.7723 76.7053 23.6461C76.4696 21.6591 77.9028 20.266 79.6313 19.2809C80.6091 18.7274 81.4897 17.8451 81.9612 16.7502C83.5999 13.0393 79.7078 9.56553 75.8451 10.4392Z" fill="#4CA346"/>
<path d="M67.1172 30.9904C66.7272 26.4702 62.9256 22.91 58.3061 22.91C53.4281 22.91 49.4597 26.8785 49.4597 31.7564C49.4597 32.933 49.6924 34.056 50.1116 35.084C55.119 34.4851 59.7346 33.5331 63.6655 32.2656C64.9819 31.841 66.1247 31.4121 67.1172 30.9904Z" fill="#FF6752"/>
<path d="M62.1822 26.7859C62.1822 26.7745 62.1822 26.7629 62.1822 26.7515C62.1742 24.6441 60.4481 22.9182 58.3407 22.91C58.3293 22.91 58.3177 22.91 58.3063 22.91C53.4283 22.91 49.46 26.8785 49.46 31.7564C49.46 31.7678 49.46 31.7794 49.46 31.7908C49.4651 33.0992 50.1327 34.2604 51.1423 34.9547C53.923 34.5911 56.573 34.1166 59.0418 33.5386C60.9607 31.9148 62.1822 29.4909 62.1822 26.7859Z" fill="#FF6752"/>
<path d="M29.8734 3.10123C28.9068 2.1348 27.3252 2.1348 26.3587 3.10123C25.3923 4.06766 25.3923 5.64944 26.3587 6.61587L29.8734 10.1305C30.84 11.097 32.4216 11.097 33.388 10.1305C34.3545 9.16409 34.3545 7.58247 33.388 6.61587L29.8734 3.10123Z" fill="#FF6752"/>
<path d="M68.8095 15.7287H63.839C62.4721 15.7287 61.3536 16.8472 61.3536 18.2141C61.3536 19.581 62.4721 20.6994 63.839 20.6994H68.8095C70.1764 20.6994 71.2948 19.581 71.2948 18.2141C71.2948 16.8472 70.1764 15.7287 68.8095 15.7287Z" fill="#FF6752"/>
<path d="M13.6362 21.161L10.1216 24.6756C9.15512 25.6421 9.15512 27.2237 10.1216 28.1903C11.088 29.1567 12.6696 29.1567 13.6362 28.1903L17.1508 24.6756C18.1174 23.7092 18.1174 22.1276 17.1508 21.161C16.1842 20.1945 14.6026 20.1945 13.6362 21.161Z" fill="#FF6752"/>
<path d="M75.5213 30.8628H40.6454L17.7786 55.8503H17.7821C17.7821 55.9542 17.7839 56.0578 17.7876 56.1611C17.9444 60.5608 21.6097 64 25.9557 64H40.6456H55.3354C59.6814 64 63.3467 60.5609 63.5035 56.1611C63.5072 56.0578 63.509 55.9542 63.509 55.8503H63.5125C71.9131 51.5319 78.0269 44.9003 80.2147 37.1822C81.1115 34.0178 78.7712 30.8628 75.5213 30.8628Z" fill="#A2AF9F"/>
<path d="M50.3117 48.3456C55.7139 41.189 50.6768 30.8628 41.7836 30.8628H5.76932C2.53147 30.8628 0.178505 34 1.06822 37.1539C3.24926 44.8849 9.37017 51.5267 17.7825 55.8503H35.2605C41.1131 55.8503 46.6623 53.1354 50.2385 48.4423C50.263 48.4101 50.2874 48.378 50.3117 48.3456Z" fill="#A2AF9F"/>
</svg>
