<svg width="64" height="64" viewBox="0 0 64 64" fill="none" xmlns="http://www.w3.org/2000/svg">
<path d="M64 32.2958C63.8863 35.0695 63.4077 37.8162 62.5765 40.4647C61.8516 43.1759 61.3628 46.0295 59.9857 48.4029C58.5931 50.8116 56.1655 52.4686 54.2113 54.4225C52.2571 56.3764 50.6637 58.9121 48.2527 60.3052C45.8792 61.6785 42.9771 62.1167 40.2648 62.8442C37.5984 63.5868 34.846 63.9754 32.0783 64C29.3132 63.9554 26.566 63.5472 23.9073 62.7857C21.2749 61.9965 18.7593 60.8597 16.427 59.4055C13.9661 58.1571 11.679 56.5917 9.62428 54.7493C7.78663 52.6922 6.22632 50.4031 4.98317 47.9404C3.60938 45.567 1.91338 43.2874 1.18841 40.5773C0.434659 37.8801 0.0351629 35.0962 0 32.2958C0 29.4544 1.12552 26.8105 1.82621 24.1899C2.55117 21.4787 2.79945 18.56 4.17324 16.1866C5.5669 13.7789 7.9371 12.0657 9.89241 10.1151C11.8477 8.16448 13.6364 5.92024 16.0441 4.53043C18.4188 3.15717 21.2623 2.78074 23.9735 2.05547C26.5931 1.35228 29.2414 0 32.0806 0C34.8997 0.0307483 37.7031 0.424775 40.4215 1.17235C43.101 2.00237 45.6607 3.17916 48.0353 4.67283C50.443 6.06596 52.1446 8.33228 54.0988 10.2862C56.053 12.2401 58.3768 13.907 59.7694 16.3146C61.0785 18.7697 62.0605 21.3857 62.6902 24.096C63.4837 26.7602 63.9241 29.517 64 32.2958Z" fill="#E7C897"/>
<path d="M8.82763 34.221C8.21821 34.221 7.72418 33.7268 7.72418 33.1171C7.72418 28.7512 10.6119 27.5976 12.138 27.5976C12.7474 27.5939 13.2444 28.0852 13.248 28.6949C13.2517 29.3045 12.7606 29.8017 12.1512 29.8054C11.7738 29.8175 9.93108 30.0339 9.93108 33.1171C9.93108 33.7268 9.43705 34.221 8.82763 34.221Z" fill="#D7A251"/>
<path d="M52.9656 45.2601C52.8914 45.2606 52.8174 45.2532 52.7449 45.238C52.458 45.1795 52.2062 45.0094 52.0448 44.7651C51.8834 44.5208 51.8256 44.2223 51.8842 43.9354C52.7669 39.4988 49.5261 38.6367 49.3871 38.5991C49.0022 38.5056 48.6969 38.2128 48.5873 37.832C48.4776 37.4513 48.5804 37.0409 48.8565 36.7568C49.1327 36.4727 49.5398 36.3585 49.9234 36.4575C51.7992 36.9278 55.0831 39.1853 54.0469 44.3681C53.9457 44.8857 53.4927 45.2593 52.9656 45.2601Z" fill="#D7A251"/>
<path d="M27.5862 55.1952C25.8166 55.3602 24.0731 54.6792 22.8834 53.3583C22.0763 52.2111 21.7924 50.7757 22.1021 49.4075C22.2481 48.8155 22.8461 48.4539 23.4378 48.5999C24.0296 48.746 24.391 49.3442 24.245 49.9362C24.0903 50.6515 24.2295 51.3989 24.6312 52.0105C25.4205 52.762 26.5047 53.1205 27.5862 52.9874C28.1957 52.9874 28.6897 53.4817 28.6897 54.0913C28.6897 54.701 28.1957 55.1952 27.5862 55.1952Z" fill="#D7A251"/>
<path d="M46.3449 15.4546C45.9756 15.4551 45.6306 15.2707 45.4257 14.9634C45.0275 14.2994 44.3678 13.8342 43.6088 13.6823C42.8498 13.5303 42.0619 13.7057 41.4389 14.1653C41.1109 14.3842 40.6911 14.4114 40.3377 14.2366C39.9842 14.0619 39.7507 13.7118 39.7252 13.3182C39.6998 12.9246 39.8861 12.5473 40.2141 12.3284C41.3233 11.5408 42.7081 11.2456 44.0419 11.5124C45.3757 11.7792 46.5406 12.5843 47.2618 13.7381C47.4876 14.0767 47.5089 14.5121 47.3171 14.871C47.1254 15.23 46.7517 15.4543 46.3449 15.4546Z" fill="#D7A251"/>
<path d="M34.0282 40.8445C33.4725 40.8428 33.0048 40.428 32.9365 39.8763C32.8681 39.3246 33.2205 38.8082 33.7589 38.6709C34.7449 38.4349 35.619 37.8651 36.2329 37.0581C36.4544 36.6277 36.4766 36.1219 36.2936 35.6738C36.169 35.2991 36.2537 34.8864 36.5157 34.5911C36.7778 34.2959 37.1774 34.1629 37.564 34.2423C37.9506 34.3217 38.2655 34.6014 38.3901 34.9761C38.7687 36.009 38.6884 37.1545 38.1694 38.1244C37.2594 39.4704 35.8804 40.4284 34.3018 40.8113C34.2124 40.8341 34.1204 40.8452 34.0282 40.8445Z" fill="#D7A251"/>
<path d="M15.4483 22.0781C14.9426 22.0776 14.502 21.7332 14.3791 21.2424C13.9553 19.7849 14.158 18.2166 14.9386 16.9149C15.7191 15.6132 17.0067 14.6959 18.4916 14.3839C19.0808 14.2407 19.6752 14.5999 19.8225 15.1883C19.9699 15.7767 19.615 16.3738 19.0279 16.5254C18.1178 16.7068 17.3265 17.2642 16.8489 18.0603C16.3713 18.8563 16.2518 19.8171 16.5198 20.7059C16.6679 21.2973 16.3087 21.8968 15.7176 22.045C15.6296 22.0673 15.5391 22.0784 15.4483 22.0781Z" fill="#D7A251"/>
<path d="M49.2804 21.2699L47.3207 22.2854C45.6972 23.1268 45.0628 25.1255 45.9038 26.7496L46.919 28.7102C47.76 30.3343 49.7579 30.9689 51.3813 30.1276L53.3411 29.112C54.9646 28.2707 55.5989 26.272 54.7579 24.6478L53.7427 22.6873C52.9017 21.0631 50.9039 20.4285 49.2804 21.2699Z" fill="#AA7727"/>
<path d="M41.8802 47.9317L39.8102 47.17C38.0953 46.539 36.1938 47.4182 35.563 49.1338L34.8016 51.2047C34.1709 52.9203 35.0498 54.8227 36.7647 55.4537L38.8347 56.2154C40.5496 56.8464 42.4512 55.9671 43.0819 54.2515L43.8433 52.1806C44.474 50.465 43.5951 48.5627 41.8802 47.9317Z" fill="#AA7727"/>
<path d="M16.5361 36.9208L14.3424 37.1681C12.5251 37.373 11.2179 39.0128 11.4227 40.8309L11.6699 43.0254C11.8746 44.8435 13.5138 46.1512 15.3311 45.9464L17.5248 45.6991C19.3421 45.4942 20.6493 43.8544 20.4445 42.0363L20.1973 39.8418C19.9926 38.0237 18.3534 36.716 16.5361 36.9208Z" fill="#AA7727"/>
<path d="M32.8607 7.29709L30.7267 6.73189C28.9588 6.26367 27.1462 7.31787 26.6781 9.08652L26.1132 11.2215C25.6451 12.9901 26.6989 14.8035 28.4668 15.2717L30.6009 15.8369C32.3688 16.3051 34.1814 15.2509 34.6494 13.4823L35.2144 11.3473C35.6824 9.57867 34.6287 7.76532 32.8607 7.29709Z" fill="#AA7727"/>
<path d="M27.3077 23.4106L25.2597 24.2341C23.5631 24.9163 22.7405 26.8453 23.4224 28.5426L24.2456 30.5915C24.9276 32.2888 26.8558 33.1117 28.5524 32.4295L30.6004 31.606C32.297 30.9237 33.1196 28.9947 32.4376 27.2974L31.6144 25.2486C30.9325 23.5513 29.0043 22.7284 27.3077 23.4106Z" fill="#AA7727"/>
</svg>
