<svg width="36" height="36" viewBox="0 0 36 36" fill="none" xmlns="http://www.w3.org/2000/svg">
<path d="M17.694 6.021L18 6C18.5437 6.00002 19.069 6.19693 19.4788 6.5543C19.8886 6.91167 20.1551 7.40534 20.229 7.944L20.25 8.25V15.747L27.75 15.75C28.2937 15.75 28.819 15.9469 29.2288 16.3043C29.6386 16.6617 29.9051 17.1553 29.979 17.694L30 18C30 18.5437 29.8031 19.069 29.4457 19.4788C29.0883 19.8886 28.5947 20.1551 28.056 20.229L27.75 20.25L20.25 20.247V27.75C20.25 28.2937 20.0531 28.819 19.6957 29.2288C19.3383 29.6386 18.8447 29.9051 18.306 29.979L18 30C17.4563 30 16.931 29.8031 16.5212 29.4457C16.1114 29.0883 15.8449 28.5947 15.771 28.056L15.75 27.75V20.247L8.25 20.25C7.70629 20.25 7.18097 20.0531 6.77121 19.6957C6.36144 19.3383 6.09494 18.8447 6.021 18.306L6 18C6.00002 17.4563 6.19693 16.931 6.5543 16.5212C6.91167 16.1114 7.40534 15.8449 7.944 15.771L8.25 15.75L15.75 15.747V8.25C15.75 7.70629 15.9469 7.18097 16.3043 6.77121C16.6617 6.36144 17.1553 6.09494 17.694 6.021L18 6L17.694 6.021Z" fill="#FFD485"/>
</svg>
