<svg width="96" height="96" viewBox="0 0 96 96" fill="none" xmlns="http://www.w3.org/2000/svg">
<path d="M37.1183 37.2874C36.3096 36.4022 35.1582 35.8838 33.9595 35.8652C31.5484 35.8343 29.5538 37.7565 29.513 40.1657C29.4998 40.9423 30.1188 41.5824 30.8952 41.5956C30.9035 41.5958 30.9113 41.5958 30.9196 41.5958C31.6851 41.5958 32.3121 40.9817 32.3251 40.2131C32.3395 39.3527 33.0468 38.6623 33.9154 38.6773C34.3491 38.6841 34.7491 38.8641 35.0417 39.1843C35.5656 39.7579 36.4553 39.798 37.0285 39.2741C37.6019 38.7505 37.6422 37.8608 37.1183 37.2874Z" fill="#B6B6B6"/>
<path d="M44.5998 41.8705C44.1688 40.8572 43.3297 40.0575 42.2971 39.6764C40.2208 38.9104 37.9061 39.9749 37.1368 42.0488C36.8666 42.777 37.238 43.5863 37.9661 43.8565C38.1273 43.9163 38.2925 43.9446 38.4549 43.9446C39.0262 43.9446 39.5632 43.594 39.7736 43.027C40.0046 42.4041 40.7008 42.0853 41.3233 42.315C41.6362 42.4305 41.8807 42.6636 42.0114 42.9711C42.3153 43.6856 43.1415 44.019 43.8558 43.7149C44.5708 43.411 44.9036 42.5852 44.5998 41.8705Z" fill="#B6B6B6"/>
<path d="M53.6635 29.4158C53.1137 28.867 52.2233 28.8681 51.6748 29.4179L50.3492 30.7461C49.8006 31.2959 49.8015 32.1863 50.3513 32.7347C50.6256 33.0087 50.985 33.1455 51.3445 33.1455C51.7048 33.1455 52.0652 33.0079 52.3399 32.7327L53.6655 31.4044C54.2142 30.8547 54.2132 29.9642 53.6635 29.4158Z" fill="#B6B6B6"/>
<path d="M44.9145 47.5703H43.0403C42.2635 47.5703 41.634 48.1999 41.634 48.9765C41.634 49.7531 42.2635 50.3827 43.0403 50.3827H44.9145C45.6913 50.3827 46.3208 49.7531 46.3208 48.9765C46.3208 48.1999 45.6913 47.5703 44.9145 47.5703Z" fill="#B6B6B6"/>
<path d="M59.2852 47.5703H57.4108C56.634 47.5703 56.0045 48.1999 56.0045 48.9765C56.0045 49.7531 56.6341 50.3827 57.4108 50.3827H59.2852C60.0618 50.3827 60.6915 49.7531 60.6915 48.9765C60.6915 48.1999 60.0618 47.5703 59.2852 47.5703Z" fill="#B6B6B6"/>
<path d="M95.9548 72.9263L95.5886 70.9497C95.3552 69.6867 94.2523 68.77 92.9662 68.77C92.8048 68.77 92.6421 68.7848 92.4819 68.8143L85.027 70.1838L88.4031 67.9268C89.2879 67.3355 89.7351 66.2776 89.5421 65.2282C89.4885 64.9407 89.388 64.6649 89.2425 64.4067L88.2208 62.5975C87.8708 61.976 87.2738 61.5142 86.5847 61.3312C86.2472 61.2412 85.8943 61.2211 85.5501 61.2659C85.926 59.1911 86.1199 57.0719 86.1199 54.9148C86.1199 53.9576 85.5443 53.1339 84.7221 52.7681C85.7964 50.2128 85.8698 47.2875 84.8078 44.6085C84.7217 44.3906 84.5938 44.1962 84.4283 44.0304C84.264 43.8662 84.0718 43.7392 83.8538 43.6517C82.5812 43.1449 81.2438 42.888 79.8786 42.888C79.704 42.888 79.5302 42.8925 79.357 42.9007C79.1622 38.9758 75.9137 35.8425 71.9481 35.8425C71.4259 35.8425 70.9167 35.898 70.4249 36.0015C70.7665 33.9578 70.5653 31.8197 69.7694 29.8124C69.6839 29.5917 69.5555 29.3937 69.3809 29.2163C69.2129 29.0483 69.0158 28.9187 68.7972 28.8319C67.4264 28.2859 65.9857 28.0092 64.5149 28.0092C62.2994 28.0092 60.1801 28.6321 58.3505 29.7901C57.6821 27.8538 56.5798 26.0359 55.0396 24.4923C54.5885 24.0404 53.9885 23.7914 53.3501 23.7914C52.7117 23.7914 52.1117 24.0404 51.66 24.4926L44.8513 31.3169C43.5913 30.193 41.9333 29.5212 40.1336 29.5212C39.7253 29.5212 39.313 29.557 38.9081 29.6275C37.4413 29.8829 36.0915 30.6008 35.0567 31.6523C33.7298 31.012 32.2097 30.7936 30.7489 31.0478C30.4276 31.1037 30.1157 31.1824 29.8131 31.2784V26.0198C29.8131 22.3985 26.9026 19.447 23.3022 19.3848V16.4024C24.4043 16.2117 25.2458 15.2512 25.2458 14.0954V7.33816C25.2458 6.04591 24.1945 4.99442 22.9021 4.99442H11.4663C10.1739 4.99442 9.12259 6.04591 9.12259 7.33816V14.0954C9.12259 15.2512 9.96408 16.2117 11.0662 16.4024V19.3844C7.46584 19.4465 4.55548 22.3979 4.55548 26.0194V67.0623C1.74787 69.5978 0 73.1357 0 77.0481C0 84.7442 6.75466 91.0055 15.0575 91.0055L71.3423 90.989C73.2634 90.9883 75.0702 90.144 76.299 88.6729C77.496 87.2407 78.0047 85.3806 77.7117 83.5461L88.9536 85.5664C89.1092 85.5943 89.2686 85.6086 89.4266 85.6086C89.9872 85.6086 90.5244 85.4364 90.9793 85.1113C91.5641 84.6936 91.9599 84.0469 92.0655 83.3376L92.37 81.2944C92.4139 81.0017 92.409 80.707 92.3556 80.418C92.162 79.3733 91.3665 78.5443 90.3287 78.3066L86.3663 77.3976L93.8139 76.0294C94.5163 75.9004 95.1257 75.5061 95.5299 74.9191C95.9334 74.3335 96.0842 73.6259 95.9548 72.9263ZM79.8786 45.7001C80.7252 45.7001 81.5575 45.8342 82.3577 46.0984C83.0728 48.276 82.8051 50.6248 81.6853 52.565H77.8971L79.1059 51.3534C79.6545 50.8036 79.6534 49.9132 79.1035 49.3646C78.5535 48.816 77.6631 48.8169 77.1149 49.3668L76.4753 50.0079C76.1755 49.0207 75.652 48.1369 74.9639 47.4118C76.3596 46.3035 78.073 45.7001 79.8786 45.7001ZM71.9481 38.6546C74.4878 38.6546 76.5539 40.7269 76.5539 43.2741C76.5539 43.3213 76.5516 43.368 76.5503 43.4149C75.0679 43.8969 73.7016 44.7022 72.5363 45.7959C72.3509 45.7256 72.1628 45.6604 71.9697 45.6069C71.5583 43.3847 70.0608 41.6034 68.0825 40.7715C68.9035 39.4995 70.3281 38.6546 71.9481 38.6546ZM64.5147 30.8213C65.4698 30.8213 66.4085 30.9758 67.313 31.2814C68.0399 33.4429 67.8914 35.7647 66.9652 37.7758C66.2037 38.4694 65.5859 39.3188 65.1637 40.2735C64.9126 40.2881 64.6615 40.3159 64.4135 40.359C63.3115 40.5508 62.284 41.0289 61.4242 41.7223C61.1309 41.1861 60.7719 40.6913 60.3605 40.2458L63.5853 37.0137C64.1339 36.4639 64.1328 35.5735 63.5829 35.025C63.0331 34.4764 62.1427 34.4774 61.5941 35.0273L58.0694 38.56C57.3988 38.2429 56.6739 38.0224 55.9121 37.9193C56.2411 36.2412 57.0555 34.66 58.3151 33.3974C59.9724 31.7361 62.1742 30.8213 64.5147 30.8213ZM53.7391 52.565H52.5202C52.3149 52.0426 51.8073 51.6723 51.212 51.6723C50.6167 51.6723 50.1092 52.0428 49.9039 52.565H48.4699C48.8029 52.0228 48.7355 51.3043 48.2655 50.8352C47.7157 50.2865 46.8253 50.2875 46.2767 50.8372L44.9512 52.1655C44.8322 52.2847 44.7407 52.4206 44.6734 52.565H41.8112C40.7393 50.9201 40.0851 48.9785 40.0076 46.8898H62.3174C62.24 48.9785 61.5858 50.9201 60.5139 52.565H57.5354C57.4683 52.4206 57.3764 52.2845 57.2576 52.1653L55.9323 50.837C55.3835 50.2875 54.4935 50.286 53.9437 50.8348C53.4733 51.3039 53.406 52.0226 53.7391 52.565ZM50.4686 44.0773C50.9987 42.1129 52.7906 40.6633 54.9142 40.6633C57.038 40.6633 58.8299 42.1131 59.36 44.0773H50.4686ZM53.3443 26.7859C54.6819 28.2316 55.5663 29.9479 56 31.7521C55.2821 32.5322 54.6856 33.3944 54.2152 34.3118C54.0016 34.1809 53.7513 34.1042 53.4827 34.1042H51.6088C50.8322 34.1042 50.2025 34.7338 50.2025 35.5105C50.2025 36.2871 50.8322 36.9167 51.6088 36.9167H53.2526C53.1602 37.305 53.0883 37.698 53.0362 38.094C52.4778 38.2406 51.9446 38.4495 51.4455 38.7154C50.5082 37.0978 48.956 35.8924 47.1171 35.4088C47.1165 35.4049 47.1157 35.401 47.115 35.397C47.0047 34.7607 46.8124 34.1569 46.5501 33.5957L53.3443 26.7859ZM27.9235 39.4751C27.841 39.2445 27.7786 39.0079 27.7375 38.7705C27.3342 36.4453 28.9017 34.2239 31.231 33.8183C31.4766 33.7755 31.7262 33.7538 31.9726 33.7538C32.899 33.7538 33.7844 34.0493 34.5327 34.6082C34.8422 34.8396 35.2337 34.9332 35.6147 34.8672C35.9957 34.801 36.3327 34.581 36.5464 34.2587C37.2066 33.2629 38.2167 32.6022 39.3904 32.3978C39.6366 32.3549 39.8867 32.3333 40.1336 32.3333C42.2171 32.3333 43.9879 33.8239 44.3438 35.878C44.3846 36.1133 44.4056 36.3585 44.406 36.607C44.4073 37.3348 44.964 37.9416 45.6892 38.0053C47.2614 38.1435 48.5998 39.133 49.2202 40.5268C48.3896 41.5238 47.8138 42.741 47.5952 44.0773H39.5755C38.5783 44.0773 37.7228 44.6929 37.366 45.564C35.6016 44.3623 33.5222 43.7149 31.3431 43.7149C29.9779 43.7149 28.6405 43.9719 27.367 44.4789C27.151 44.5652 26.9579 44.6925 26.7933 44.8571C26.6264 45.024 26.4983 45.2196 26.4143 45.4341C26.0907 46.2502 25.8749 47.0893 25.7583 47.9336C25.2543 47.3599 24.8991 46.6464 24.7604 45.8458C24.4296 43.9378 25.4285 42.0381 27.1885 41.2258C27.85 40.9206 28.1689 40.1608 27.9235 39.4751ZM32.1156 52.1805L32.4992 52.565H29.1218C28.3636 50.8059 28.2484 48.8036 28.864 46.9256C29.6654 46.661 30.4973 46.5272 31.3431 46.5272C33.462 46.5272 35.4553 47.3554 36.9555 48.8589C37.155 49.059 37.3408 49.2686 37.5154 49.4852C37.7537 50.564 38.1199 51.5947 38.5916 52.5648H36.4723L34.1067 50.1937C33.5579 49.6442 32.6674 49.6427 32.1181 50.1915C31.5681 50.7403 31.567 51.6307 32.1156 52.1805ZM26.1269 52.565H21.1137C21.3372 51.2028 22.1566 50.0417 23.294 49.3569C23.9673 50.259 24.8461 50.9883 25.8586 51.4824C25.9302 51.8473 26.0181 52.209 26.1269 52.565ZM11.9351 7.8069H22.4333V13.6267H11.9351V7.8069ZM20.4897 16.4392V19.3816H13.8789V16.4392H20.4897ZM7.36816 31.7224H16.4999C17.2767 31.7224 17.9062 31.0928 17.9062 30.3162C17.9062 29.5396 17.2767 28.9099 16.4999 28.9099H7.36816V26.0194C7.36816 23.9101 9.0789 22.1941 11.1817 22.1941H23.1869C25.2899 22.1941 27.0006 23.9101 27.0006 26.0194V28.9099H24.3749C23.5981 28.9099 22.9687 29.5396 22.9687 30.3162C22.9687 31.0928 23.5981 31.7224 24.3749 31.7224H27.0006V32.9706C25.3895 34.5503 24.5526 36.8668 24.9659 39.2498C24.9666 39.2545 24.9676 39.2593 24.9683 39.2642C22.7123 40.812 21.5103 43.5637 21.989 46.3262C22.0169 46.4874 22.052 46.646 22.0902 46.803C21.3877 47.1904 20.7567 47.6906 20.216 48.276H7.36816V31.7224ZM7.36797 51.0883H18.583C18.4338 51.5623 18.3284 52.0556 18.277 52.565H18.04C16.7457 52.565 15.6926 53.619 15.6926 54.9144C15.6926 57.1473 15.9001 59.3394 16.3023 61.484C15.8982 61.4515 15.4839 61.4341 15.0624 61.4341C13.3618 61.4341 11.7414 61.7039 10.5003 62.194C8.6019 62.9437 8.07709 64.0081 7.96253 64.7446C7.76134 64.8447 7.56372 64.9505 7.36797 65.0587V51.0883ZM25.175 68.3635C25.6814 68.7687 25.991 69.1131 26.1704 69.3616C26.1535 69.3618 26.1359 69.3619 26.1181 69.3619C25.3221 69.3619 23.8921 69.0411 22.2659 68.141C21.6605 67.8055 21.1027 67.4266 20.6527 67.0454C20.128 66.6008 19.3587 66.6012 18.8345 67.0456C18.3845 67.4271 17.8269 67.8059 17.222 68.1406C15.5954 69.0411 14.1654 69.3619 13.3696 69.3619C13.3514 69.3619 13.334 69.3618 13.3169 69.3616C13.4962 69.1131 13.8058 68.7685 14.3124 68.3631C14.7551 68.0088 14.9416 67.423 14.7854 66.878C14.6291 66.3327 14.1607 65.9347 13.5973 65.8686C12.2249 65.7078 11.3572 65.3585 10.9509 65.1042C11.46 64.7872 12.7469 64.2466 15.0629 64.2466C16.9811 64.2466 18.383 64.6499 19.0554 65.0275C19.483 65.2675 20.0045 65.2675 20.4322 65.0277C21.1049 64.6501 22.507 64.2468 24.4251 64.2468C26.7413 64.2468 28.0281 64.7875 28.537 65.1044C28.1309 65.3588 27.2629 65.708 25.8903 65.8688C25.3268 65.935 24.8583 66.3329 24.7021 66.8783C24.5453 67.4236 24.7319 68.0093 25.175 68.3635ZM22.3619 85.4796L22.4103 85.7402C22.5775 86.6434 22.9302 87.4723 23.423 88.1931H15.0575C8.30565 88.1931 2.81249 83.1936 2.81249 77.0481C2.81249 72.8483 5.37898 69.1853 9.15821 67.286C9.59227 67.61 10.1334 67.8893 10.7754 68.1147C10.5208 68.5495 10.3434 69.0171 10.3016 69.5048C10.2461 70.1532 10.4445 70.7689 10.8607 71.2388C11.4106 71.8598 12.2548 72.1746 13.3696 72.1746C14.8554 72.1746 16.8048 71.5864 18.5842 70.6013C18.9939 70.3746 19.3812 70.1352 19.7439 69.8851C20.1063 70.135 20.4937 70.3744 20.9035 70.6015C22.6829 71.5864 24.6323 72.1744 26.1181 72.1746H26.1183C27.2328 72.1746 28.0769 71.8598 28.6266 71.239C29.0431 70.7691 29.2416 70.1534 29.1859 69.5048C29.1441 69.0171 28.9668 68.5495 28.7121 68.1147C29.3541 67.8891 29.8954 67.6098 30.3295 67.286C33.3267 68.7923 35.56 71.4081 36.3563 74.5212L26.4104 78.2995C23.4991 79.4057 21.7964 82.4252 22.3619 85.4796ZM74.1406 86.8697C73.4472 87.6999 72.4266 88.1762 71.341 88.1766L69.865 88.1771L68.9429 83.1981C68.8013 82.4344 68.068 81.9295 67.304 82.0714C66.5405 82.2128 66.0359 82.9464 66.1773 83.7101L67.0049 88.1781L62.1663 88.1799L61.5429 84.813C61.4013 84.0493 60.6678 83.545 59.9039 83.6863C59.1404 83.8277 58.6359 84.5614 58.7773 85.3251L59.306 88.1811L48.0514 88.1854L47.2042 83.6126C47.0625 82.849 46.3294 82.3446 45.5653 82.4861C44.8016 82.6275 44.2973 83.3614 44.4386 84.1251L45.1911 88.1865L28.7579 88.1929C28.7575 88.1929 28.7571 88.1929 28.7568 88.1929C26.9995 88.1929 25.4935 86.946 25.1751 85.2274L25.1268 84.9668C24.809 83.25 25.7686 81.5518 27.4086 80.9286L32.9355 78.829L33.3473 81.0512C33.4727 81.7283 34.0637 82.2015 34.7282 82.2015C34.8134 82.2015 34.8996 82.1936 34.9862 82.1777C35.7497 82.0361 36.2541 81.3025 36.1125 80.5388L35.6076 77.8139L43.8116 74.6972C44.5376 74.4214 44.9027 73.6092 44.6269 72.8832C44.3511 72.157 43.5379 71.7921 42.813 72.0679L38.9953 73.5182C37.9243 69.7264 35.173 66.559 31.5244 64.7444C31.4099 64.0079 30.8851 62.9435 28.9868 62.1939C27.7458 61.7037 26.1254 61.4339 24.4248 61.4339C23.2544 61.4339 22.1367 61.5631 21.1501 61.7984V60.949C21.1501 60.1724 20.5207 59.5428 19.7439 59.5428C19.4155 59.5428 19.1144 59.6561 18.875 59.8447C18.6532 58.3779 18.529 56.888 18.5084 55.3771H64.3122C65.089 55.3771 65.7185 54.7475 65.7185 53.9709C65.7185 53.1943 65.089 52.5646 64.3122 52.5646H63.7368C64.6323 50.7204 65.1382 48.6527 65.1382 46.4674C65.1382 45.2267 64.1889 44.2046 62.9791 44.0886C63.5058 43.5919 64.1632 43.257 64.8959 43.1293C65.1106 43.092 65.3285 43.0731 65.5437 43.0731C67.3593 43.0731 68.902 44.3719 69.212 46.161C69.2478 46.3682 69.2661 46.5819 69.2663 46.7966C69.2673 47.5249 69.8241 48.132 70.5496 48.1957C72.2301 48.3433 73.6051 49.6072 73.8932 51.2692C73.9697 51.7112 73.9602 52.1473 73.8835 52.5646H72.3747C71.5979 52.5646 70.9685 53.1943 70.9685 53.9709C70.9685 54.7475 71.5979 55.3771 72.3747 55.3771H83.3044C83.2695 57.9567 82.9373 60.4766 82.3176 62.9214L74.6965 67.4202C74.2304 65.798 73.147 64.4219 71.6543 63.5864C69.9801 62.6495 67.9906 62.503 66.1962 63.1846L50.5005 69.1474C49.7743 69.4233 49.4094 70.2355 49.6852 70.9615C49.961 71.6877 50.774 72.0522 51.4991 71.7767L53.5668 70.9913L54.2088 74.4576C54.3343 75.1347 54.9253 75.6081 55.59 75.6081C55.6749 75.6081 55.7611 75.6002 55.8478 75.5843C56.6113 75.4429 57.1158 74.7092 56.9744 73.9455L56.2393 69.9762L67.1946 65.8143C68.2098 65.4288 69.3344 65.5115 70.2807 66.0412C71.2253 66.5697 71.8797 67.481 72.0762 68.5407L74.9211 83.8997C75.1172 84.9589 74.8328 86.0413 74.1406 86.8697ZM79.158 75.8624C78.502 75.9829 78.021 76.5477 78.0062 77.2146C77.9916 77.8815 78.4476 78.4669 79.0977 78.616L89.5676 81.0175L89.3061 82.7723L77.1685 80.5911L75.2712 70.3473L85.8431 64.1065L86.7238 65.666L77.8067 71.6267C77.2523 71.9974 77.0344 72.7066 77.2853 73.3246C77.536 73.9426 78.1866 74.2995 78.8425 74.179L92.8498 71.6059L93.1618 73.2897L79.158 75.8624Z" fill="#B6B6B6"/>
</svg>
