<?xml version="1.0" encoding="iso-8859-1"?>
<!-- Generator: Adobe Illustrator 19.0.0, SVG Export Plug-In . SVG Version: 6.00 Build 0)  -->
<svg version="1.1" id="Layer_1" xmlns="http://www.w3.org/2000/svg" xmlns:xlink="http://www.w3.org/1999/xlink" x="0px" y="0px"
	 viewBox="0 0 511.986 511.986" style="enable-background:new 0 0 511.986 511.986;" xml:space="preserve">
<path style="fill:#434A54;" d="M184.135,157.173c-2.344,0-4.703-0.766-6.672-2.344c-4.594-3.695-5.32-10.406-1.633-15
	c15.547-19.367,49.694-17.031,53.538-16.703c5.867,0.508,10.218,5.672,9.71,11.539c-0.5,5.867-5.664,10.21-11.523,9.718
	c-6.836-0.555-27.914-0.133-35.093,8.805C190.353,155.814,187.26,157.173,184.135,157.173z"/>
<path style="fill:#ED5564;" d="M186.588,144.064c-20.75-53.303-71.444-52.842-107.654-16.632
	c-36.187,36.187-34.031,102.38,6.539,117.747c15.367,40.593,81.561,42.734,117.747,6.539
	C239.43,215.508,239.891,164.814,186.588,144.064z"/>
<path style="fill:#A0D468;" d="M346.598,76.12c-3.141,0-6.249-1.383-8.358-4.039c-0.672-0.844-6.609-8.586-9.141-20.679
	c-2.375-11.296-2.188-28.671,12.156-47.257c3.608-4.656,10.296-5.523,14.968-1.921c4.656,3.601,5.516,10.296,1.922,14.96
	c-7.531,9.75-10.281,19.789-8.172,29.843c1.484,7.07,4.953,11.757,4.984,11.796c3.656,4.617,2.875,11.328-1.734,14.992
	C351.255,75.363,348.927,76.12,346.598,76.12z"/>
<path style="fill:#E9573F;" d="M356.63,227.281l38.281-12.656l40.186-13.281c47.875-15.828,14.203-176.191-24.952-163.246
	L279.382,81.331C240.071,94.323,308.616,243.156,356.63,227.281z"/>
<path style="fill:#FC6E51;" d="M422.613,105.08c-7.781-23.562-16.905-62.943-39.999-62.943c-2.375,0-4.875,0.414-7.547,1.297
	l-64.498,21.319c-28.781,9.516-12.812,43.155-1.344,77.827c10.781,32.593,40.842,84.818,62.998,84.818
	c1.422,0,2.797-0.211,4.141-0.656l42.421-14.023C441.159,205.321,431.206,131.049,422.613,105.08z"/>
<path style="fill:#A0D468;" d="M437.315,298.679H74.66c-5.891,0-10.664,4.766-10.664,10.655v32
	c0,70.982,38.921,135.902,101.576,169.402c1.547,0.828,3.273,1.25,5.031,1.25H341.38c1.749,0,3.483-0.422,5.03-1.25
	c62.655-33.5,101.576-98.42,101.576-169.402v-32C447.987,303.444,443.206,298.679,437.315,298.679z"/>
<path style="opacity:0.2;fill:#FFFFFF;enable-background:new    ;" d="M437.315,298.679h-21.327c5.891,0,10.672,4.766,10.672,10.655
	v32c0,70.982-38.937,135.902-101.592,169.402c-1.547,0.828-3.266,1.25-5.03,1.25h21.343c1.749,0,3.483-0.422,5.03-1.25
	c62.655-33.5,101.576-98.42,101.576-169.402v-32C447.987,303.444,443.206,298.679,437.315,298.679z"/>
<g>
</g>
<g>
</g>
<g>
</g>
<g>
</g>
<g>
</g>
<g>
</g>
<g>
</g>
<g>
</g>
<g>
</g>
<g>
</g>
<g>
</g>
<g>
</g>
<g>
</g>
<g>
</g>
<g>
</g>
</svg>
