<?xml version="1.0" encoding="iso-8859-1"?>
<!-- Generator: Adobe Illustrator 19.0.0, SVG Export Plug-In . SVG Version: 6.00 Build 0)  -->
<svg version="1.1" id="Layer_1" xmlns="http://www.w3.org/2000/svg" xmlns:xlink="http://www.w3.org/1999/xlink" x="0px" y="0px"
	 viewBox="0 0 164 164" style="enable-background:new 0 0 164 164;" xml:space="preserve">
<g>
	<g>
		<g>
			<circle style="fill:#AD744F;" cx="111.895" cy="137.948" r="26.052"/>
		</g>
		<g>
			<circle style="fill:#76A930;" cx="118.895" cy="137.948" r="19.052"/>
		</g>
		<g>
			<circle style="fill:#454C53;" cx="118.895" cy="137.948" r="12.052"/>
		</g>
		<g>
			<circle style="fill:#FFFFFF;" cx="118.895" cy="137.948" r="6.052"/>
		</g>
	</g>
	<g>
		<g>
			<rect x="26.053" y="36" style="fill:#C8C8C8;" width="67" height="128"/>
		</g>
		<g>
			<rect x="26.053" y="36" style="fill:#DEDEDE;" width="33" height="128"/>
		</g>
		<g>
			<rect x="34.053" y="36" style="fill:#E9E9E9;" width="52" height="111"/>
		</g>
		<g>
			<rect x="34.053" y="66" style="fill:#76A930;" width="52" height="81"/>
		</g>
		<g>
			<path style="fill:#FFFFFF;" d="M79.053,117.744c0,1.798-1.567,3.256-3.5,3.256l0,0c-1.933,0-3.5-1.458-3.5-3.256V77.256
				c0-1.798,1.567-3.256,3.5-3.256l0,0c1.933,0,3.5,1.458,3.5,3.256V117.744z"/>
		</g>
		<g>
			<circle style="fill:#FFFFFF;" cx="75.249" cy="129.124" r="3.658"/>
		</g>
		<g>
			<g>
				<path style="fill:#FFFFFF;" d="M63.053,66h-8V16.571C55.053,7.124,62.478,0,72.324,0h31.73v8h-31.73
					c-5.458,0-9.27,3.524-9.27,8.571V66H63.053z"/>
			</g>
			<g>
				<path style="fill:#DF1700;" d="M63.053,66h-8V54h8V66z M63.053,44h-8V32h8V44z M63.053,22h-8v-5.429
					c0-2.817,0.633-5.445,1.881-7.812l7.076,3.731c-0.635,1.205-0.957,2.577-0.957,4.08V22z M69.372,8.379l-2.088-7.723
					C68.895,0.221,70.59,0,72.324,0h7.73v8h-7.73C71.295,8,70.302,8.127,69.372,8.379z M102.053,8h-12V0h12V8z"/>
			</g>
		</g>
	</g>
</g>
<g>
</g>
<g>
</g>
<g>
</g>
<g>
</g>
<g>
</g>
<g>
</g>
<g>
</g>
<g>
</g>
<g>
</g>
<g>
</g>
<g>
</g>
<g>
</g>
<g>
</g>
<g>
</g>
<g>
</g>
</svg>
