<svg width="59" height="24" viewBox="0 0 59 24" fill="none" xmlns="http://www.w3.org/2000/svg">
<path d="M15.4763 19.8217C15.9889 20.312 16.2451 20.8691 16.2451 21.493C16.2451 22.117 16.0111 22.6741 15.5432 23.1643C15.0975 23.6546 14.5738 23.8997 13.9721 23.8997C13.3928 23.8997 12.8579 23.6657 12.3677 23.1978L5.04735 16.4123V21.5265C5.04735 22.3064 4.80223 22.8969 4.31198 23.298C3.84401 23.6992 3.25348 23.8997 2.54039 23.8997C1.80501 23.8997 1.1922 23.6992 0.70195 23.298C0.233983 22.8969 0 22.3064 0 21.5265V2.37326C0 1.59331 0.233983 1.00279 0.70195 0.601671C1.1922 0.200557 1.80501 0 2.54039 0C3.25348 0 3.84401 0.200557 4.31198 0.601671C4.80223 1.00279 5.04735 1.59331 5.04735 2.37326V14.3398L11.7326 7.75488C12.2228 7.26462 12.7688 7.0195 13.3705 7.0195C13.9944 7.0195 14.5404 7.25348 15.0084 7.72145C15.4763 8.16713 15.7103 8.70195 15.7103 9.3259C15.7103 9.90529 15.454 10.4513 14.9415 10.9638L10.4958 15.2089L15.4763 19.8217Z" fill="#91C788"/>
<path d="M26.0635 24C24.37 24 22.8881 23.6546 21.6179 22.9638C20.3477 22.273 19.3672 21.2925 18.6764 20.0223C18.0078 18.7521 17.6736 17.2591 17.6736 15.5432C17.6736 13.8273 18.0301 12.3231 18.7432 11.0306C19.4786 9.71588 20.5037 8.70195 21.8184 7.98886C23.1332 7.27577 24.6485 6.91922 26.3644 6.91922C27.2557 6.91922 28.1471 7.04178 29.0385 7.28691C29.9521 7.53203 30.7655 7.87744 31.4786 8.32312C32.1694 8.74652 32.5148 9.37047 32.5148 10.195C32.5148 10.7744 32.3811 11.2535 32.1137 11.6323C31.8463 11.9889 31.4897 12.1671 31.044 12.1671C30.7544 12.1671 30.4758 12.1226 30.2084 12.0334C29.9633 11.922 29.629 11.766 29.2056 11.5655C28.7376 11.3203 28.3142 11.1309 27.9354 10.9972C27.5789 10.8635 27.1666 10.7967 26.6986 10.7967C25.4507 10.7967 24.4925 11.1978 23.824 12C23.1778 12.7799 22.8546 13.9276 22.8546 15.4429C22.8546 16.9582 23.1778 18.117 23.824 18.9192C24.4925 19.7214 25.4507 20.1226 26.6986 20.1226C27.1666 20.1226 27.5789 20.0669 27.9354 19.9554C28.292 19.8217 28.7265 19.6212 29.239 19.3538C29.6624 19.1532 29.9967 19.0084 30.2418 18.9192C30.4869 18.8078 30.7544 18.7521 31.044 18.7521C31.4674 18.7521 31.8128 18.9415 32.0803 19.3203C32.37 19.6992 32.5148 20.1783 32.5148 20.7577C32.5148 21.5822 32.1694 22.195 31.4786 22.5961C30.7655 23.0418 29.941 23.3872 29.005 23.6323C28.0691 23.8774 27.0886 24 26.0635 24Z" fill="#91C788"/>
<path d="M42.3802 6.91922C44.7869 6.91922 46.5696 7.50975 47.7284 8.69081C48.8872 9.84958 49.4666 11.6323 49.4666 14.039V21.5933C49.4666 22.3287 49.2549 22.9081 48.8315 23.3315C48.4081 23.7326 47.8176 23.9331 47.0599 23.9331C46.3468 23.9331 45.7674 23.7214 45.3217 23.298C44.8983 22.8524 44.6866 22.2841 44.6866 21.5933V21.3593C44.3524 22.1838 43.7953 22.8301 43.0153 23.298C42.2354 23.766 41.3217 24 40.2744 24C39.1602 24 38.1462 23.7772 37.2326 23.3315C36.3412 22.8858 35.6281 22.2618 35.0933 21.4596C34.5808 20.6574 34.3245 19.766 34.3245 18.7855C34.3245 17.5822 34.6253 16.6351 35.227 15.9443C35.851 15.2535 36.8426 14.7521 38.202 14.4401C39.5613 14.1281 41.422 13.9721 43.7841 13.9721H44.6532V13.3705C44.6532 12.4345 44.4415 11.7549 44.0181 11.3315C43.617 10.9081 42.9373 10.6964 41.9791 10.6964C41.0209 10.6964 39.6393 11.0306 37.8343 11.6992C37.3217 11.9443 36.8872 12.0669 36.5306 12.0669C36.0404 12.0669 35.6504 11.8997 35.3607 11.5655C35.071 11.2089 34.9262 10.7521 34.9262 10.195C34.9262 9.7493 35.0265 9.38162 35.227 9.09192C35.4276 8.80223 35.7507 8.53482 36.1964 8.28969C36.9763 7.86629 37.9234 7.53203 39.0376 7.28691C40.1741 7.04178 41.2883 6.91922 42.3802 6.91922ZM41.3774 20.5237C42.3579 20.5237 43.149 20.2006 43.7507 19.5543C44.3524 18.8858 44.6532 18.0279 44.6532 16.9805V16.4123H44.085C42.2799 16.4123 41.0097 16.5571 40.2744 16.8468C39.5613 17.1365 39.2047 17.6602 39.2047 18.4178C39.2047 19.0418 39.4053 19.5543 39.8064 19.9554C40.2298 20.3343 40.7535 20.5237 41.3774 20.5237Z" fill="#91C788"/>
<path d="M55.7807 23.9331C55.0454 23.9331 54.4325 23.7326 53.9423 23.3315C53.4743 22.9304 53.2403 22.3398 53.2403 21.5599V2.37326C53.2403 1.59331 53.4743 1.00279 53.9423 0.601671C54.4325 0.200557 55.0454 0 55.7807 0C56.4938 0 57.0843 0.200557 57.5523 0.601671C58.0426 1.00279 58.2877 1.59331 58.2877 2.37326V21.5599C58.2877 22.3398 58.0426 22.9304 57.5523 23.3315C57.0843 23.7326 56.4938 23.9331 55.7807 23.9331Z" fill="#91C788"/>
</svg>
