<svg width="28" height="28" viewBox="0 0 28 28" fill="none" xmlns="http://www.w3.org/2000/svg">
<g id="Iconly/Bold/Star">
<g id="Star">
<path id="Star_2" d="M20.9048 16.7068C20.6026 16.9996 20.4638 17.4231 20.5326 17.8384L21.5698 23.5784C21.6573 24.0649 21.452 24.5573 21.0448 24.8384C20.6458 25.1301 20.115 25.1651 19.6798 24.9318L14.5126 22.2368C14.333 22.1411 14.1335 22.0898 13.9293 22.0839H13.6131C13.5035 22.1003 13.3961 22.1353 13.2981 22.1889L8.12979 24.8968C7.87429 25.0251 7.58495 25.0706 7.30145 25.0251C6.61079 24.8944 6.14995 24.2364 6.26312 23.5423L7.30145 17.8023C7.37029 17.3834 7.23145 16.9576 6.92929 16.6601L2.71645 12.5768C2.36412 12.2349 2.24162 11.7216 2.40262 11.2584C2.55895 10.7964 2.95795 10.4593 3.43979 10.3834L9.23812 9.54228C9.67912 9.49678 10.0665 9.22845 10.2648 8.83178L12.8198 3.59345C12.8805 3.47678 12.9586 3.36945 13.0531 3.27845L13.1581 3.19678C13.213 3.13612 13.276 3.08595 13.346 3.04512L13.4731 2.99845L13.6715 2.91678H14.1626C14.6013 2.96228 14.9875 3.22478 15.1893 3.61678L17.7781 8.83178C17.9648 9.21328 18.3276 9.47811 18.7465 9.54228L24.5448 10.3834C25.0348 10.4534 25.4443 10.7918 25.6065 11.2584C25.7593 11.7263 25.6275 12.2396 25.2681 12.5768L20.9048 16.7068Z" fill="#FF9385"/>
</g>
</g>
</svg>
