<svg width="28" height="28" viewBox="0 0 28 28" fill="none" xmlns="http://www.w3.org/2000/svg">
<g id="Iconly/Bold/Logout">
<g id="Logout">
<path id="Logout_2" fill-rule="evenodd" clip-rule="evenodd" d="M11.5445 13.1017C11.0341 13.1017 10.6305 13.4983 10.6305 14C10.6305 14.49 11.0341 14.8983 11.5445 14.8983H18.6666V20.475C18.6666 23.3333 16.3044 25.6667 13.3844 25.6667H7.6036C4.69541 25.6667 2.33325 23.345 2.33325 20.4867V7.52499C2.33325 4.65499 4.70728 2.33333 7.61547 2.33333H13.4081C16.3044 2.33333 18.6666 4.65499 18.6666 7.51333V13.1017H11.5445ZM22.9018 9.96356L26.3084 13.3586C26.4834 13.5336 26.5768 13.7552 26.5768 14.0002C26.5768 14.2336 26.4834 14.4669 26.3084 14.6302L22.9018 18.0252C22.7268 18.2002 22.4934 18.2936 22.2718 18.2936C22.0384 18.2936 21.8051 18.2002 21.6301 18.0252C21.2801 17.6752 21.2801 17.1036 21.6301 16.7536L23.4968 14.8986H18.6668V13.1019H23.4968L21.6301 11.2469C21.2801 10.8969 21.2801 10.3252 21.6301 9.97523C21.9801 9.61356 22.5518 9.61356 22.9018 9.96356Z" fill="#FF9385"/>
</g>
</g>
</svg>
