<svg width="28" height="28" xmlns="http://www.w3.org/2000/svg" fill="none">

 <g>
  <title>Layer 1</title>
  <circle id="svg_1" stroke-width="2" stroke="white" fill="#FF9385" r="13" cy="14" cx="14"/>
  <g>
   <path fill="white" d="m8.47901,16.44928l11.0324,0l-0.0319,0.31992c-0.0986,0.78944 -0.6599,1.25039 -1.2304,1.25039l-8.50784,0c-0.64468,0 -1.14931,-0.55502 -1.22968,-1.24453c-0.00089,-0.00717 0.00354,0.03656 -0.03258,-0.32578z"/>
   <path fill="white" d="m19.99241,11.62817l-0.4108,4.11798l-11.17253,0l-0.4012,-4.03055c-0.10739,-0.94517 0.91207,-1.38202 1.38272,-0.84118c1.13233,1.30566 1.25355,1.5634 1.63394,1.51805c0.14297,-0.01739 0.24514,-0.08144 0.32998,-0.15961c2.30539,-2.2118 2.15461,-2.06857 2.17836,-2.08735c0.31026,-0.23868 0.70929,-0.19931 0.94305,-0.00468c2.32943,1.95736 2.2215,1.87116 2.27351,1.90078c0.2175,0.12499 0.474,0.10908 0.69324,-0.10594c1.29453,-1.272 1.21243,-1.19273 1.23643,-1.21195c0.5922,-0.46106 1.4081,0.07472 1.3133,0.90445z"/>
  </g>
 </g>
</svg>