<svg width="28" height="28" viewBox="0 0 28 28" fill="none" xmlns="http://www.w3.org/2000/svg">
<g id="Iconly/Bold/Paper">
<g id="Paper">
<path id="Paper_2" fill-rule="evenodd" clip-rule="evenodd" d="M10.4133 19.1217H16.6971C17.1707 19.1217 17.5634 18.725 17.5634 18.2467C17.5634 17.7683 17.1707 17.3833 16.6971 17.3833H10.4133C9.93967 17.3833 9.54693 17.7683 9.54693 18.2467C9.54693 18.725 9.93967 19.1217 10.4133 19.1217ZM14.3176 11.55H10.4133C9.93967 11.55 9.54693 11.9467 9.54693 12.425C9.54693 12.9033 9.93967 13.2883 10.4133 13.2883H14.3176C14.7912 13.2883 15.1839 12.9033 15.1839 12.425C15.1839 11.9467 14.7912 11.55 14.3176 11.55ZM22.561 10.5299C22.8325 10.5267 23.1282 10.5233 23.3968 10.5233C23.6856 10.5233 23.9166 10.7567 23.9166 11.0483V20.4283C23.9166 23.3217 21.5948 25.6667 18.7301 25.6667H9.5354C6.5321 25.6667 4.08325 23.205 4.08325 20.1717V7.595C4.08325 4.70167 6.41658 2.33334 9.29282 2.33334H15.4611C15.7615 2.33334 15.9925 2.57834 15.9925 2.87V6.62667C15.9925 8.76167 17.7367 10.5117 19.8506 10.5233C20.3443 10.5233 20.7796 10.527 21.1606 10.5303C21.4569 10.5328 21.7204 10.535 21.9529 10.535C22.1173 10.535 22.3305 10.5325 22.561 10.5299ZM22.8796 8.827C21.9301 8.8305 20.8108 8.827 20.0056 8.81884C18.7281 8.81884 17.6758 7.756 17.6758 6.46567V3.39033C17.6758 2.8875 18.2799 2.63783 18.6253 3.00067C19.2502 3.65689 20.1087 4.55882 20.9635 5.45673C21.8169 6.35314 22.6664 7.24554 23.2758 7.8855C23.6131 8.239 23.3659 8.82584 22.8796 8.827Z" fill="#FF9385"/>
</g>
</g>
</svg>
