<svg width="108" height="96" viewBox="0 0 108 96" fill="none" xmlns="http://www.w3.org/2000/svg">
<path d="M81.0599 43.4112C81.9188 43.4112 82.784 43.2004 83.5851 42.7547C85.2992 41.811 86.2716 40.0374 86.2799 38.2119C86.2861 37.3447 86.0754 36.4671 85.6293 35.6618L66.6567 2.69548C65.7109 0.969316 63.9166 0.00276184 62.0749 0.00276184C61.2201 0.00276184 60.3591 0.207285 59.5576 0.647131C57.8356 1.60538 56.867 3.37065 56.8524 5.20444C56.8524 6.0696 57.0632 6.94929 57.5089 7.75042L76.4856 40.7188C77.4383 42.4384 79.2244 43.4112 81.0599 43.4112Z" fill="#E8E8E8"/>
<path d="M24.3064 42.7523C25.1137 43.2005 25.9747 43.4088 26.8278 43.4088C28.6716 43.4088 30.458 42.4363 31.4097 40.7161L50.3822 7.74766C50.8283 6.94445 51.0408 6.06683 51.0408 5.20168C51.0242 3.36789 50.0559 1.60262 48.3356 0.644369C47.5345 0.204523 46.6672 0 45.8104 0C43.9645 0 42.1802 0.966208 41.2344 2.69272L22.2577 35.657C21.8116 36.4643 21.6029 37.3399 21.6091 38.2071C21.624 40.0371 22.5944 41.8089 24.3064 42.7523Z" fill="#E8E8E8"/>
<path d="M102.682 36.0373H90.817C91.7379 40.2641 89.892 44.776 85.9088 46.9812C84.4221 47.7948 82.7496 48.2284 81.0604 48.2284C77.414 48.2284 74.0461 46.2461 72.2742 43.0412C72.3113 43.1198 68.2395 36.0369 68.2395 36.0369H39.6571L35.6141 43.0658C33.8176 46.2624 30.4684 48.2259 26.8279 48.2259C25.1449 48.2259 23.4641 47.7923 21.9857 46.9787C19.638 45.6779 17.9323 43.5385 17.189 40.9655C16.7204 39.33 16.7204 37.6451 17.0754 36.0345H5.24493C2.356 36.0352 0 38.3791 0 41.2801C0 44.167 2.356 46.5188 5.24493 46.5188H6.92991C6.96279 46.7604 6.98148 46.9957 7.05173 47.2414L17.4136 86.196C18.287 89.4791 21.7829 92.1656 25.1775 92.1656H26.9843C26.9843 92.1656 26.9843 93.0224 26.9843 94.0817C26.9843 95.1431 28.0889 96 29.4496 96H43.3195C44.6823 96 45.7848 95.1431 45.7848 94.0817V92.1656H63.6628C63.6628 92.1656 63.6628 93.0224 63.6628 94.0817C63.6628 95.1431 64.7674 96 66.1282 96H79.998C81.3608 96 82.4634 95.1431 82.4634 94.0817V92.1656H82.7503C86.1451 92.1656 89.6428 89.4791 90.5204 86.196L100.882 47.2414C100.944 46.9978 100.971 46.7604 100.998 46.5188H102.677C105.582 46.5188 107.926 44.167 107.926 41.2801C107.931 38.3811 105.587 36.0373 102.682 36.0373ZM32.0001 81.4798C32.0001 83.1195 30.666 84.4532 29.0267 84.4532C27.3788 84.4532 26.0471 83.1191 26.0471 81.4798V58.8691C26.0471 57.2232 27.3791 55.8957 29.0267 55.8957C30.6664 55.8957 32.0001 57.2236 32.0001 58.8691V81.4798ZM48.6309 81.4798C48.6309 83.1195 47.2968 84.4532 45.6513 84.4532C44.0095 84.4532 42.6779 83.1191 42.6779 81.4798V58.8691C42.6779 57.2232 44.012 55.8957 45.6513 55.8957C47.2992 55.8957 48.6309 57.2236 48.6309 58.8691V81.4798ZM65.2616 81.4798C65.2616 83.1195 63.9276 84.4532 62.2841 84.4532C60.6361 84.4532 59.3045 83.1191 59.3045 81.4798V58.8691C59.3045 57.2232 60.6386 55.8957 62.2841 55.8957C63.9279 55.8957 65.2616 57.2236 65.2616 58.8691V81.4798ZM81.8924 81.4798C81.8924 83.1195 80.5562 84.4532 78.9128 84.4532C77.271 84.4532 75.9352 83.1191 75.9352 81.4798V58.8691C75.9352 57.2232 77.2714 55.8957 78.9128 55.8957C80.5566 55.8957 81.8924 57.2236 81.8924 58.8691V81.4798Z" fill="#E8E8E8"/>
</svg>
