<svg width="247" height="261" viewBox="0 0 247 261" fill="none" xmlns="http://www.w3.org/2000/svg">
<path d="M30.9055 42.1252H16.0183V48.4363H30.9055V42.1252Z" fill="#EBEBEB"/>
<path d="M22.6018 34.1671H7.7146V40.4783H22.6018V34.1671Z" fill="#EBEBEB"/>
<path d="M39.2092 34.1671H24.322V40.4783H39.2092V34.1671Z" fill="#EBEBEB"/>
<path d="M231.084 34.1671H216.197V40.4783H231.084V34.1671Z" fill="#EBEBEB"/>
<path d="M231.084 204.467H216.197V210.778H231.084V204.467Z" fill="#EBEBEB"/>
<path d="M239.388 196.509H224.5V202.82H239.388V196.509Z" fill="#EBEBEB"/>
<path d="M22.6018 204.461H7.7146V210.772H22.6018V204.461Z" fill="#EBEBEB"/>
<path d="M48.733 135.681H63.6201V129.37H48.733V135.681Z" fill="#EBEBEB"/>
<path d="M57.0367 143.64H71.9238V137.328H57.0367V143.64Z" fill="#EBEBEB"/>
<path d="M30.4783 0H29.8149V61.5606H30.4783V0Z" fill="#C7C7C7"/>
<path d="M49.5032 80.2798L47.9458 83.7145H12.3415L10.7898 80.2798L25.9468 69.7555H34.3461L49.5032 80.2798Z" fill="#EBEBEB"/>
<path d="M35.3975 59.6148L34.3462 69.7555H25.9468L24.8955 59.6148H35.3975Z" fill="#DBDBDB"/>
<path d="M49.5032 80.2854L47.9458 83.7145H12.3415L10.7898 80.2854H49.5032Z" fill="#DBDBDB"/>
<path d="M77.293 0H76.6296V50.4836H77.293V0Z" fill="#C7C7C7"/>
<path d="M96.3178 69.2028L94.7605 72.6375H59.1562L57.6045 69.2028L72.7615 58.6786H81.1608L96.3178 69.2028Z" fill="#EBEBEB"/>
<path d="M82.2122 48.5378L81.1608 58.6786H72.7615L71.7102 48.5378H82.2122Z" fill="#DBDBDB"/>
<path d="M96.3178 69.2084L94.7605 72.6376H59.1562L57.6045 69.2084H96.3178Z" fill="#DBDBDB"/>
<path d="M222.522 44.2965H185.984V80.9509H222.522V44.2965Z" fill="white"/>
<path d="M184.083 42.3903V82.8573H224.422V42.3903H184.083ZM222.499 80.9509H185.956V44.2909H222.499V80.9509Z" fill="#DBDBDB"/>
<path d="M219.896 73.8502V61.1771H191.42V73.8502H219.896Z" fill="#EBEBEB"/>
<path d="M211.547 69.9416V55.3058H196.958V69.9416H211.547Z" fill="#C7C7C7"/>
<path d="M225.979 42.3903H224.422V82.8573H225.979V42.3903Z" fill="#C7C7C7"/>
<path d="M222.522 96.3425H185.984V132.997H222.522V96.3425Z" fill="white"/>
<path d="M201.804 102.208H192.264V129.855H201.804V102.208Z" fill="#C7C7C7"/>
<path d="M184.083 94.4362V134.903H224.422V94.4362H184.083ZM222.499 132.997H185.956V96.3368H222.499V132.997Z" fill="#DBDBDB"/>
<path d="M211.547 107.352H196.958V121.988H211.547V107.352Z" fill="#EBEBEB"/>
<path d="M225.979 94.4362H224.422V134.903H225.979V94.4362Z" fill="#C7C7C7"/>
<path d="M222.522 148.388H185.984V185.043H222.522V148.388Z" fill="white"/>
<path d="M210.086 153.385H190.037V165.41H210.086V153.385Z" fill="#EBEBEB"/>
<path d="M184.083 146.482V186.949H224.422V146.482H184.083ZM222.499 185.043H185.956V148.383H222.499V185.043Z" fill="#DBDBDB"/>
<path d="M211.547 159.398H196.958V174.033H211.547V159.398Z" fill="#C7C7C7"/>
<path d="M225.979 146.482H224.422V186.949H225.979V146.482Z" fill="#C7C7C7"/>
<path d="M167.802 260.139C205.065 260.139 235.272 256.693 235.272 252.441C235.272 248.189 205.065 244.742 167.802 244.742C130.539 244.742 100.332 248.189 100.332 252.441C100.332 256.693 130.539 260.139 167.802 260.139Z" fill="#EBEBEB"/>
<path d="M0.242676 243.648L31.0683 243.513L61.8996 243.462L123.551 243.366L185.202 243.462L216.033 243.507L246.859 243.648L216.033 243.783L185.202 243.834L123.551 243.93L61.8996 243.834L31.0683 243.783L0.242676 243.648Z" fill="#263238"/>
<path d="M135.425 243.648H86.5692C85.0288 227.033 83.4827 210.005 82.2571 196.43C82.2178 195.979 82.1728 195.528 82.1334 195.082C80.7504 179.724 79.8115 169.11 79.8115 169.11H125.912C125.916 169.157 125.916 169.204 125.912 169.251C126.255 171.766 130.95 208.471 135.425 243.648Z" fill="#37474F"/>
<path d="M93.9736 243.648H93.1921C91.0614 225.656 89.3298 207.631 87.7556 189.583C87.6657 188.504 87.572 187.423 87.4745 186.34C87.1597 182.635 86.8448 178.912 86.5413 175.201C86.5413 175.088 86.7043 175.088 86.7212 175.201C87.066 178.491 87.3996 181.773 87.7219 185.048C87.7245 185.058 87.7245 185.067 87.7219 185.077C87.8343 186.272 87.958 187.462 88.0761 188.664C89.3298 201.117 90.5723 213.559 91.9328 225.995C92.5812 231.887 93.2615 237.771 93.9736 243.648Z" fill="#263238"/>
<path d="M119.256 169.11L113.072 210.124L112.852 211.511L112.29 215.206L112.245 215.465L112.099 216.458L107.984 243.648H81.74C79.0471 228.42 76.2923 212.809 74.0097 199.853C73.9591 199.56 73.9085 199.289 73.8579 198.996C70.7827 181.563 68.5845 169.104 68.5845 169.104L119.256 169.11Z" fill="#263238"/>
<path d="M125.957 169.07C125.957 169.07 125.957 169.127 125.929 169.251C125.564 171.642 121.595 197.287 115 214.117C114.955 214.258 114.904 214.388 114.842 214.534C114.842 214.534 113.915 214.822 112.239 215.487C111.587 215.747 110.811 216.051 109.934 216.446L108.979 216.875C107.045 217.743 104.7 218.883 102.024 220.338C101.766 220.473 101.513 220.614 101.26 220.755C101.26 220.755 101.26 220.862 101.26 221.06C101.125 222.825 100.439 231.883 99.573 243.62H53.551C57.0929 206.999 60.9834 169.042 60.9834 169.042L125.957 169.07Z" fill="#37474F"/>
<path d="M66.1331 176.205C64.8232 193.384 63.5695 210.564 62.1977 227.721C61.7704 233.03 61.3319 238.339 60.8822 243.648H60.2075C62.1527 221.171 64.0024 198.693 65.7565 176.216C65.7677 175.968 66.15 175.968 66.1331 176.205Z" fill="#263238"/>
<path d="M117.17 213.327C111.662 215.338 106.339 217.826 101.26 220.761C101.238 220.771 101.218 220.784 101.202 220.802C101.185 220.819 101.173 220.839 101.164 220.861C101.155 220.884 101.151 220.907 101.152 220.931C101.152 220.955 101.157 220.979 101.167 221.001C101.177 221.022 101.19 221.042 101.208 221.059C101.225 221.075 101.245 221.088 101.267 221.097C101.289 221.105 101.313 221.11 101.337 221.109C101.361 221.109 101.384 221.103 101.406 221.094C106.764 218.781 112.228 216.582 117.457 213.97C117.542 213.932 117.608 213.862 117.641 213.774C117.675 213.687 117.672 213.59 117.634 213.505C117.596 213.42 117.526 213.353 117.439 213.32C117.352 213.287 117.255 213.289 117.17 213.327Z" fill="#263238"/>
<path d="M118.874 176.43C118.874 176.244 118.531 176.205 118.536 176.43C118.576 182.815 118.171 188.427 117.637 194.394C117.384 197.163 115.163 212.47 110.379 211.353C109.575 211.167 109.164 210.378 109.041 209.165C108.889 207.71 109.434 205.922 109.676 204.473C110.238 201.263 110.637 198.049 110.907 194.817C111.465 188.79 111.401 182.721 110.716 176.707C110.709 176.671 110.69 176.638 110.662 176.615C110.634 176.591 110.598 176.579 110.561 176.579C110.525 176.579 110.489 176.591 110.461 176.615C110.433 176.638 110.414 176.671 110.407 176.707C110.407 185.071 110.193 193.418 108.945 201.703C108.349 205.685 106.348 211.68 110.502 212.29C114.657 212.899 117.462 202.876 117.98 200.13C119.419 192.459 119.475 184.185 118.874 176.43Z" fill="#263238"/>
<path d="M110.502 211.743C110.077 212.777 109.719 213.838 109.429 214.918C109.119 215.751 108.966 216.635 108.979 217.524C108.986 217.559 109.003 217.592 109.028 217.617C109.053 217.643 109.086 217.661 109.121 217.669C109.156 217.677 109.193 217.674 109.226 217.661C109.26 217.648 109.289 217.626 109.31 217.597C109.811 216.813 110.19 215.957 110.435 215.059C110.8 214.077 111.183 213.102 111.52 212.109C111.528 211.987 111.496 211.865 111.429 211.763C111.362 211.66 111.264 211.582 111.149 211.541C111.034 211.499 110.909 211.497 110.792 211.533C110.675 211.569 110.574 211.643 110.502 211.743Z" fill="#263238"/>
<path d="M88.8405 181.439C88.8495 180.771 88.7816 180.105 88.6381 179.454C88.6328 179.431 88.6202 179.412 88.6023 179.398C88.5845 179.383 88.5624 179.376 88.5397 179.376C88.517 179.376 88.4949 179.383 88.4771 179.398C88.4592 179.412 88.4466 179.431 88.4413 179.454C88.3075 180.008 88.234 180.575 88.2221 181.146C88.1546 181.805 88.0646 182.46 87.9972 183.12C87.8538 184.467 87.619 185.803 87.2944 187.118C86.6903 189.606 85.4278 191.884 83.6401 193.711C81.8622 195.462 79.7618 196.849 77.4559 197.795C74.8866 198.889 72.1768 199.295 69.5232 200.079C69.4107 200.107 69.4444 200.271 69.5232 200.276C72.47 200.269 75.3881 199.694 78.1193 198.584C80.5322 197.674 82.7287 196.268 84.5677 194.456C86.4135 192.587 87.7125 190.246 88.3233 187.688C88.6304 186.372 88.8037 185.029 88.8405 183.678C88.885 182.932 88.885 182.185 88.8405 181.439V181.439Z" fill="#263238"/>
<path d="M106.196 109.98C109.901 118.305 136.87 156.871 158.543 161.53C162.197 162.314 173.537 165.912 180.097 156.51C188.963 143.814 194.619 119.5 193.377 106.534C192.348 95.818 163.141 103.855 161.421 109.957C160.122 114.577 157.812 129.731 156.867 129.489C150.728 127.898 132.439 112.005 114.213 102.219C105.763 97.651 103.345 103.545 106.196 109.98Z" fill="#AD6359"/>
<path d="M155.074 136.076C155.2 135.128 155.375 134.187 155.597 133.256C156.061 131.463 156.69 129.717 157.474 128.039C157.508 127.966 157.643 128.011 157.615 128.096C157.053 129.827 156.642 131.626 156.181 133.392C155.956 134.272 155.743 135.146 155.546 136.031C155.349 136.917 155.102 137.836 154.95 138.75C154.95 138.8 154.849 138.795 154.854 138.75C154.916 137.842 154.95 136.962 155.074 136.076Z" fill="#263238"/>
<path d="M193.512 108.514C193.512 108.514 193.028 94.47 188.008 85.1302C184.539 78.6724 175.426 65.4691 153.618 64.6231C148.445 64.4257 140.929 67.821 149.261 71.2219C155.181 73.6415 159.661 73.3821 162.849 75.4181C162.849 75.4181 153.803 80.8776 153.803 86.0833C153.803 88.4127 153.46 93.4548 154.281 98.3842C154.281 98.3842 155.895 99.7998 157.328 99.7378C157.328 99.7378 157.486 104.611 162.95 109.642L193.512 108.514Z" fill="#AD6359"/>
<path d="M126.924 79.2138C124.271 81.0073 122.82 85.243 124.957 89.2699C127.093 93.2969 132.501 92.7837 135.076 91.0183C137.651 89.253 139.827 84.8482 137.629 81.0919C135.768 77.832 131.596 76.0723 126.924 79.2138Z" fill="#FF8473"/>
<path opacity="0.1" d="M126.924 79.2138C124.271 81.0073 122.82 85.243 124.957 89.2699C127.093 93.2969 132.501 92.7837 135.076 91.0183C137.651 89.253 139.827 84.8482 137.629 81.0919C135.768 77.832 131.596 76.0723 126.924 79.2138Z" fill="black"/>
<path d="M127.734 80.2685C125.569 81.7293 124.389 85.1922 126.131 88.4803C127.874 91.7685 132.316 91.3511 134.407 89.9073C136.498 88.4634 138.292 84.8707 136.498 81.7969C134.947 79.1349 131.54 77.7023 127.734 80.2685Z" fill="#FF8473"/>
<path d="M132.265 82.0959C132.456 82.2481 133.142 81.6729 132.765 81.4021C132.389 81.1314 132.018 81.9041 132.265 82.0959Z" fill="white"/>
<path d="M133.868 85.869C133.772 86.089 134.497 86.6135 134.666 86.1792C134.834 85.7449 133.997 85.5757 133.868 85.869Z" fill="white"/>
<path d="M135.475 84.4026C135.515 84.6395 136.409 84.679 136.313 84.2221C136.218 83.7653 135.425 84.0868 135.475 84.4026Z" fill="white"/>
<path d="M132.22 80.4433C132.456 80.4039 132.501 79.5127 132.046 79.603C131.591 79.6932 131.905 80.4941 132.22 80.4433Z" fill="white"/>
<path d="M127.942 83.5679C128.004 83.3367 127.205 82.9306 127.104 83.3874C127.003 83.8443 127.858 83.8781 127.942 83.5679Z" fill="white"/>
<path d="M129.853 88.548C129.656 88.407 128.999 89.0105 129.387 89.2643C129.775 89.5181 130.112 88.7398 129.853 88.548Z" fill="white"/>
<path d="M131.422 88.2491C131.186 88.2096 130.86 89.0443 131.321 89.1007C131.782 89.1571 131.737 88.2999 131.422 88.2491Z" fill="white"/>
<path d="M129.775 84.7185C129.943 84.5493 129.449 83.7991 129.139 84.1545C128.83 84.5098 129.55 84.9441 129.775 84.7185Z" fill="white"/>
<path d="M124.962 85.3389C124.962 85.3389 129.319 84.8538 129.893 85.7393C130.466 86.6248 127.368 90.5164 126.857 90.1723C126.345 89.8283 124.49 86.8165 124.962 85.3389Z" fill="#FF8473"/>
<path opacity="0.1" d="M124.962 85.3389C124.962 85.3389 129.319 84.8538 129.893 85.7393C130.466 86.6248 127.368 90.5164 126.857 90.1723C126.345 89.8283 124.49 86.8165 124.962 85.3389Z" fill="black"/>
<path d="M132.411 91.1368C132.411 91.1368 131.124 86.9293 131.889 86.2018C132.653 85.4742 137.033 87.7979 136.797 88.3675C136.56 88.9372 133.946 91.3229 132.411 91.1368Z" fill="#FF8473"/>
<path opacity="0.1" d="M132.411 91.1368C132.411 91.1368 131.124 86.9293 131.889 86.2018C132.653 85.4742 137.033 87.7979 136.797 88.3675C136.56 88.9372 133.946 91.3229 132.411 91.1368Z" fill="black"/>
<path d="M137.96 83.3874C137.96 83.3874 133.699 84.4252 133.019 83.6186C132.338 82.8121 134.913 78.5426 135.464 78.8359C136.015 79.1292 138.236 81.859 137.96 83.3874Z" fill="#FF8473"/>
<path opacity="0.1" d="M137.96 83.3874C137.96 83.3874 133.699 84.4252 133.019 83.6186C132.338 82.8121 134.913 78.5426 135.464 78.8359C136.015 79.1292 138.236 81.859 137.96 83.3874Z" fill="black"/>
<path d="M130.736 78.2719C130.736 78.2719 131.776 82.5471 130.972 83.2295C130.168 83.9119 125.912 81.3288 126.199 80.7761C126.486 80.2234 129.218 77.9899 130.736 78.2719Z" fill="#FF8473"/>
<path opacity="0.1" d="M130.736 78.2719C130.736 78.2719 131.776 82.5471 130.972 83.2295C130.168 83.9119 125.912 81.3288 126.199 80.7761C126.486 80.2234 129.218 77.9899 130.736 78.2719Z" fill="black"/>
<path d="M139.692 85.4404C137.64 86.2243 127.818 88.1871 127.818 88.1871L128.009 87.7189L138.539 84.4308C138.615 84.4016 138.677 84.3445 138.713 84.2712C138.748 84.198 138.754 84.1139 138.73 84.036C138.718 83.9951 138.698 83.9571 138.671 83.9242C138.644 83.8914 138.61 83.8644 138.573 83.8449C138.535 83.8254 138.493 83.8138 138.451 83.8108C138.408 83.8078 138.366 83.8134 138.326 83.8273L128.482 86.5345L128.791 85.7844L139.563 82.2538C139.608 82.2456 139.651 82.2278 139.689 82.2016C139.727 82.1755 139.76 82.1415 139.784 82.1019C139.808 82.0623 139.823 82.0181 139.829 81.9721C139.834 81.9261 139.83 81.8795 139.817 81.8352C139.803 81.7909 139.78 81.7501 139.749 81.7154C139.719 81.6806 139.681 81.6528 139.639 81.6337C139.597 81.6146 139.552 81.6047 139.505 81.6047C139.459 81.6046 139.414 81.6144 139.371 81.6334L129.291 84.5775L129.589 83.8612L140.608 80.0598C140.65 80.0483 140.688 80.0284 140.721 80.0015C140.755 79.9745 140.782 79.941 140.802 79.903C140.822 79.8649 140.834 79.8232 140.838 79.7804C140.841 79.7375 140.836 79.6944 140.822 79.6537C140.81 79.613 140.791 79.5751 140.764 79.5423C140.738 79.5095 140.705 79.4825 140.667 79.463C140.63 79.4434 140.589 79.4317 140.547 79.4287C140.505 79.4256 140.463 79.4312 140.423 79.4451L130.078 82.6655L130.331 82.0564C130.331 82.0564 140.698 78.0407 141.924 77.8038C144.133 77.3695 142.801 84.256 139.692 85.4404Z" fill="#455A64"/>
<path d="M141.975 79.744C143.414 79.0841 149.323 76.4728 150.02 76.202C150.829 75.8862 179.462 64.7134 180.604 64.6795C181.745 64.6457 181.228 68.5768 180.57 69.4059C179.912 70.2349 152.786 77.7305 150.053 78.8134C147.192 79.9414 141.812 82.1974 141.812 82.1974L141.975 79.744Z" fill="#455A64"/>
<path d="M186.439 84.4026C183.33 82.1466 176.651 77.5162 169.871 75.6211C162.343 73.5174 147.276 71.5039 145.786 77.0932C144.69 81.1934 150.38 82.4737 150.38 82.4737C150.38 82.4737 143.976 82.9531 143.796 86.8729C143.633 90.4487 148.086 91.1706 148.086 91.1706C148.086 91.1706 144.251 92.135 144.757 95.6093C145.365 99.7829 153.297 97.0757 157.553 100.776C158.509 101.605 186.439 84.4026 186.439 84.4026Z" fill="#AD6359"/>
<path d="M168.983 83.974C165.716 82.344 157.334 80.5561 150.492 82.344C150.334 82.3835 150.284 82.5245 150.43 82.5189C156.653 82.2645 162.883 82.7721 168.983 84.0304C169.005 84.036 169.022 83.9909 168.983 83.974Z" fill="#263238"/>
<path d="M166.65 91.5372C163.681 90.4092 154.961 88.9654 148.097 91.0296C147.94 91.0747 147.9 91.2157 148.046 91.2045C154.239 90.6323 160.476 90.7667 166.638 91.6049C166.672 91.6162 166.683 91.5485 166.65 91.5372Z" fill="#263238"/>
<path d="M124.788 137.96L153.348 122.67C153.348 122.67 125.041 105.366 111.981 100.392C98.37 95.1863 93.2203 99.0159 105.476 113.962C117.547 128.66 124.788 137.96 124.788 137.96Z" fill="#FF8473"/>
<path d="M151.003 121.26C150.457 121.406 149.923 121.594 149.407 121.824C148.64 122.157 147.923 122.595 147.276 123.127C148.102 123.003 148.906 122.764 149.665 122.416C150.26 122.16 150.825 121.84 151.352 121.463C151.234 121.407 151.099 121.333 151.003 121.26ZM120.914 125.529C120.147 125.858 119.431 126.297 118.789 126.832C119.613 126.707 120.416 126.466 121.173 126.116C121.942 125.79 122.66 125.353 123.304 124.819C122.477 124.937 121.672 125.176 120.914 125.529V125.529ZM134.441 128.101C134.113 127.333 133.678 126.615 133.148 125.969C133.269 126.798 133.508 127.605 133.856 128.366C134.182 129.135 134.617 129.851 135.149 130.493C135.03 129.665 134.791 128.86 134.441 128.101V128.101ZM110.058 115.761C109.726 114.995 109.289 114.279 108.76 113.635C108.883 114.462 109.124 115.267 109.474 116.026C109.798 116.797 110.233 117.515 110.767 118.158C110.645 117.329 110.407 116.522 110.058 115.761V115.761ZM103.312 104.007C102.537 103.704 101.723 103.514 100.894 103.443C101.563 103.942 102.3 104.343 103.081 104.633C103.857 104.934 104.671 105.124 105.499 105.197C104.83 104.699 104.093 104.298 103.312 104.007V104.007ZM122.95 112.467C122.174 112.154 121.358 111.955 120.526 111.875C121.197 112.376 121.935 112.779 122.719 113.071C123.495 113.371 124.308 113.561 125.137 113.635C124.48 113.136 123.757 112.734 122.989 112.439L122.95 112.467ZM116.006 102.084C115.708 102.833 115.519 103.621 115.444 104.425C115.917 103.791 116.296 103.092 116.569 102.349L116.006 102.084ZM135.47 116.883C135.17 117.661 134.981 118.478 134.908 119.309C135.889 117.95 136.499 116.358 136.679 114.689C136.175 115.354 135.768 116.087 135.47 116.866V116.883Z" fill="white"/>
<path d="M124.113 131.976C124.748 131.536 125.457 131.181 126.126 130.797C126.795 130.414 127.509 130.013 128.2 129.618C129.606 128.823 131.011 128.051 132.439 127.284C135.25 125.755 138.101 124.21 140.962 122.732C141.749 122.32 142.537 121.92 143.335 121.531C144.133 121.142 145.021 120.775 145.876 120.369C145.886 120.368 145.895 120.37 145.903 120.375C145.911 120.38 145.918 120.387 145.922 120.396C145.925 120.405 145.926 120.415 145.924 120.424C145.922 120.433 145.917 120.442 145.91 120.448C145.224 120.848 144.56 121.311 143.875 121.711C143.189 122.112 142.452 122.535 141.738 122.929C140.329 123.708 138.91 124.473 137.482 125.225C134.671 126.714 131.86 128.214 129.049 129.641L126.643 130.848C125.817 131.265 124.996 131.733 124.13 132.072C124.113 132.089 124.046 132.027 124.113 131.976Z" fill="#263238"/>
<path d="M105.476 113.928C117.547 128.654 124.788 137.949 124.788 137.949L133.912 133.065L99.618 98.9876C97.2511 100.809 98.7072 105.677 105.476 113.928Z" fill="#263238"/>
<path d="M131.293 194.151L55.5974 198.945C55.5974 198.945 62.6081 125.772 88.9473 99.2133C92.2025 95.9364 100.023 96.1395 105.251 98.3503C107.123 99.1343 114.202 107.854 116.597 116.398C118.992 124.943 131.478 193.881 131.293 194.151Z" fill="#FF8473"/>
<path d="M81.5206 120.696C80.7529 121.025 80.0356 121.462 79.3899 121.993C80.2181 121.869 81.0234 121.622 81.7793 121.26C82.5485 120.934 83.2663 120.497 83.91 119.963C83.083 120.093 82.2785 120.339 81.5206 120.696V120.696ZM118.879 126.787C118.847 126.808 118.817 126.833 118.789 126.861C118.821 126.864 118.853 126.864 118.885 126.861C118.885 126.861 118.879 126.776 118.879 126.759V126.787ZM99.9384 139.432C99.1703 139.761 98.4529 140.197 97.8077 140.729C98.6334 140.606 99.4377 140.367 100.197 140.019C100.964 139.691 101.679 139.254 102.322 138.721C101.497 138.84 100.694 139.079 99.9384 139.432V139.432ZM91.6178 171.546C90.8513 171.877 90.1357 172.316 89.4927 172.849C90.3194 172.73 91.1244 172.491 91.8821 172.138C92.6479 171.807 93.3634 171.368 94.0072 170.836C93.1811 170.957 92.3765 171.196 91.6178 171.546V171.546ZM72.9189 150.678C72.1543 151.01 71.4392 151.447 70.7938 151.975C71.6205 151.857 72.4255 151.617 73.1832 151.265C73.9489 150.935 74.6643 150.498 75.3083 149.968C74.4807 150.098 73.6761 150.347 72.9189 150.706V150.678ZM60.14 195.42C59.373 195.748 58.6572 196.185 58.0149 196.718C58.8416 196.599 59.6466 196.359 60.4043 196.007C61.1708 195.676 61.8864 195.238 62.5294 194.704C61.7008 194.833 60.8956 195.084 60.14 195.449V195.42ZM93.4 190.564C92.6332 190.892 91.9175 191.329 91.2749 191.862C92.101 191.74 92.9056 191.501 93.6642 191.151C94.4297 190.818 95.145 190.38 95.7894 189.848C94.9603 189.975 94.1549 190.226 93.4 190.593V190.564ZM130.86 191.32C130.328 191.465 129.809 191.653 129.308 191.884C128.544 192.217 127.829 192.653 127.183 193.181C128.009 193.062 128.814 192.822 129.572 192.471C130.042 192.261 130.497 192.018 130.933 191.743C130.899 191.596 130.86 191.455 130.86 191.32ZM113.763 169.285C112.995 169.615 112.277 170.054 111.632 170.587C112.449 170.462 113.243 170.223 113.994 169.877C114.763 169.548 115.48 169.109 116.124 168.574C115.304 168.695 114.505 168.935 113.752 169.285H113.763ZM88.5819 108.452C88.2536 107.682 87.8162 106.964 87.2832 106.32C87.4062 107.146 87.6447 107.951 87.9916 108.711C88.3198 109.482 88.7572 110.202 89.2903 110.849C89.1708 110.019 88.9322 109.212 88.5819 108.452ZM77.2648 194.49C76.9385 193.719 76.503 192.999 75.9717 192.352C76.0912 193.181 76.3298 193.989 76.6801 194.749C77.0076 195.52 77.443 196.24 77.9731 196.887C77.8589 196.057 77.6201 195.248 77.2648 194.49V194.49ZM72.6153 173.537C72.2837 172.77 71.8445 172.054 71.311 171.411C71.4348 172.237 71.6732 173.042 72.0194 173.802C72.3484 174.573 72.7878 175.291 73.3237 175.934C73.1996 175.106 72.9612 174.299 72.6153 173.537V173.537ZM100.624 159.144C100.294 158.375 99.8587 157.656 99.3313 157.006C99.4482 157.836 99.6869 158.644 100.04 159.403C100.365 160.175 100.801 160.895 101.333 161.541C101.21 160.713 100.971 159.906 100.624 159.144ZM88.7281 132.636C88.3986 131.865 87.9613 131.145 87.4294 130.498C87.5463 131.328 87.785 132.136 88.1378 132.895C88.466 133.667 88.9034 134.387 89.4365 135.033C89.3143 134.213 89.0758 133.416 88.7281 132.664V132.636ZM106.567 193.638C106.667 194.333 106.856 195.011 107.129 195.657L107.804 195.612C107.477 194.913 107.061 194.259 106.567 193.666V193.638ZM127.031 176.532C126.701 175.762 126.261 175.044 125.727 174.4C125.854 175.226 126.092 176.03 126.435 176.791C126.766 177.56 127.203 178.278 127.734 178.923C127.615 178.097 127.378 177.291 127.031 176.532V176.532ZM110.058 115.761C109.726 114.995 109.289 114.279 108.759 113.635C108.883 114.462 109.124 115.267 109.473 116.026C109.798 116.797 110.233 117.515 110.766 118.158C110.645 117.329 110.407 116.522 110.058 115.761V115.761ZM103.312 104.007C102.537 103.704 101.723 103.514 100.894 103.443C101.563 103.942 102.3 104.343 103.081 104.633C103.857 104.934 104.67 105.124 105.499 105.197C104.83 104.699 104.093 104.298 103.312 104.007V104.007ZM82.1166 162.46C81.3444 162.144 80.5297 161.944 79.6991 161.868C80.37 162.368 81.1082 162.771 81.8917 163.064C82.6679 163.362 83.4814 163.552 84.3092 163.628C83.6462 163.135 82.9152 162.741 82.1391 162.46H82.1166ZM63.7887 183.486C63.0134 183.174 62.1974 182.974 61.3656 182.894C62.7215 183.879 64.3108 184.492 65.9757 184.671C65.3132 184.176 64.5846 183.777 63.8112 183.486H63.7887ZM115.281 185.178C114.506 184.866 113.69 184.666 112.858 184.586C114.214 185.571 115.803 186.184 117.468 186.363C116.805 185.869 116.076 185.47 115.303 185.178H115.281ZM111.677 153.899C110.903 153.593 110.089 153.403 109.26 153.335C109.928 153.835 110.664 154.236 111.447 154.525C112.222 154.833 113.035 155.032 113.864 155.117C113.206 154.606 112.477 154.196 111.7 153.899H111.677ZM104.796 127.594C104.022 127.287 103.208 127.097 102.378 127.03C103.046 127.529 103.783 127.928 104.565 128.214C105.339 128.527 106.153 128.726 106.983 128.806C106.325 128.297 105.595 127.889 104.818 127.594H104.796ZM74.0771 136.945C73.7724 137.721 73.583 138.538 73.5149 139.37C74.4886 138.005 75.0982 136.413 75.2858 134.745C74.7767 135.414 74.3693 136.156 74.0771 136.945V136.945ZM101.968 179.081C101.663 179.858 101.474 180.675 101.406 181.507C101.905 180.835 102.306 180.097 102.598 179.313C102.894 178.534 103.084 177.718 103.16 176.887C102.662 177.557 102.264 178.296 101.979 179.081H101.968ZM114.932 139.505C114.628 140.286 114.438 141.107 114.37 141.942C115.351 140.579 115.962 138.983 116.141 137.311C115.639 137.982 115.236 138.72 114.944 139.505H114.932ZM83.0948 182.533C82.7901 183.311 82.6007 184.13 82.5326 184.964C83.0283 184.288 83.4276 183.545 83.7189 182.759C84.019 181.981 84.2082 181.164 84.2811 180.333C83.7858 181.006 83.3901 181.747 83.1061 182.533H83.0948ZM62.0571 162.641C61.757 163.421 61.5678 164.239 61.4949 165.072C61.9951 164.4 62.3947 163.659 62.6812 162.872C62.9868 162.096 63.1762 161.279 63.2434 160.447C62.7536 161.121 62.3582 161.859 62.0684 162.641H62.0571ZM88.1322 149.139C87.8249 149.916 87.6354 150.735 87.57 151.569C88.55 150.208 89.1603 148.614 89.3409 146.945C88.8329 147.613 88.4257 148.352 88.1322 149.139V149.139ZM96.048 117.656C95.7517 118.437 95.5626 119.255 95.4858 120.087C95.9855 119.416 96.3868 118.678 96.6777 117.893C96.9771 117.113 97.1664 116.295 97.2399 115.462C96.7442 116.134 96.3449 116.873 96.0536 117.656H96.048Z" fill="white"/>
<path d="M90.0437 101.323C91.8887 105.554 94.8153 109.222 98.5274 111.954C100.34 113.355 102.46 114.298 104.712 114.706C105.896 114.941 107.123 114.817 108.237 114.351C109.271 113.788 110.144 112.969 110.772 111.971C111.503 110.867 112.06 109.657 112.425 108.384C112.853 106.96 113.178 105.507 113.398 104.035C113.395 104.029 113.394 104.021 113.395 104.014C113.396 104.007 113.399 104 113.403 103.994C113.407 103.988 113.413 103.983 113.419 103.98C113.425 103.976 113.433 103.975 113.44 103.975C113.447 103.975 113.454 103.976 113.461 103.98C113.467 103.983 113.473 103.988 113.477 103.994C113.481 104 113.484 104.007 113.484 104.014C113.485 104.021 113.485 104.029 113.482 104.035C113.28 105.429 113.19 106.855 112.88 108.209C112.626 109.432 112.21 110.616 111.644 111.728C111.1 112.797 110.333 113.736 109.395 114.481C108.385 115.225 107.15 115.6 105.898 115.541C103.457 115.427 101.098 114.621 99.0952 113.217C97.1024 111.9 95.3269 110.279 93.833 108.412C92.1376 106.295 90.8074 103.908 89.8976 101.351C89.8939 101.331 89.898 101.311 89.909 101.295C89.9201 101.278 89.9372 101.267 89.9566 101.263C89.976 101.26 89.9961 101.264 90.0124 101.275C90.0288 101.286 90.04 101.303 90.0437 101.323V101.323Z" fill="#263238"/>
<path d="M106.572 112.163C102.142 112.907 95.0866 105.722 92.4836 100.104C92.3093 99.7209 93.1301 95.8349 93.9116 91.0804C94.3726 88.1871 94.8224 84.9553 95.036 81.9774C95.0754 81.3627 113.364 87.7415 113.364 87.7415C113.364 87.7415 111.115 93.8665 110.811 99.061C110.794 99.4715 110.811 99.8828 110.862 100.29C110.865 100.358 110.865 100.426 110.862 100.494C111.076 102.834 110.856 111.435 106.572 112.163Z" fill="#AD6359"/>
<path d="M108.934 100.465C109.572 100.521 110.213 100.521 110.851 100.465C110.851 100.386 110.851 100.319 110.851 100.262C110.796 99.8549 110.781 99.4431 110.806 99.0328C111.115 93.8383 113.347 87.7189 113.347 87.7189C113.347 87.7189 98.5048 82.5358 95.5364 81.9605C95.8793 85.4573 97.9707 99.4953 108.934 100.465Z" fill="#263238"/>
<path d="M92.3826 61.5945C90.4373 68.244 94.1535 87.42 98.9098 91.6105C105.802 97.7299 116.979 98.1924 122.134 89.9185C127.132 81.8872 121.848 57.0373 116.546 53.2134C108.743 47.5621 95.2498 51.7527 92.3826 61.5945Z" fill="#AD6359"/>
<path d="M110.542 73.2298C110.542 73.179 110.457 73.3087 110.468 73.3595C110.75 74.6454 110.862 76.1795 109.783 76.8112C109.749 76.8112 109.783 76.8958 109.783 76.8789C111.182 76.4107 111.019 74.3972 110.542 73.2298Z" fill="#263238"/>
<path d="M109.142 72.1018C107.045 72.3386 107.669 76.5292 109.614 76.3092C111.559 76.0893 110.901 71.9044 109.142 72.1018Z" fill="#263238"/>
<path d="M118.457 71.8649C118.457 71.8141 118.57 71.91 118.575 71.9608C118.727 73.2692 119.138 74.7357 120.358 74.9895C120.397 74.9895 120.403 75.0628 120.358 75.0628C118.896 75.0797 118.396 73.1226 118.457 71.8649Z" fill="#263238"/>
<path d="M119.413 70.3308C121.471 69.8627 122.258 74.025 120.352 74.465C118.446 74.9049 117.687 70.7256 119.413 70.3308Z" fill="#263238"/>
<path d="M107.208 70.4323C107.731 70.1855 108.241 69.9126 108.737 69.6145C109.316 69.4032 109.81 69.0069 110.143 68.4865C110.215 68.3023 110.225 68.0992 110.172 67.9086C110.118 67.718 110.003 67.5504 109.845 67.4318C109.131 66.9694 108.321 67.1837 107.596 67.539C106.855 67.8762 106.267 68.48 105.948 69.231C105.889 69.4047 105.881 69.5918 105.924 69.7701C105.968 69.9485 106.061 70.1106 106.194 70.2371C106.327 70.3636 106.493 70.4493 106.672 70.4839C106.852 70.5185 107.038 70.5006 107.208 70.4323V70.4323Z" fill="#263238"/>
<path d="M120.74 67.979C120.162 67.9496 119.586 67.8893 119.014 67.7985C118.399 67.8173 117.794 67.633 117.294 67.274C117.157 67.1309 117.072 66.9462 117.051 66.7491C117.031 66.5519 117.077 66.3536 117.181 66.1854C117.67 65.4917 118.502 65.3846 119.301 65.441C120.109 65.4794 120.876 65.8146 121.454 66.3828C121.577 66.521 121.657 66.6917 121.685 66.8744C121.713 67.0571 121.687 67.2441 121.612 67.4127C121.537 67.5814 121.414 67.7246 121.259 67.825C121.105 67.9255 120.924 67.9789 120.74 67.979Z" fill="#263238"/>
<path d="M111.182 85.023C111.537 85.2768 111.913 85.6491 112.386 85.6209C112.866 85.5386 113.324 85.3561 113.729 85.0851C113.737 85.0788 113.747 85.0755 113.758 85.0757C113.768 85.0759 113.778 85.0795 113.786 85.0861C113.793 85.0927 113.799 85.1018 113.801 85.1118C113.803 85.1219 113.801 85.1323 113.797 85.1415C113.65 85.4254 113.429 85.6641 113.158 85.832C112.887 85.9998 112.575 86.0906 112.256 86.0946C111.982 86.0652 111.723 85.9545 111.512 85.7768C111.3 85.599 111.147 85.3621 111.07 85.0964C111.031 85.0287 111.126 84.9835 111.182 85.023Z" fill="#263238"/>
<path d="M111.959 80.9284C112.364 81.394 112.86 81.7702 113.418 82.0333C113.975 82.2964 114.581 82.4406 115.197 82.4568C115.734 82.476 116.272 82.4191 116.793 82.2876C116.893 82.2707 116.991 82.2442 117.086 82.2086C117.181 82.2086 117.266 82.1579 117.367 82.124C117.434 82.0996 117.491 82.0539 117.53 81.9938C117.568 81.9337 117.586 81.8625 117.581 81.7913V81.7913C117.575 81.7467 117.564 81.703 117.547 81.6616V81.5488C117.423 80.5448 117.097 79.039 117.097 79.039C117.491 79.163 119.47 79.727 119.346 79.2082C118.446 74.9218 117.446 70.1842 115.641 66.0839C115.632 66.0532 115.611 66.0274 115.583 66.012C115.555 65.9967 115.523 65.9931 115.492 66.0021C115.461 66.0111 115.436 66.0319 115.42 66.0599C115.405 66.0879 115.402 66.1209 115.41 66.1516C116.113 70.3026 117.541 74.307 118.317 78.4637C117.61 78.2565 116.878 78.1483 116.141 78.1422C116.006 78.2042 116.822 81.0412 116.838 81.498C116.842 81.5147 116.842 81.532 116.838 81.5488C115.197 82.0112 113.859 81.6954 112.065 80.8099C111.953 80.7366 111.869 80.8381 111.959 80.9284Z" fill="#263238"/>
<path d="M116.13 81.8703C115.687 82.6673 115.049 83.3372 114.275 83.816C113.845 84.0617 113.35 84.1662 112.858 84.115C111.784 84.0022 111.621 83.0546 111.688 82.2086C111.727 81.761 111.819 81.3197 111.964 80.8945C113.213 81.6577 114.673 81.9997 116.13 81.8703V81.8703Z" fill="#263238"/>
<path d="M114.275 83.8161C113.845 84.0617 113.35 84.1662 112.858 84.115C111.784 84.0022 111.621 83.0547 111.688 82.2087C112.813 82.1579 114.022 82.7445 114.275 83.8161Z" fill="#FF97B8"/>
<path d="M113.994 57.7198C113.453 58.8118 112.644 59.7475 111.642 60.4383C110.641 61.1291 109.48 61.5523 108.27 61.6677C105.87 61.8708 103.183 60.8443 101.794 58.8083C101.755 58.7462 101.659 58.8083 101.698 58.8703C103.183 61.0474 105.634 62.5363 108.31 62.2543C109.584 62.0929 110.794 61.5992 111.819 60.8224C112.844 60.0455 113.648 59.0127 114.151 57.8269C114.185 57.6916 114.039 57.6182 113.994 57.7198Z" fill="#263238"/>
<path d="M103.677 44.415C100.613 44.3022 97.7685 46.4285 96.6103 49.2034C95.9519 50.8657 95.7274 52.6692 95.9582 54.4429C95.9582 54.4579 95.9641 54.4723 95.9747 54.4828C95.9852 54.4934 95.9995 54.4993 96.0144 54.4993C96.0293 54.4993 96.0436 54.4934 96.0542 54.4828C96.0647 54.4723 96.0706 54.4579 96.0706 54.4429C95.9357 51.6229 97.0039 48.442 99.2527 46.6146C100.262 45.7324 101.52 45.1877 102.852 45.0562C104.184 44.9248 105.524 45.2133 106.685 45.8814C107.972 46.6322 108.964 47.8026 109.496 49.1977C109.51 49.2255 109.534 49.2471 109.563 49.2587C109.592 49.2703 109.624 49.271 109.654 49.2607C109.683 49.2504 109.708 49.2298 109.723 49.2027C109.739 49.1756 109.744 49.1438 109.738 49.1131C109.334 47.7989 108.534 46.6421 107.449 45.801C106.364 44.96 105.047 44.4759 103.677 44.415V44.415Z" fill="#263238"/>
<path d="M126.924 46.0845C125.838 44.3659 124.181 43.0875 122.247 42.4749C119.565 41.6176 116.99 42.4749 114.449 43.4055C114.382 43.4055 114.421 43.5352 114.488 43.5126C116.653 42.7399 118.89 42.0801 121.196 42.6159C123.092 43.0554 124.778 44.1394 125.969 45.684C127.149 47.2819 127.715 49.2533 127.563 51.2362C127.412 53.2192 126.552 55.0807 125.142 56.479C124.309 57.2619 123.325 57.8658 122.251 58.2537C121.177 58.6417 120.035 58.8054 118.896 58.735C118.806 58.735 118.772 58.8647 118.868 58.8703C120.425 59.0256 121.994 58.7432 123.401 58.0547C124.807 57.3663 125.994 56.2989 126.83 54.9721C127.666 53.6453 128.118 52.1113 128.134 50.5417C128.151 48.9721 127.732 47.4288 126.924 46.0845Z" fill="#263238"/>
<path d="M91.9946 63.3034C91.9946 63.3034 91.0277 57.6183 92.0846 55.5653C93.1415 53.5123 96.2505 52.3731 96.2505 52.3731C96.2505 52.3731 97.032 47.1843 101.473 45.825C105.459 44.6068 109.029 47.5565 109.029 47.5565C109.029 47.5565 113.347 40.6644 120.493 42.3564C127.273 43.9525 128.645 53.4334 123.439 57.7705C119.784 60.8161 113.246 58.515 113.246 58.515C112.723 58.7237 107.989 63.4387 102.564 59.502C102.564 59.502 99.4607 63.3598 96.7902 61.758C96.8071 61.7806 94.2097 63.8505 91.9946 63.3034Z" fill="#263238"/>
<path opacity="0.2" d="M95.0978 56.5749C95.5532 59.4907 96.7844 67.8097 96.1379 69.8458C95.4914 71.8818 94.0971 77.1327 93.1695 77.6967C91.8595 71.4927 91.3985 64.9559 92.3824 61.5945C92.926 59.7485 93.8512 58.0381 95.0978 56.5749V56.5749Z" fill="#263238"/>
<path d="M95.778 76.986C95.778 76.986 91.2804 70.9286 88.5087 72.5586C85.7371 74.1886 89.2846 83.0772 92.6184 84.1996C93.0352 84.3741 93.4829 84.462 93.9344 84.458C94.386 84.454 94.8321 84.3581 95.2457 84.1762C95.6593 83.9944 96.0318 83.7302 96.3407 83.3998C96.6496 83.0693 96.8885 82.6795 97.043 82.2538L95.778 76.986Z" fill="#AD6359"/>
<path d="M89.5826 75.0797C89.5706 75.0797 89.5592 75.0845 89.5508 75.0929C89.5423 75.1014 89.5376 75.1129 89.5376 75.1248C89.5376 75.1368 89.5423 75.1483 89.5508 75.1567C89.5592 75.1652 89.5706 75.17 89.5826 75.17C91.9157 76.0329 93.2032 78.1422 94.1196 80.3418C93.4112 79.5071 92.4611 79.0672 91.3423 79.9245C91.2804 79.9696 91.3423 80.0598 91.4097 80.0429C91.8112 79.901 92.2467 79.8872 92.6563 80.0033C93.066 80.1194 93.4298 80.3598 93.6979 80.6915C94.1347 81.2519 94.5116 81.8569 94.8223 82.4963C94.9347 82.6994 95.3058 82.5809 95.2215 82.344C95.2205 82.3252 95.2205 82.3064 95.2215 82.2876C95.1709 79.3379 92.7534 75.2771 89.5826 75.0797Z" fill="#263238"/>
<path d="M143.408 143.374C140.412 143.938 141.21 139.962 138.433 139.703C135.655 139.443 134.823 142.523 133.114 142.083C131.405 141.643 132.631 138.569 129.229 138.541C125.828 138.513 125.052 143.211 122.995 144.294C120.937 145.377 116.512 143.538 115.984 147.3C115.455 151.062 123.051 152.314 128.504 154.948C133.958 157.582 139.855 161.586 144.774 161.304C150.048 160.971 152.342 157.525 156.378 156.978C160.415 156.431 169.691 158.935 173.644 155.388C177.596 151.84 183.977 148.981 184.072 145.134C184.168 141.288 179.131 142.98 177.517 142.794C175.904 142.607 176.055 138.36 172.952 137.768C169.849 137.176 169.084 139.105 166.385 139.297C163.687 139.488 162.529 134.221 158.745 135.168C154.961 136.116 155.934 138.259 154.298 139.195C152.662 140.131 149.48 138.005 147.271 138.981C145.061 139.957 146.079 142.895 143.408 143.374Z" fill="#455A64"/>
<path d="M155.636 145.895C158.762 146.048 157.446 142.224 160.246 141.609C163.046 140.994 164.283 143.95 165.975 143.301C167.667 142.653 166.02 139.759 169.483 139.291C172.946 138.823 174.335 143.397 176.573 144.203C178.81 145.01 183.089 142.624 184.112 146.29C185.135 149.956 177.534 152.167 172.305 155.478C167.077 158.789 161.573 163.515 156.513 163.836C151.094 164.18 148.311 161.05 144.145 161.016C139.979 160.983 130.809 164.66 126.328 161.642C121.848 158.625 114.983 156.612 114.393 152.81C113.803 149.009 119.16 150.035 120.779 149.646C122.399 149.257 121.713 145.061 124.799 144.079C127.886 143.098 128.915 144.909 131.692 144.756C134.469 144.604 134.981 139.24 138.961 139.68C142.942 140.12 142.211 142.387 144.021 143.104C145.831 143.82 148.788 141.31 151.161 141.976C153.533 142.641 152.853 145.76 155.636 145.895Z" fill="#37474F"/>
<path d="M121.353 145.709C118.699 147.503 117.249 151.739 119.385 155.766C121.521 159.793 126.93 159.279 129.505 157.514C132.08 155.749 134.255 151.344 132.057 147.588C130.174 144.328 126.002 142.568 121.353 145.709Z" fill="#FF8473"/>
<path opacity="0.1" d="M121.353 145.709C118.699 147.503 117.249 151.739 119.385 155.766C121.521 159.793 126.93 159.279 129.505 157.514C132.08 155.749 134.255 151.344 132.057 147.588C130.174 144.328 126.002 142.568 121.353 145.709Z" fill="black"/>
<path d="M122.14 146.764C119.975 148.225 118.767 151.688 120.538 154.976C122.308 158.264 126.722 157.847 128.813 156.403C130.905 154.959 132.698 151.366 130.905 148.293C129.353 145.63 125.946 144.198 122.14 146.764Z" fill="#FF8473"/>
<path d="M126.671 148.591C126.862 148.744 127.548 148.168 127.172 147.898C126.795 147.627 126.424 148.4 126.671 148.591Z" fill="white"/>
<path d="M128.274 152.365C128.178 152.585 128.903 153.109 129.072 152.675C129.241 152.241 128.403 152.071 128.274 152.365Z" fill="white"/>
<path d="M129.881 150.898C129.921 151.135 130.815 151.175 130.719 150.718C130.624 150.261 129.831 150.588 129.881 150.898Z" fill="white"/>
<path d="M126.626 146.939C126.862 146.899 126.907 146.008 126.452 146.099C125.997 146.189 126.311 146.99 126.626 146.939Z" fill="white"/>
<path d="M122.348 150.063C122.41 149.832 121.611 149.426 121.51 149.883C121.409 150.34 122.264 150.374 122.348 150.063Z" fill="white"/>
<path d="M124.259 155.049C124.063 154.908 123.405 155.512 123.793 155.766C124.181 156.019 124.518 155.235 124.259 155.049Z" fill="white"/>
<path d="M125.828 154.745C125.592 154.705 125.266 155.54 125.727 155.596C126.188 155.653 126.143 154.795 125.828 154.745Z" fill="white"/>
<path d="M124.181 151.214C124.349 151.045 123.855 150.295 123.545 150.65C123.236 151.005 123.956 151.44 124.181 151.214Z" fill="white"/>
<path d="M119.368 151.834C119.368 151.834 123.725 151.349 124.299 152.235C124.872 153.12 121.774 157.012 121.263 156.668C120.751 156.324 118.896 153.312 119.368 151.834Z" fill="#FF8473"/>
<path opacity="0.1" d="M119.368 151.834C119.368 151.834 123.725 151.349 124.299 152.235C124.872 153.12 121.774 157.012 121.263 156.668C120.751 156.324 118.896 153.312 119.368 151.834Z" fill="black"/>
<path d="M126.817 157.632C126.817 157.632 125.53 153.425 126.295 152.697C127.059 151.97 131.439 154.293 131.203 154.863C130.966 155.433 128.352 157.818 126.817 157.632Z" fill="#FF8473"/>
<path opacity="0.1" d="M126.817 157.632C126.817 157.632 125.53 153.425 126.295 152.697C127.059 151.97 131.439 154.293 131.203 154.863C130.966 155.433 128.352 157.818 126.817 157.632Z" fill="black"/>
<path d="M132.366 149.883C132.366 149.883 128.105 150.921 127.425 150.114C126.744 149.308 129.319 145.038 129.87 145.332C130.421 145.625 132.642 148.332 132.366 149.883Z" fill="#FF8473"/>
<path opacity="0.1" d="M132.366 149.883C132.366 149.883 128.105 150.921 127.425 150.114C126.744 149.308 129.319 145.038 129.87 145.332C130.421 145.625 132.642 148.332 132.366 149.883Z" fill="black"/>
<path d="M125.142 144.768C125.142 144.768 126.182 149.043 125.378 149.725C124.574 150.408 120.318 147.824 120.605 147.272C120.892 146.719 123.624 144.486 125.142 144.768Z" fill="#FF8473"/>
<path opacity="0.1" d="M125.142 144.768C125.142 144.768 126.182 149.043 125.378 149.725C124.574 150.408 120.318 147.824 120.605 147.272C120.892 146.719 123.624 144.486 125.142 144.768Z" fill="black"/>
<path d="M144.229 135.777C141.103 135.089 137.05 136.962 135.622 141.293C134.194 145.625 138.298 149.189 141.362 149.855C144.426 150.52 149.086 149.043 150.284 144.852C151.318 141.226 149.705 136.984 144.229 135.777Z" fill="#FF8473"/>
<path opacity="0.1" d="M144.229 135.777C141.103 135.089 137.05 136.962 135.622 141.293C134.194 145.625 138.298 149.189 141.362 149.855C144.426 150.52 149.086 149.043 150.284 144.852C151.318 141.226 149.705 136.984 144.229 135.777Z" fill="black"/>
<path d="M144.015 137.052C141.468 136.488 138.157 138.022 136.988 141.564C135.818 145.106 139.175 148.022 141.676 148.558C144.178 149.093 147.99 147.898 148.985 144.474C149.811 141.525 148.49 138.062 144.015 137.052Z" fill="#FF8473"/>
<path d="M145.825 141.626C145.825 141.869 146.736 141.97 146.674 141.508C146.613 141.045 145.792 141.31 145.825 141.626Z" fill="white"/>
<path d="M144.218 145.394C143.987 145.478 144.111 146.364 144.538 146.189C144.965 146.014 144.51 145.286 144.218 145.394Z" fill="white"/>
<path d="M146.382 145.546C146.236 145.743 146.821 146.414 147.085 146.031C147.349 145.647 146.568 145.292 146.382 145.546Z" fill="white"/>
<path d="M146.984 140.436C147.175 140.588 147.855 140.002 147.473 139.737C147.09 139.472 146.731 140.256 146.984 140.436Z" fill="white"/>
<path d="M141.778 139.505C141.991 139.387 141.727 138.53 141.334 138.772C140.94 139.015 141.502 139.658 141.778 139.505Z" fill="white"/>
<path d="M139.506 144.339C139.473 144.096 138.579 144.034 138.663 144.491C138.747 144.948 139.546 144.649 139.506 144.339Z" fill="white"/>
<path d="M140.805 145.264C140.67 145.061 139.844 145.405 140.119 145.777C140.395 146.149 140.979 145.512 140.805 145.264Z" fill="white"/>
<path d="M142.211 141.632C142.452 141.632 142.649 140.757 142.211 140.769C141.772 140.78 141.896 141.626 142.211 141.632Z" fill="white"/>
<path d="M138.444 138.564C138.444 138.564 141.817 141.384 141.564 142.421C141.311 143.459 136.375 143.888 136.268 143.279C136.161 142.669 137.044 139.246 138.444 138.564Z" fill="#FF8473"/>
<path opacity="0.1" d="M138.444 138.564C138.444 138.564 141.817 141.384 141.564 142.421C141.311 143.459 136.375 143.888 136.268 143.279C136.161 142.669 137.044 139.246 138.444 138.564Z" fill="black"/>
<path d="M139.411 147.977C139.411 147.977 141.553 144.136 142.604 144.187C143.656 144.237 145.005 149.026 144.431 149.263C143.858 149.499 140.333 149.223 139.411 147.977Z" fill="#FF8473"/>
<path opacity="0.1" d="M139.411 147.977C139.411 147.977 141.553 144.136 142.604 144.187C143.656 144.237 145.005 149.026 144.431 149.263C143.858 149.499 140.333 149.223 139.411 147.977Z" fill="black"/>
<path d="M148.85 146.64C148.85 146.64 145.156 144.26 145.269 143.211C145.381 142.162 150.227 141.096 150.407 141.682C150.587 142.269 150.121 145.8 148.85 146.64Z" fill="#FF8473"/>
<path opacity="0.1" d="M148.85 146.64C148.85 146.64 145.156 144.26 145.269 143.211C145.381 142.162 150.227 141.096 150.407 141.682C150.587 142.269 150.121 145.8 148.85 146.64Z" fill="black"/>
<path d="M147.529 137.875C147.529 137.875 145.162 141.581 144.116 141.468C143.071 141.355 142.008 136.499 142.593 136.313C143.177 136.127 146.68 136.578 147.529 137.875Z" fill="#FF8473"/>
<path opacity="0.1" d="M147.529 137.875C147.529 137.875 145.162 141.581 144.116 141.468C143.071 141.355 142.008 136.499 142.593 136.313C143.177 136.127 146.68 136.578 147.529 137.875Z" fill="black"/>
<path d="M153.044 156.431C155.4 158.602 159.841 159.025 163.248 156.002C166.655 152.979 164.89 147.819 162.574 145.709C160.257 143.6 155.484 142.517 152.353 145.535C149.643 148.152 148.912 152.63 153.044 156.431Z" fill="#FF8473"/>
<path opacity="0.1" d="M153.044 156.431C155.4 158.602 159.841 159.025 163.248 156.002C166.655 152.979 164.89 147.819 162.574 145.709C160.257 143.6 155.484 142.517 152.353 145.535C149.643 148.152 148.912 152.63 153.044 156.431Z" fill="black"/>
<path d="M153.876 155.416C155.799 157.187 159.431 157.531 162.214 155.066C164.997 152.601 163.558 148.383 161.652 146.651C159.746 144.92 155.861 144.046 153.303 146.51C151.099 148.648 150.503 152.308 153.876 155.416Z" fill="#FF8473"/>
<path d="M154.596 150.588C154.697 150.368 153.977 149.832 153.803 150.261C153.629 150.69 154.472 150.859 154.596 150.588Z" fill="white"/>
<path d="M157.874 148.123C158.11 148.168 158.436 147.339 157.986 147.272C157.536 147.204 157.559 148.067 157.874 148.123Z" fill="white"/>
<path d="M156.075 146.899C156.3 146.809 156.131 145.929 155.709 146.127C155.288 146.324 155.788 147.024 156.075 146.899Z" fill="white"/>
<path d="M152.999 151.005C152.909 150.78 152.032 150.943 152.223 151.366C152.415 151.789 153.123 151.293 152.999 151.005Z" fill="white"/>
<path d="M157.03 154.446C156.788 154.446 156.586 155.309 157.03 155.303C157.474 155.297 157.345 154.451 157.03 154.446Z" fill="white"/>
<path d="M161.416 151.411C161.326 151.637 162.062 152.139 162.219 151.705C162.377 151.27 161.534 151.118 161.416 151.411Z" fill="white"/>
<path d="M160.752 149.956C160.752 150.199 161.657 150.317 161.601 149.855C161.545 149.392 160.73 149.641 160.752 149.956Z" fill="white"/>
<path d="M157.716 152.387C157.508 152.263 156.901 152.923 157.311 153.143C157.722 153.363 157.992 152.551 157.716 152.387Z" fill="white"/>
<path d="M159.442 156.939C159.442 156.939 157.952 152.799 158.678 152.032C159.403 151.265 163.895 153.38 163.687 153.955C163.479 154.53 160.988 157.051 159.442 156.939Z" fill="#FF8473"/>
<path opacity="0.1" d="M159.442 156.939C159.442 156.939 157.952 152.799 158.678 152.032C159.403 151.265 163.895 153.38 163.687 153.955C163.479 154.53 160.988 157.051 159.442 156.939Z" fill="black"/>
<path d="M163.321 148.332C163.321 148.332 159.543 150.588 158.661 149.996C157.778 149.404 159.004 144.604 159.611 144.706C160.218 144.807 163.141 146.77 163.321 148.332Z" fill="#FF8473"/>
<path opacity="0.1" d="M163.321 148.332C163.321 148.332 159.543 150.588 158.661 149.996C157.778 149.404 159.004 144.604 159.611 144.706C160.218 144.807 163.141 146.77 163.321 148.332Z" fill="black"/>
<path d="M154.512 144.717C154.512 144.717 156.513 148.631 155.895 149.483C155.276 150.334 150.548 148.811 150.683 148.214C150.818 147.616 152.971 144.801 154.512 144.717Z" fill="#FF8473"/>
<path opacity="0.1" d="M154.512 144.717C154.512 144.717 156.513 148.631 155.895 149.483C155.276 150.334 150.548 148.811 150.683 148.214C150.818 147.616 152.971 144.801 154.512 144.717Z" fill="black"/>
<path d="M151.24 152.951C151.24 152.951 155.147 150.943 155.996 151.569C156.845 152.195 155.327 156.933 154.725 156.798C154.124 156.662 151.324 154.502 151.24 152.951Z" fill="#FF8473"/>
<path opacity="0.1" d="M151.24 152.951C151.24 152.951 155.147 150.943 155.996 151.569C156.845 152.195 155.327 156.933 154.725 156.798C154.124 156.662 151.324 154.502 151.24 152.951Z" fill="black"/>
<path d="M170.214 149.342C172.57 151.513 177.011 151.93 180.418 148.907C183.825 145.884 182.06 140.729 179.743 138.614C177.427 136.499 172.654 135.422 169.523 138.439C166.841 141.056 166.082 145.512 170.214 149.342Z" fill="#FF8473"/>
<path opacity="0.1" d="M170.214 149.342C172.57 151.513 177.011 151.93 180.418 148.907C183.825 145.884 182.06 140.729 179.743 138.614C177.427 136.499 172.654 135.422 169.523 138.439C166.841 141.056 166.082 145.512 170.214 149.342Z" fill="black"/>
<path d="M171.046 148.332C172.969 150.103 176.601 150.447 179.384 147.977C182.167 145.506 180.727 141.293 178.821 139.567C176.916 137.842 173.031 136.956 170.473 139.426C168.269 141.564 167.673 145.213 171.046 148.332Z" fill="#FF8473"/>
<path d="M171.766 143.476C171.867 143.256 171.147 142.726 170.973 143.154C170.799 143.583 171.631 143.764 171.766 143.476Z" fill="white"/>
<path d="M175.043 141.034C175.279 141.073 175.606 140.244 175.156 140.182C174.706 140.12 174.712 141 175.043 141.034Z" fill="white"/>
<path d="M173.244 139.81C173.469 139.714 173.301 138.834 172.879 139.032C172.457 139.229 172.958 139.934 173.244 139.81Z" fill="white"/>
<path d="M170.169 143.91C170.079 143.685 169.202 143.854 169.393 144.271C169.584 144.689 170.293 144.204 170.169 143.91Z" fill="white"/>
<path d="M174.2 147.351C173.958 147.351 173.756 148.219 174.2 148.208C174.644 148.197 174.515 147.362 174.2 147.351Z" fill="white"/>
<path d="M178.585 144.322C178.495 144.548 179.232 145.05 179.389 144.61C179.547 144.17 178.703 144.029 178.585 144.322Z" fill="white"/>
<path d="M177.922 142.861C177.922 143.104 178.827 143.222 178.771 142.765C178.715 142.308 177.899 142.545 177.922 142.861Z" fill="white"/>
<path d="M174.886 145.298C174.678 145.174 174.071 145.828 174.481 146.053C174.891 146.279 175.161 145.461 174.886 145.298Z" fill="white"/>
<path d="M176.612 149.844C176.612 149.844 175.122 145.704 175.847 144.942C176.572 144.181 181.064 146.285 180.856 146.866C180.648 147.447 178.158 149.956 176.612 149.844Z" fill="#FF8473"/>
<path opacity="0.1" d="M176.612 149.844C176.612 149.844 175.122 145.704 175.847 144.942C176.572 144.181 181.064 146.285 180.856 146.866C180.648 147.447 178.158 149.956 176.612 149.844Z" fill="black"/>
<path d="M180.491 141.22C180.491 141.22 176.713 143.476 175.83 142.912C174.948 142.348 176.173 137.52 176.78 137.616C177.388 137.712 180.334 139.68 180.491 141.22Z" fill="#FF8473"/>
<path opacity="0.1" d="M180.491 141.22C180.491 141.22 176.713 143.476 175.83 142.912C174.948 142.348 176.173 137.52 176.78 137.616C177.388 137.712 180.334 139.68 180.491 141.22Z" fill="black"/>
<path d="M171.681 137.616C171.681 137.616 173.683 141.53 173.064 142.382C172.446 143.233 167.718 141.716 167.853 141.113C167.988 140.509 170.141 137.706 171.681 137.616Z" fill="#FF8473"/>
<path opacity="0.1" d="M171.681 137.616C171.681 137.616 173.683 141.53 173.064 142.382C172.446 143.233 167.718 141.716 167.853 141.113C167.988 140.509 170.141 137.706 171.681 137.616Z" fill="black"/>
<path d="M168.409 145.862C168.409 145.862 172.317 143.854 173.165 144.474C174.014 145.095 172.496 149.838 171.895 149.703C171.293 149.567 168.494 147.413 168.409 145.862Z" fill="#FF8473"/>
<path opacity="0.1" d="M168.409 145.862C168.409 145.862 172.317 143.854 173.165 144.474C174.014 145.095 172.496 149.838 171.895 149.703C171.293 149.567 168.494 147.413 168.409 145.862Z" fill="black"/>
<path d="M112.875 153.087L129.336 175.585L172.322 172.866L185.838 148.473L112.875 153.087Z" fill="#EBEBEB"/>
<path d="M78.5354 115.518C68.2527 142.968 59.8421 172.872 66.2063 178.839C71.3448 183.65 114.022 190.683 123.36 190.045C127.329 189.786 131.36 159.025 124.484 157.948C122.528 157.644 91.8765 156.939 91.5729 156.256C90.5666 154.147 91.3705 139.235 91.7472 121.463C92.2194 98.621 82.8869 103.9 78.5354 115.518Z" fill="#AD6359"/>
<path d="M121.246 189.786C132.361 191.106 146.118 193.429 157.682 188.337C158.98 187.801 160.061 186.843 160.752 185.618C165.975 183.43 166.515 180.294 166.515 180.294C170.754 176.758 170.866 173.481 170.866 173.481C170.866 173.481 176.966 170.841 175.988 166.876C174.903 162.421 166.543 167 160.415 166.701C146.36 166.008 124.512 160.966 120.498 160.362L121.246 189.786Z" fill="#AD6359"/>
<path d="M145.202 176.335C149.339 176.453 153.404 176.684 157.536 176.239C162.073 175.754 166.357 174.547 170.748 173.385C170.762 173.38 170.776 173.379 170.791 173.38C170.805 173.381 170.819 173.385 170.832 173.392C170.844 173.398 170.856 173.407 170.865 173.418C170.874 173.429 170.881 173.442 170.886 173.455C170.89 173.469 170.892 173.484 170.891 173.498C170.89 173.512 170.886 173.526 170.879 173.539C170.873 173.552 170.864 173.563 170.853 173.573C170.842 173.582 170.829 173.589 170.816 173.594C163.192 176.921 153.387 177.897 145.19 176.521C144.994 176.493 144.994 176.329 145.202 176.335Z" fill="#263238"/>
<path d="M143.554 184.783C147.585 184.676 154.675 184.445 166.487 180.147C166.526 180.147 166.56 180.192 166.52 180.215C159.212 184.028 151.706 185.443 143.56 184.975C143.307 184.958 143.284 184.789 143.554 184.783Z" fill="#263238"/>
<path d="M142.75 189.335C149.603 188.895 153.865 187.744 160.741 185.579C160.774 185.579 160.808 185.629 160.769 185.646C153.218 188.934 150.087 189.267 142.733 189.594C142.48 189.583 142.48 189.352 142.75 189.335Z" fill="#263238"/>
<path d="M143.537 164.79C141.744 163.972 142.154 163.024 145.561 162.19C148.968 161.355 163.136 160.943 162.574 155.985C162.011 151.028 142.244 152.838 136.465 153.729C130.401 154.761 124.656 157.184 119.677 160.808C123.602 161.428 135.852 163.492 143.537 164.79Z" fill="#AD6359"/>
<path d="M92.4332 149.686L62.5295 156.363C62.5295 156.363 72.756 124.751 79.3957 112.422C86.367 99.5742 92.7649 99.1174 93.1921 118.44C93.5688 137.526 92.4332 149.686 92.4332 149.686Z" fill="#FF8473"/>
<path d="M66.3804 150.447C67.1113 150.199 67.8871 150.052 68.6293 149.883L70.9455 149.319C72.5141 148.941 74.0883 148.591 75.6624 148.247C78.8051 147.565 81.9535 146.866 85.1074 146.234C85.9789 146.065 86.8447 145.89 87.7161 145.743C88.5875 145.597 89.5657 145.489 90.4821 145.332C90.5383 145.332 90.544 145.405 90.4821 145.416C89.7063 145.608 88.9473 145.867 88.1715 146.065C87.3956 146.262 86.586 146.46 85.7877 146.629C84.2135 146.982 82.6394 147.326 81.0652 147.661C77.9618 148.309 74.881 148.975 71.7439 149.556L69.1296 150.041C68.2245 150.21 67.3025 150.436 66.3804 150.52C66.3523 150.532 66.3298 150.464 66.3804 150.447Z" fill="#263238"/>
<path d="M69.3433 138.22C70.0629 136.183 70.7207 134.136 71.4122 132.094C72.1937 129.776 72.9021 127.436 73.661 125.107C73.661 125.05 73.5767 125.016 73.5542 125.073C72.6154 127.554 69.4164 135.823 68.9104 137.227C67.4318 141.316 65.9532 145.405 64.5084 149.505C63.6988 151.806 62.8218 154.463 62.0234 156.764C61.9672 156.933 64.3678 156.279 65.6272 155.901C65.6946 155.901 65.7396 155.647 65.6553 155.67C64.4634 155.94 62.8442 156.115 62.6643 156.16C64.1992 152.269 65.6721 148.349 67.117 144.418C67.8703 142.357 68.6125 140.291 69.3433 138.22Z" fill="#263238"/>
<path d="M88.1321 149.139C87.9279 149.662 87.7681 150.201 87.6542 150.752L88.1433 150.644C88.3638 150.233 88.5609 149.809 88.7337 149.375C89.0312 148.597 89.2204 147.781 89.2959 146.95C88.8042 147.619 88.4122 148.356 88.1321 149.139V149.139ZM74.077 136.945C73.7723 137.721 73.5829 138.538 73.5148 139.37C74.4886 138.005 75.0982 136.413 75.2857 134.745C74.7766 135.414 74.3693 136.156 74.077 136.945V136.945ZM88.6943 132.664C88.3648 131.893 87.9275 131.174 87.3956 130.527C87.5125 131.356 87.7512 132.164 88.104 132.924C88.4322 133.695 88.8696 134.415 89.4027 135.061C89.2939 134.234 89.0667 133.426 88.728 132.664H88.6943ZM88.5481 108.452C88.2198 107.682 87.7824 106.964 87.2494 106.32C87.3724 107.146 87.6109 107.951 87.9578 108.711C88.286 109.482 88.7234 110.202 89.2565 110.849C89.1477 110.021 88.9205 109.214 88.5819 108.452H88.5481ZM72.8851 150.706C72.1206 151.039 71.4054 151.475 70.76 152.004C71.5867 151.885 72.3917 151.645 73.1494 151.293C73.9151 150.963 74.6305 150.526 75.2745 149.996C74.4599 150.12 73.6669 150.36 72.9189 150.706H72.8851ZM81.5206 120.696C80.7529 121.025 80.0355 121.462 79.3898 121.993C80.2181 121.869 81.0233 121.622 81.7792 121.26C82.5484 120.934 83.2662 120.497 83.91 119.963C83.0829 120.093 82.2784 120.339 81.5206 120.696V120.696Z" fill="white"/>
<path opacity="0.8" d="M130.297 249.728C130.297 252.091 109.867 252.063 109.873 249.694L109.974 225.769C110.414 225.735 110.846 225.627 111.25 225.448C111.314 225.419 111.368 225.373 111.406 225.315C111.444 225.256 111.464 225.188 111.464 225.118C111.464 225.048 111.444 224.98 111.406 224.921C111.368 224.862 111.314 224.816 111.25 224.788C110.843 224.596 110.412 224.462 109.968 224.387V223.101C110.41 223.069 110.843 222.963 111.25 222.786C111.313 222.753 111.365 222.705 111.402 222.644C111.438 222.584 111.458 222.515 111.458 222.444C111.458 222.374 111.438 222.305 111.402 222.245C111.365 222.184 111.313 222.135 111.25 222.103C110.837 221.932 110.408 221.805 109.968 221.725V220.439C110.41 220.403 110.843 220.294 111.25 220.118C111.313 220.087 111.366 220.038 111.403 219.979C111.439 219.919 111.459 219.85 111.459 219.78C111.459 219.709 111.439 219.64 111.403 219.58C111.366 219.521 111.313 219.472 111.25 219.441C110.839 219.263 110.409 219.135 109.968 219.058V217.755C110.408 217.714 110.839 217.611 111.25 217.45C111.313 217.419 111.366 217.371 111.403 217.311C111.439 217.251 111.459 217.182 111.459 217.112C111.459 217.041 111.439 216.973 111.403 216.913C111.366 216.853 111.313 216.805 111.25 216.773C110.836 216.602 110.407 216.469 109.968 216.379V210.97C109.968 209.069 116.265 203.029 117.237 202.104L117.367 201.985V201.985V200.513H123.051V201.985C123.051 201.985 130.427 208.934 130.427 211.009V216.412C129.988 216.507 129.559 216.641 129.145 216.813C129.084 216.837 129.032 216.88 128.999 216.937C128.952 217.008 128.93 217.093 128.937 217.178C128.944 217.263 128.98 217.343 129.038 217.405C129.064 217.443 129.102 217.473 129.145 217.49C129.554 217.651 129.984 217.753 130.421 217.794V219.097C129.997 219.172 129.582 219.293 129.184 219.458H129.139C129.077 219.489 129.024 219.538 128.987 219.597C128.95 219.657 128.93 219.726 128.93 219.796C128.93 219.867 128.95 219.936 128.987 219.995C129.024 220.055 129.077 220.104 129.139 220.135L129.24 220.174C129.619 220.332 130.019 220.429 130.427 220.462V221.748C130.072 221.811 129.723 221.907 129.387 222.036L129.145 222.126C129.082 222.157 129.029 222.205 128.992 222.265C128.955 222.325 128.936 222.394 128.936 222.464C128.936 222.534 128.955 222.603 128.992 222.663C129.029 222.723 129.082 222.771 129.145 222.803C129.24 222.851 129.34 222.889 129.443 222.915C129.76 223.03 130.091 223.1 130.427 223.124V224.41C130.132 224.461 129.843 224.536 129.561 224.636C129.409 224.692 129.269 224.754 129.151 224.81C129.087 224.839 129.033 224.885 128.995 224.944C128.957 225.002 128.937 225.07 128.937 225.14C128.937 225.21 128.957 225.279 128.995 225.337C129.033 225.396 129.087 225.442 129.151 225.47C129.307 225.539 129.469 225.596 129.634 225.639C129.894 225.718 130.162 225.769 130.432 225.792V238.2L130.297 249.728Z" fill="white"/>
<path opacity="0.8" d="M128.639 213.643L128.611 236.045L128.543 247.889C128.543 249.829 111.722 249.813 111.728 247.855L111.829 213.846C113.251 214.354 116.568 215.386 119.441 215.081C122.314 214.777 125.98 213.756 128.611 213.536C128.626 213.57 128.636 213.606 128.639 213.643V213.643Z" fill="#EBEBEB"/>
<path d="M124.244 196.904L116.204 196.893C116.046 196.892 115.917 197.021 115.917 197.18L115.913 200.226C115.913 200.384 116.041 200.513 116.199 200.514L124.239 200.525C124.397 200.525 124.526 200.396 124.526 200.238L124.53 197.192C124.53 197.033 124.402 196.904 124.244 196.904Z" fill="#FF8473"/>
<path d="M11.4811 230.4C12.1805 230.395 12.8642 230.191 13.4525 229.812C14.0408 229.432 14.5094 228.893 14.8037 228.256C14.8037 228.256 16.2992 229.717 18.7391 228.708C21.1791 227.698 23.7315 221.55 21.9212 216.435C20.1109 211.319 15.3547 210.113 11.526 214.111C6.34815 212.211 2.58701 215.397 3.22792 220.789C3.86883 226.181 8.8612 230.58 11.4811 230.4Z" fill="#FF8473"/>
<path d="M7.13528 208.28C8.47489 208.676 9.68079 209.433 10.6223 210.468C11.5637 211.503 12.2049 212.776 12.4762 214.151C12.7236 215.414 10.7896 215.877 10.5197 214.602C10.0981 212.47 8.27093 211.523 6.20202 210.902C4.96518 210.53 5.89281 207.907 7.13528 208.28Z" fill="#37474F"/>
<path d="M11.1663 215.448C11.1663 215.448 11.5429 209.565 17.1875 208.798C16.9444 210.377 16.244 211.849 15.1734 213.031C14.1028 214.214 12.7093 215.054 11.1663 215.448V215.448Z" fill="#37474F"/>
<path d="M30.4106 229.401C30.8498 229.95 31.436 230.361 32.1003 230.587C32.7646 230.813 33.4794 230.844 34.1605 230.676C34.1605 230.676 33.9413 232.763 36.2407 234.06C38.5401 235.357 44.938 233.569 47.8277 228.984C50.7174 224.399 48.7216 219.898 43.2233 219.345C41.5366 214.089 36.6904 213.09 32.8618 216.926C29.0332 220.761 28.6397 227.427 30.4106 229.401Z" fill="#FF8473"/>
<path d="M45.0616 212.301C45.5788 213.602 45.7312 215.02 45.5023 216.402C45.2733 217.784 44.6718 219.077 43.7629 220.14C42.9252 221.122 41.3567 219.864 42.2 218.883C43.6111 217.23 43.2288 215.211 42.4305 213.186C41.9526 211.985 44.5837 211.094 45.0616 212.301Z" fill="#37474F"/>
<path d="M41.9526 219.892C41.9526 219.892 46.7988 216.553 50.8861 220.535C49.4981 221.318 47.9113 221.675 46.323 221.56C44.7348 221.446 43.215 220.866 41.9526 219.892Z" fill="#37474F"/>
<path d="M26.7001 233.034C26.0105 232.918 25.3679 232.607 24.8473 232.139C24.3266 231.671 23.9495 231.064 23.7598 230.388C23.7598 230.388 22.0732 231.595 19.7906 230.214C17.5081 228.832 15.9957 222.351 18.5875 217.586C21.1793 212.82 26.0648 212.385 29.2188 216.937C34.6328 215.888 37.843 219.633 36.3588 224.833C34.8745 230.033 29.2806 233.626 26.7001 233.034Z" fill="#FF8473"/>
<path opacity="0.1" d="M26.7001 233.034C26.0105 232.918 25.3679 232.607 24.8473 232.139C24.3266 231.671 23.9495 231.064 23.7598 230.388C23.7598 230.388 22.0732 231.595 19.7906 230.214C17.5081 228.832 15.9957 222.351 18.5875 217.586C21.1793 212.82 26.0648 212.385 29.2188 216.937C34.6328 215.888 37.843 219.633 36.3588 224.833C34.8745 230.033 29.2806 233.626 26.7001 233.034Z" fill="black"/>
<path d="M34.4809 211.878C33.0983 212.06 31.7916 212.618 30.7018 213.49C29.6119 214.363 28.7803 215.518 28.2967 216.83C27.8525 218.037 29.7078 218.804 30.1576 217.586C30.9053 215.55 32.8561 214.901 35.0037 214.619C36.2687 214.45 35.7627 211.709 34.4809 211.878Z" fill="#37474F"/>
<path d="M29.3762 218.268C29.3762 218.268 29.9384 212.402 24.4794 210.75C24.4696 212.347 24.9288 213.911 25.7996 215.248C26.6704 216.585 27.9143 217.636 29.3762 218.268Z" fill="#37474F"/>
<path d="M56.4349 232.024C55.7639 232.224 55.0501 232.229 54.3763 232.038C53.7026 231.848 53.0966 231.469 52.6288 230.947C52.6288 230.947 51.6281 232.785 48.9913 232.537C46.3546 232.289 42.1325 227.157 42.3742 221.731C42.6159 216.305 46.81 213.762 51.6393 216.458C56.0358 213.124 60.5615 215.07 61.5172 220.406C62.473 225.741 59.0098 231.42 56.4349 232.024Z" fill="#FF8473"/>
<path opacity="0.1" d="M56.4349 232.024C55.7639 232.224 55.0501 232.229 54.3763 232.038C53.7026 231.848 53.0966 231.469 52.6288 230.947C52.6288 230.947 51.6281 232.785 48.9913 232.537C46.3546 232.289 42.1325 227.157 42.3742 221.731C42.6159 216.305 46.81 213.762 51.6393 216.458C56.0358 213.124 60.5615 215.07 61.5172 220.406C62.473 225.741 59.0098 231.42 56.4349 232.024Z" fill="black"/>
<path d="M54.1412 209.594C52.9806 210.369 52.053 211.447 51.4586 212.713C50.8641 213.978 50.6253 215.382 50.768 216.773C50.8973 218.059 52.8987 217.901 52.7694 216.632C52.5501 214.472 54.0175 213.034 55.8222 211.827C56.8791 211.111 55.2206 208.877 54.1412 209.594Z" fill="#37474F"/>
<path d="M52.3702 217.602C52.3702 217.602 50.2956 212.087 44.6736 213.011C45.3664 214.45 46.4654 215.651 47.8339 216.468C49.2023 217.284 50.7799 217.679 52.3702 217.602V217.602Z" fill="#37474F"/>
<path d="M61.4161 224.32C61.4161 224.32 56.2719 243.648 49.5423 243.648H13.9211C7.17466 243.648 2.05298 224.32 2.05298 224.32H61.4161Z" fill="#EBEBEB"/>
<path d="M210.518 225.685C215.865 218.917 215.691 217.546 215.618 216.948C215.618 216.79 212.835 201.027 207.848 201.027H198.037C198.071 199.131 198.127 197.676 198.172 197.349C198.369 195.905 199.061 194.529 200.163 194.529C201.264 194.529 201.287 193.17 200.163 193.17H179.681C178.585 193.17 178.585 194.529 179.681 194.529C180.778 194.529 184.871 196.114 185.483 196.915C186.096 197.716 186.271 209.599 186.119 212.295C185.967 214.991 173.587 221.928 171.822 230.056C170.057 238.183 174.363 249.762 192.123 249.762C209.883 249.762 214.184 238.183 212.43 230.056C212.056 228.496 211.409 227.016 210.518 225.685V225.685ZM198.15 212.312C198.004 211.229 197.976 207.845 198.004 204.563H207.668C209.237 205.787 211.705 214.517 212.115 217.168C211.783 218.037 210.097 220.473 208.337 222.769C204.126 217.935 198.369 214.106 198.127 212.312H198.15Z" fill="white"/>
<path d="M210.518 225.685C211.508 224.416 212.48 223.13 213.386 221.799C213.835 221.133 214.274 220.456 214.662 219.757C215.081 219.073 215.388 218.327 215.572 217.546C215.608 217.148 215.57 216.746 215.46 216.362L215.213 215.183C215.044 214.393 214.857 213.609 214.65 212.831C214.251 211.274 213.79 209.729 213.256 208.212C212.734 206.693 212.061 205.231 211.249 203.847C210.848 203.16 210.35 202.535 209.771 201.991C209.493 201.717 209.165 201.501 208.804 201.354C208.443 201.208 208.057 201.135 207.668 201.139H198.032H197.902V201.01L197.987 198.675L198.026 197.513C198.052 197.118 198.125 196.728 198.245 196.351C198.357 195.965 198.526 195.598 198.746 195.262C198.967 194.905 199.296 194.629 199.685 194.473C199.784 194.436 199.888 194.413 199.994 194.405H200.281C200.442 194.391 200.593 194.322 200.708 194.208C200.756 194.152 200.792 194.087 200.812 194.016C200.831 193.945 200.835 193.87 200.822 193.797C200.809 193.725 200.78 193.656 200.737 193.596C200.694 193.536 200.638 193.487 200.573 193.452C200.227 193.345 199.864 193.311 199.505 193.35H196.036H191.403H182.138H179.828C179.457 193.35 179.142 193.441 179.057 193.728C179.04 193.799 179.038 193.872 179.052 193.943C179.066 194.014 179.095 194.081 179.137 194.139C179.179 194.198 179.234 194.247 179.297 194.282C179.36 194.317 179.43 194.338 179.501 194.343C179.642 194.343 179.884 194.343 180.064 194.4C180.244 194.456 180.452 194.478 180.626 194.524C181.008 194.625 181.379 194.738 181.75 194.868C182.487 195.12 183.209 195.412 183.915 195.742C184.272 195.911 184.619 196.099 184.955 196.306C185.13 196.413 185.298 196.534 185.455 196.667C185.547 196.747 185.622 196.845 185.674 196.954C185.718 197.054 185.75 197.158 185.77 197.265C185.915 198.036 186.01 198.816 186.057 199.6C186.169 201.151 186.225 202.696 186.27 204.247C186.315 205.798 186.344 207.349 186.349 208.9C186.349 209.673 186.349 210.451 186.349 211.229C186.349 211.618 186.349 211.991 186.304 212.408C186.216 212.826 186.023 213.215 185.742 213.536C184.729 214.724 183.617 215.824 182.419 216.824C181.261 217.851 180.103 218.871 178.984 219.932C176.764 222.058 174.61 224.32 173.149 227.021C172.406 228.359 171.934 229.831 171.76 231.353C171.555 232.874 171.572 234.417 171.811 235.932L171.889 236.496C171.929 236.683 171.979 236.869 172.024 237.06L172.3 238.188L172.704 239.266L172.907 239.802L173.165 240.315L173.694 241.336C173.896 241.657 174.127 241.967 174.34 242.283C174.774 242.915 175.261 243.507 175.797 244.054C176.057 244.334 176.337 244.594 176.634 244.832L177.506 245.577C178.152 245.989 178.771 246.445 179.434 246.823C180.097 247.201 180.795 247.534 181.509 247.81C182.223 248.087 182.948 248.374 183.684 248.566C186.659 249.358 189.732 249.715 192.809 249.626L195.114 249.536C195.878 249.463 196.643 249.344 197.402 249.249C198.16 249.144 198.912 248.991 199.651 248.792C200.022 248.701 200.404 248.628 200.775 248.515L201.86 248.132C204.785 247.155 207.391 245.401 209.399 243.056C209.647 242.763 209.844 242.43 210.069 242.12C210.304 241.815 210.512 241.49 210.693 241.149L211.255 240.129C211.426 239.783 211.574 239.427 211.699 239.063C212.259 237.619 212.593 236.097 212.688 234.551C212.791 233.007 212.681 231.456 212.362 229.943C211.996 228.428 211.372 226.987 210.518 225.685V225.685ZM210.518 225.685C211.384 226.973 212.025 228.399 212.413 229.903C212.747 231.421 212.872 232.977 212.784 234.528C212.698 236.082 212.374 237.613 211.823 239.068C211.704 239.438 211.557 239.798 211.384 240.146L210.822 241.183C210.642 241.526 210.435 241.854 210.203 242.165C209.979 242.481 209.782 242.819 209.529 243.118C207.527 245.521 204.903 247.323 201.945 248.324L200.848 248.713C200.477 248.826 200.095 248.899 199.724 248.995C198.984 249.195 198.233 249.351 197.475 249.463C196.705 249.559 195.94 249.683 195.17 249.756L192.848 249.858C189.745 249.954 186.643 249.602 183.639 248.814C182.897 248.594 182.172 248.307 181.435 248.053C180.699 247.799 180.03 247.387 179.327 247.055C178.624 246.722 178.017 246.214 177.359 245.797L176.471 245.035C176.165 244.795 175.877 244.531 175.611 244.246C175.064 243.686 174.564 243.083 174.116 242.441C173.896 242.12 173.666 241.804 173.458 241.477L172.896 240.433L172.626 239.914L172.418 239.35L172.007 238.256L171.715 237.128C171.67 236.936 171.614 236.75 171.574 236.564L171.496 236C171.246 234.453 171.223 232.878 171.428 231.325C171.606 229.759 172.088 228.244 172.845 226.863C173.592 225.492 174.488 224.208 175.515 223.034C176.526 221.849 177.599 220.719 178.731 219.65C179.856 218.578 181.014 217.552 182.166 216.52C183.339 215.535 184.428 214.454 185.421 213.288C185.647 213.018 185.807 212.7 185.888 212.357C185.922 212.002 185.922 211.596 185.933 211.229C185.933 210.457 185.933 209.684 185.933 208.911C185.933 207.366 185.933 205.815 185.871 204.27C185.809 202.724 185.776 201.179 185.669 199.639C185.627 198.882 185.539 198.129 185.405 197.383C185.405 197.287 185.354 197.208 185.332 197.135C185.296 197.073 185.25 197.018 185.197 196.971C185.058 196.854 184.912 196.747 184.758 196.65C184.433 196.454 184.097 196.277 183.752 196.12C183.059 195.793 182.35 195.503 181.627 195.251C180.915 194.974 180.167 194.799 179.406 194.732C179.288 194.716 179.175 194.676 179.072 194.615C178.97 194.554 178.881 194.473 178.81 194.377C178.735 194.278 178.685 194.162 178.664 194.039C178.642 193.917 178.65 193.791 178.686 193.672C178.723 193.556 178.785 193.449 178.866 193.359C178.947 193.268 179.047 193.196 179.159 193.147C179.36 193.067 179.577 193.032 179.794 193.046H182.11H191.375H196.008H200.056C200.274 193.034 200.491 193.08 200.685 193.181C200.791 193.238 200.882 193.319 200.951 193.416C201.02 193.514 201.066 193.627 201.085 193.745C201.103 193.863 201.095 193.983 201.06 194.096C201.024 194.21 200.964 194.313 200.882 194.4C200.724 194.563 200.512 194.665 200.286 194.687C200.096 194.684 199.906 194.711 199.724 194.766C199.389 194.897 199.107 195.135 198.92 195.443C198.715 195.756 198.558 196.098 198.453 196.458C198.261 197.194 198.173 197.954 198.195 198.714L198.11 201.021L197.981 200.891H207.617C208.458 200.886 209.266 201.215 209.866 201.805C210.46 202.365 210.97 203.009 211.378 203.717C212.186 205.118 212.851 206.598 213.363 208.133C213.892 209.661 214.336 211.212 214.724 212.78C214.915 213.559 215.095 214.348 215.286 215.138L215.522 216.322C215.63 216.717 215.662 217.128 215.617 217.535C215.43 218.324 215.115 219.076 214.684 219.763C214.285 220.468 213.841 221.139 213.386 221.799C212.497 223.147 211.519 224.421 210.518 225.685Z" fill="#263238"/>
<path d="M198.127 212.312C198.049 211.669 198.032 211.026 198.004 210.378L197.959 208.437V204.563V204.523H197.998L207.662 204.405H207.724L207.758 204.439L208.078 204.76C208.168 204.879 208.247 205.003 208.331 205.121C208.49 205.36 208.637 205.606 208.77 205.86C209.029 206.368 209.253 206.886 209.473 207.405C209.894 208.454 210.265 209.52 210.597 210.592C210.929 211.664 211.266 212.741 211.547 213.829C211.828 214.918 212.109 216.018 212.278 217.14V217.191V217.236C212.037 217.76 211.753 218.264 211.429 218.742C211.12 219.216 210.794 219.678 210.462 220.14C209.802 221.054 209.124 221.957 208.427 222.848L208.331 222.966L208.23 222.853C206.624 221.011 204.906 219.271 203.086 217.642C202.181 216.819 201.264 216.006 200.376 215.166C199.932 214.743 199.494 214.32 199.089 213.858C198.643 213.432 198.313 212.9 198.127 212.312V212.312ZM198.127 212.312C198.315 212.896 198.645 213.424 199.089 213.846C199.499 214.303 199.943 214.726 200.387 215.143C201.287 215.973 202.209 216.779 203.12 217.586C204.983 219.17 206.75 220.865 208.41 222.662H208.213C208.888 221.759 209.544 220.845 210.181 219.921C210.496 219.452 210.811 218.984 211.109 218.516C211.417 218.058 211.688 217.575 211.918 217.072V217.168C211.727 216.08 211.452 214.991 211.159 213.908C210.867 212.825 210.558 211.754 210.226 210.682C209.894 209.611 209.529 208.556 209.102 207.518C208.899 206.999 208.674 206.492 208.433 205.99C208.212 205.5 207.912 205.05 207.544 204.659L207.64 204.693L197.976 204.574L198.015 204.535C197.992 205.828 197.992 207.12 198.015 208.409V210.349C198.043 211.021 198.054 211.669 198.127 212.312Z" fill="#263238"/>
<path d="M191.685 247.032C176.752 247.032 173.132 237.297 174.61 230.473C176.089 223.649 188.666 216.001 188.401 213.784C188.356 213.35 188.323 204.659 188.306 203.751H195.744C195.744 204.698 195.8 213.395 195.85 213.784C196.148 215.995 207.269 223.632 208.781 230.473C210.294 237.314 206.617 247.032 191.685 247.032Z" fill="#FF8473"/>
<path d="M176.246 48.724C175.931 51.8533 174.751 54.8323 172.842 57.3267C170.932 59.8211 168.367 61.732 165.434 62.845C162.502 63.958 159.318 64.2289 156.241 63.6275C153.163 63.026 150.314 61.5759 148.012 59.44L139.579 60.6864L143.807 53.3544C142.749 50.7736 142.35 47.968 142.649 45.1933C143.164 40.7617 145.399 36.7123 148.87 33.9231C152.342 31.1339 156.769 29.8299 161.192 30.2937C165.616 30.7576 169.678 32.952 172.5 36.401C175.321 39.85 176.673 44.2757 176.263 48.7183L176.246 48.724Z" fill="white"/>
<path d="M176.246 48.724C175.92 51.8488 174.741 54.8229 172.839 57.3193C172.363 57.9394 171.85 58.5308 171.304 59.0903C170.742 59.6303 170.147 60.1351 169.522 60.6018C168.276 61.5415 166.904 62.301 165.446 62.8578C163.988 63.4307 162.457 63.7971 160.898 63.9463C160.117 64.0149 159.332 64.03 158.548 63.9914C157.763 63.973 156.981 63.8919 156.209 63.7489C153.093 63.1718 150.199 61.7365 147.849 59.6035L148.052 59.6656L139.619 60.9684L139.006 61.0643L139.315 60.5003L143.52 53.1683V53.4559C142.525 51.0288 142.099 48.4051 142.273 45.7866C142.448 43.1681 143.219 40.6247 144.527 38.352C145.844 36.0963 147.653 34.1684 149.817 32.712C151.982 31.2757 154.442 30.349 157.015 30.0013C159.587 29.6536 162.204 29.8939 164.67 30.7042C167.114 31.538 169.342 32.9079 171.192 34.7142C173.036 36.5136 174.449 38.7094 175.325 41.1361C176.2 43.5629 176.515 46.1573 176.246 48.724V48.724ZM176.246 48.724C176.515 46.1716 176.196 43.5914 175.314 41.182C174.433 38.7727 173.012 36.5983 171.161 34.8261C169.311 33.054 167.08 31.7314 164.639 30.9601C162.199 30.1888 159.615 29.9893 157.086 30.377C154.579 30.7564 152.192 31.7034 150.104 33.1463C148.036 34.5998 146.31 36.4879 145.044 38.6791C143.797 40.8771 143.063 43.3298 142.896 45.8532C142.74 48.3725 143.147 50.895 144.088 53.236L144.15 53.3882L144.066 53.5236L139.815 60.8556L139.512 60.41L147.979 59.22H148.097L148.181 59.299C150.438 61.4197 153.239 62.8671 156.271 63.4782C157.027 63.6314 157.794 63.7257 158.565 63.7602C160.885 63.9209 163.213 63.5785 165.39 62.7563C166.85 62.2293 168.223 61.488 169.466 60.5567C170.732 59.6496 171.852 58.5542 172.789 57.308C174.711 54.8229 175.908 51.8512 176.246 48.724Z" fill="#263238"/>
<path d="M166.604 50.1565C164.71 52.7133 162.288 54.8295 159.504 56.3605C156.722 54.8284 154.301 52.7123 152.409 50.1565C149.913 46.8402 150.036 41.6457 153.606 40.5234C157.542 39.2826 159.504 45.2497 159.504 45.2497C159.504 45.2497 161.477 39.2431 165.407 40.5234C168.966 41.6852 169.089 46.8402 166.604 50.1565Z" fill="#FF8473"/>
</svg>
