<svg width="36" height="36" viewBox="0 0 36 36" fill="none" xmlns="http://www.w3.org/2000/svg">
<path fill-rule="evenodd" clip-rule="evenodd" d="M23.7747 3.75105C24.7212 3.75105 25.6662 3.88455 26.5647 4.18605C32.1012 5.98605 34.0962 12.061 32.4297 17.371C31.4847 20.0845 29.9397 22.561 27.9162 24.5845C25.0197 27.3895 21.8412 29.8795 18.4197 32.0245L18.0447 32.251L17.6547 32.0095C14.2212 29.8795 11.0247 27.3895 8.10122 24.5695C6.09122 22.546 4.54472 20.0845 3.58472 17.371C1.88972 12.061 3.88472 5.98605 9.48122 4.15455C9.91622 4.00455 10.3647 3.89955 10.8147 3.84105H10.9947C11.4162 3.77955 11.8347 3.75105 12.2547 3.75105H12.4197C13.3647 3.77955 14.2797 3.94455 15.1662 4.24605H15.2547C15.3147 4.27455 15.3597 4.30605 15.3897 4.33455C15.7212 4.44105 16.0347 4.56105 16.3347 4.72605L16.9047 4.98105C17.0425 5.05451 17.1971 5.16675 17.3307 5.26376C17.4153 5.32522 17.4915 5.38056 17.5497 5.41605C17.5742 5.43049 17.5991 5.44501 17.6242 5.45965C17.7528 5.53473 17.8867 5.61294 17.9997 5.69955C19.6662 4.42605 21.6897 3.73605 23.7747 3.75105ZM27.7647 14.551C28.3797 14.5345 28.9047 14.041 28.9497 13.4095V13.231C28.9947 11.1295 27.7212 9.22605 25.7847 8.49105C25.1697 8.27955 24.4947 8.61105 24.2697 9.24105C24.0597 9.87105 24.3897 10.561 25.0197 10.7845C25.9812 11.1445 26.6247 12.091 26.6247 13.1395V13.186C26.5962 13.5295 26.6997 13.861 26.9097 14.116C27.1197 14.371 27.4347 14.5195 27.7647 14.551Z" fill="#91C788"/>
</svg>
