<svg width="36" height="36" viewBox="0 0 36 36" fill="none" xmlns="http://www.w3.org/2000/svg">
<g id="Iconly/Bold/Home">
<g id="Home">
<path id="Home_2" d="M13.7022 31.16V26.5734C13.7022 25.4026 14.6583 24.4535 15.8377 24.4535H20.1489C20.7153 24.4535 21.2585 24.6768 21.6589 25.0744C22.0594 25.472 22.2844 26.0112 22.2844 26.5734V31.16C22.2808 31.6468 22.4731 32.1148 22.8186 32.4603C23.164 32.8057 23.6341 33 24.1244 33H27.0657C28.4395 33.0035 29.7581 32.4643 30.7308 31.5012C31.7034 30.5382 32.25 29.2305 32.25 27.8667V14.8003C32.25 13.6987 31.7581 12.6538 30.9069 11.947L20.901 4.0138C19.1605 2.62284 16.6667 2.66775 14.9781 4.12047L5.20052 11.947C4.30911 12.6329 3.77633 13.681 3.75 14.8003V27.8534C3.75 30.6958 6.07107 33 8.93426 33H11.8084C12.8268 33 13.6545 32.1843 13.6619 31.1733L13.7022 31.16Z" fill="#91C788"/>
</g>
</g>
</svg>
