<svg width="36" height="36" viewBox="0 0 36 36" fill="none" xmlns="http://www.w3.org/2000/svg">
<g id="Iconly/Bold/Search">
<g id="Search">
<path id="Search_2" fill-rule="evenodd" clip-rule="evenodd" d="M3 16.0049C3 8.82249 8.76051 3 15.8665 3C19.2789 3 22.5515 4.37015 24.9644 6.80904C27.3773 9.24793 28.7329 12.5558 28.7329 16.0049C28.7329 23.1873 22.9724 29.0098 15.8665 29.0098C8.76051 29.0098 3 23.1873 3 16.0049ZM28.52 26.4814L32.352 29.5746H32.4185C33.1938 30.3582 33.1938 31.6287 32.4185 32.4123C31.6433 33.1959 30.3863 33.1959 29.6111 32.4123L26.4311 28.7677C26.1304 28.4649 25.9614 28.0536 25.9614 27.6246C25.9614 27.1956 26.1304 26.7842 26.4311 26.4814C27.0108 25.9056 27.9402 25.9056 28.52 26.4814Z" fill="#91C788"/>
</g>
</g>
</svg>
